<!--?xml version="1.0" encoding="UTF-8" standalone="no"?-->

<!-- Generated by graphviz version 2.40.1 (20161225.0304)
 -->
<!-- Title: %0 Pages: 1 -->
<svg width="962pt" height="1977pt" viewBox="0.00 0.00 962.39 1977.00" xmlns="http://www.w3.org/2000/svg" xmlns:xlink="http://www.w3.org/1999/xlink">
<g id="graph0" class="graph" transform="scale(1 1) rotate(0) translate(4 1973)">
<title>%0</title>
<polygon fill="#ffffff" stroke="transparent" points="-4,4 -4,-1973 958.3862,-1973 958.3862,4 -4,4"></polygon>
<g id="clust1" class="cluster">
<title>cluster53</title>
<polygon fill="#eeeeee" stroke="#eeeeee" stroke-width="3" points="845.2655,-188 845.2655,-373 928.5657,-373 928.5657,-188 845.2655,-188"></polygon>
<text text-anchor="middle" x="886.9156" y="-356.4" font-family="Times,serif" font-size="14.00" fill="#000000">legend</text>
</g>
<g id="clust2" class="cluster">
<title>cluster54</title>
<polygon fill="#eeeeee" stroke="#eeeeee" stroke-width="3" points="134.6256,-1549 134.6256,-1788 252.9468,-1788 252.9468,-1549 134.6256,-1549"></polygon>
<text text-anchor="middle" x="193.7862" y="-1771.4" font-family="Times,serif" font-size="14.00" fill="#000000">braid-server</text>
</g>
<g id="clust3" class="cluster">
<title>cluster55</title>
<polygon fill="#eeeeee" stroke="#eeeeee" stroke-width="3" points="7,-978 7,-1217 114.6256,-1217 114.6256,-978 7,-978"></polygon>
<text text-anchor="middle" x="60.8128" y="-1200.4" font-family="Times,serif" font-size="14.00" fill="#000000">braid-web-client</text>
</g>
<g id="clust4" class="cluster">
<title>cluster56</title>
<polygon fill="#eeeeee" stroke="#eeeeee" stroke-width="3" points="272.9468,-265 272.9468,-612 418.442,-612 418.442,-265 272.9468,-265"></polygon>
<text text-anchor="middle" x="345.6944" y="-595.4" font-family="Times,serif" font-size="14.00" fill="#000000">conversation-ui</text>
</g>
<!-- new -->
<g id="node1" class="node">
<title>new</title>
<path fill="none" stroke="#9ed1f3" stroke-width="3" d="M901.9156,-340C901.9156,-340 871.9156,-340 871.9156,-340 865.9156,-340 859.9156,-334 859.9156,-328 859.9156,-328 859.9156,-316 859.9156,-316 859.9156,-310 865.9156,-304 871.9156,-304 871.9156,-304 901.9156,-304 901.9156,-304 907.9156,-304 913.9156,-310 913.9156,-316 913.9156,-316 913.9156,-328 913.9156,-328 913.9156,-334 907.9156,-340 901.9156,-340"></path>
<text text-anchor="middle" x="886.9156" y="-317.8" font-family="Times,serif" font-size="14.00" fill="#000000">new</text>
</g>
<!-- in&#45;core -->
<g id="node2" class="node">
<title>in-core</title>
<path fill="#9ed1f3" stroke="#9ed1f3" stroke-width="3" d="M902.5578,-286C902.5578,-286 871.2734,-286 871.2734,-286 865.2734,-286 859.2734,-280 859.2734,-274 859.2734,-274 859.2734,-262 859.2734,-262 859.2734,-256 865.2734,-250 871.2734,-250 871.2734,-250 902.5578,-250 902.5578,-250 908.5578,-250 914.5578,-256 914.5578,-262 914.5578,-262 914.5578,-274 914.5578,-274 914.5578,-280 908.5578,-286 902.5578,-286"></path>
<text text-anchor="middle" x="886.9156" y="-263.8" font-family="Times,serif" font-size="14.00" fill="#000000">in-core</text>
</g>
<!-- extracted -->
<g id="node3" class="node">
<title>extracted</title>
<path fill="#4cafef" stroke="#4cafef" stroke-width="3" d="M908.7165,-232C908.7165,-232 865.1147,-232 865.1147,-232 859.1147,-232 853.1147,-226 853.1147,-220 853.1147,-220 853.1147,-208 853.1147,-208 853.1147,-202 859.1147,-196 865.1147,-196 865.1147,-196 908.7165,-196 908.7165,-196 914.7165,-196 920.7165,-202 920.7165,-208 920.7165,-208 920.7165,-220 920.7165,-220 920.7165,-226 914.7165,-232 908.7165,-232"></path>
<text text-anchor="middle" x="886.9156" y="-209.8" font-family="Times,serif" font-size="14.00" fill="#000000">extracted</text>
</g>
<!-- system&#45;settings -->
<g id="node4" class="node">
<title>system-settings</title>
<polygon fill="#9ed1f3" stroke="#9ed1f3" stroke-width="3" points="245.1079,-1755 142.4645,-1755 142.4645,-1719 245.1079,-1719 245.1079,-1755"></polygon>
<text text-anchor="middle" x="193.7862" y="-1732.8" font-family="Times,serif" font-size="14.00" fill="#000000">system-settings</text>
</g>
<!-- jobs -->
<g id="node5" class="node">
<title>jobs</title>
<polygon fill="#9ed1f3" stroke="#9ed1f3" stroke-width="3" points="220.7862,-1701 166.7862,-1701 166.7862,-1665 220.7862,-1665 220.7862,-1701"></polygon>
<text text-anchor="middle" x="193.7862" y="-1678.8" font-family="Times,serif" font-size="14.00" fill="#000000">jobs</text>
</g>
<!-- email -->
<g id="node6" class="node">
<title>email</title>
<polygon fill="#9ed1f3" stroke="#9ed1f3" stroke-width="3" points="220.7862,-1593 166.7862,-1593 166.7862,-1557 220.7862,-1557 220.7862,-1593"></polygon>
<text text-anchor="middle" x="193.7862" y="-1570.8" font-family="Times,serif" font-size="14.00" fill="#000000">email</text>
</g>
<!-- state -->
<g id="node7" class="node">
<title>state</title>
<polygon fill="#9ed1f3" stroke="#9ed1f3" stroke-width="3" points="220.7862,-1647 166.7862,-1647 166.7862,-1611 220.7862,-1611 220.7862,-1647"></polygon>
<text text-anchor="middle" x="193.7862" y="-1624.8" font-family="Times,serif" font-size="14.00" fill="#000000">state</text>
</g>
<!-- error -->
<g id="node8" class="node">
<title>error</title>
<polygon fill="#9ed1f3" stroke="#9ed1f3" stroke-width="3" points="88.3128,-1076 34.3128,-1076 34.3128,-1040 88.3128,-1040 88.3128,-1076"></polygon>
<text text-anchor="middle" x="61.3128" y="-1053.8" font-family="Times,serif" font-size="14.00" fill="#000000">error</text>
</g>
<!-- page -->
<g id="node9" class="node">
<title>page</title>
<polygon fill="#9ed1f3" stroke="#9ed1f3" stroke-width="3" points="88.3128,-1130 34.3128,-1130 34.3128,-1094 88.3128,-1094 88.3128,-1130"></polygon>
<text text-anchor="middle" x="61.3128" y="-1107.8" font-family="Times,serif" font-size="14.00" fill="#000000">page</text>
</g>
<!-- user&#45;menu -->
<g id="node10" class="node">
<title>user-menu</title>
<polygon fill="#9ed1f3" stroke="#9ed1f3" stroke-width="3" points="98.8984,-1184 23.7272,-1184 23.7272,-1148 98.8984,-1148 98.8984,-1184"></polygon>
<text text-anchor="middle" x="61.3128" y="-1161.8" font-family="Times,serif" font-size="14.00" fill="#000000">user-menu</text>
</g>
<!-- group&#45;header -->
<g id="node11" class="node">
<title>group-header</title>
<polygon fill="#9ed1f3" stroke="#9ed1f3" stroke-width="3" points="106.4392,-1022 16.1864,-1022 16.1864,-986 106.4392,-986 106.4392,-1022"></polygon>
<text text-anchor="middle" x="61.3128" y="-999.8" font-family="Times,serif" font-size="14.00" fill="#000000">group-header</text>
</g>
<!-- inbox -->
<g id="node12" class="node">
<title>inbox</title>
<path fill="#9ed1f3" stroke="#9ed1f3" stroke-width="3" d="M360.6944,-897C360.6944,-897 330.6944,-897 330.6944,-897 324.6944,-897 318.6944,-891 318.6944,-885 318.6944,-885 318.6944,-873 318.6944,-873 318.6944,-867 324.6944,-861 330.6944,-861 330.6944,-861 360.6944,-861 360.6944,-861 366.6944,-861 372.6944,-867 372.6944,-873 372.6944,-873 372.6944,-885 372.6944,-885 372.6944,-891 366.6944,-897 360.6944,-897"></path>
<text text-anchor="middle" x="345.6944" y="-874.8" font-family="Times,serif" font-size="14.00" fill="#000000">inbox</text>
</g>
<!-- inbox&#45;&gt;group&#45;header -->
<g id="edge1" class="edge">
<title>inbox-&gt;group-header</title>
<path fill="none" stroke="#000000" d="M318.6841,-890.8724C271.3064,-911.6973 172.5246,-955.1168 112.0592,-981.6944"></path>
<polygon fill="#000000" stroke="#000000" points="110.4439,-978.5812 102.6976,-985.8093 113.2607,-984.9894 110.4439,-978.5812"></polygon>
</g>
<!-- group&#45;page -->
<g id="node19" class="node">
<title>group-page</title>
<polygon fill="#9ed1f3" stroke="#9ed1f3" stroke-width="3" points="233.537,-1049 154.0354,-1049 154.0354,-1013 233.537,-1013 233.537,-1049"></polygon>
<text text-anchor="middle" x="193.7862" y="-1026.8" font-family="Times,serif" font-size="14.00" fill="#000000">group-page</text>
</g>
<!-- inbox&#45;&gt;group&#45;page -->
<g id="edge2" class="edge">
<title>inbox-&gt;group-page</title>
<path fill="none" stroke="#000000" d="M318.3958,-886.8234C303.78,-891.9854 286.1267,-899.8756 272.9468,-911 242.5412,-936.6637 219.3062,-976.9006 206.1025,-1003.6074"></path>
<polygon fill="#000000" stroke="#000000" points="202.8704,-1002.2528 201.6971,-1012.7825 209.1807,-1005.2827 202.8704,-1002.2528"></polygon>
</g>
<!-- autocomplete -->
<g id="node13" class="node">
<title>autocomplete</title>
<polygon fill="#9ed1f3" stroke="#9ed1f3" stroke-width="3" points="391.6162,-417 299.7726,-417 299.7726,-381 391.6162,-381 391.6162,-417"></polygon>
<text text-anchor="middle" x="345.6944" y="-394.8" font-family="Times,serif" font-size="14.00" fill="#000000">autocomplete</text>
</g>
<!-- message&#45;render -->
<g id="node14" class="node">
<title>message-render</title>
<polygon fill="#9ed1f3" stroke="#9ed1f3" stroke-width="3" points="397.5291,-363 293.8597,-363 293.8597,-327 397.5291,-327 397.5291,-363"></polygon>
<text text-anchor="middle" x="345.6944" y="-340.8" font-family="Times,serif" font-size="14.00" fill="#000000">message-render</text>
</g>
<!-- message&#45;footer&#45;ui -->
<g id="node15" class="node">
<title>message-footer-ui</title>
<polygon fill="none" stroke="#9ed1f3" stroke-width="3" points="404.2562,-525 287.1326,-525 287.1326,-489 404.2562,-489 404.2562,-525"></polygon>
<text text-anchor="middle" x="345.6944" y="-502.8" font-family="Times,serif" font-size="14.00" fill="#000000">message-footer-ui</text>
</g>
<!-- compose&#45;actions -->
<g id="node16" class="node">
<title>compose-actions</title>
<polygon fill="none" stroke="#9ed1f3" stroke-width="3" points="400.7744,-471 290.6144,-471 290.6144,-435 400.7744,-435 400.7744,-471"></polygon>
<text text-anchor="middle" x="345.6944" y="-448.8" font-family="Times,serif" font-size="14.00" fill="#000000">compose-actions</text>
</g>
<!-- conversation&#45;header -->
<g id="node17" class="node">
<title>conversation-header</title>
<polygon fill="#9ed1f3" stroke="#9ed1f3" stroke-width="3" points="410.6906,-579 280.6982,-579 280.6982,-543 410.6906,-543 410.6906,-579"></polygon>
<text text-anchor="middle" x="345.6944" y="-556.8" font-family="Times,serif" font-size="14.00" fill="#000000">conversation-header</text>
</g>
<!-- message&#45;preprocess -->
<g id="node18" class="node">
<title>message-preprocess</title>
<polygon fill="none" stroke="#9ed1f3" stroke-width="3" points="409.6328,-309 281.756,-309 281.756,-273 409.6328,-273 409.6328,-309"></polygon>
<text text-anchor="middle" x="345.6944" y="-286.8" font-family="Times,serif" font-size="14.00" fill="#000000">message-preprocess</text>
</g>
<!-- group&#45;page&#45;&gt;page -->
<g id="edge3" class="edge">
<title>group-page-&gt;page</title>
<path fill="none" stroke="#000000" d="M169.0171,-1049.1208C153.677,-1060.0324 133.3881,-1073.9128 114.6256,-1085 109.1743,-1088.2213 103.2921,-1091.4413 97.4943,-1094.4774"></path>
<polygon fill="#000000" stroke="#000000" points="95.8315,-1091.3967 88.527,-1099.071 99.023,-1097.6268 95.8315,-1091.3967"></polygon>
</g>
<!-- conversations -->
<g id="node20" class="node">
<title>conversations</title>
<polygon fill="#9ed1f3" stroke="#9ed1f3" stroke-width="3" points="571.2703,-1211 478.3207,-1211 478.3207,-1175 571.2703,-1175 571.2703,-1211"></polygon>
<text text-anchor="middle" x="524.7955" y="-1188.8" font-family="Times,serif" font-size="14.00" fill="#000000">conversations</text>
</g>
<!-- conversations&#45;&gt;state -->
<g id="edge7" class="edge">
<title>conversations-&gt;state</title>
<path fill="none" stroke="#000000" d="M523.3915,-1211.1682C518.442,-1263.8508 497.5609,-1418.9001 418.442,-1513 368.4931,-1572.4067 280.3685,-1605.0886 230.6326,-1619.6224"></path>
<polygon fill="#000000" stroke="#000000" points="229.5933,-1616.279 220.9249,-1622.3707 231.5001,-1623.0143 229.5933,-1616.279"></polygon>
</g>
<!-- conversations&#45;&gt;error -->
<g id="edge5" class="edge">
<title>conversations-&gt;error</title>
<path fill="none" stroke="#000000" d="M478.1936,-1181.1781C378.2564,-1155.7929 151.0291,-1097.8844 134.6256,-1092 122.2253,-1087.5517 109.0585,-1081.7924 97.3557,-1076.2822"></path>
<polygon fill="#000000" stroke="#000000" points="98.8564,-1073.1203 88.3268,-1071.9464 95.8262,-1079.4304 98.8564,-1073.1203"></polygon>
</g>
<!-- users -->
<g id="node22" class="node">
<title>users</title>
<polygon fill="#9ed1f3" stroke="#9ed1f3" stroke-width="3" points="372.6944,-1677 318.6944,-1677 318.6944,-1641 372.6944,-1641 372.6944,-1677"></polygon>
<text text-anchor="middle" x="345.6944" y="-1654.8" font-family="Times,serif" font-size="14.00" fill="#000000">users</text>
</g>
<!-- conversations&#45;&gt;users -->
<g id="edge6" class="edge">
<title>conversations-&gt;users</title>
<path fill="none" stroke="#000000" d="M521.4291,-1211.2091C511.0485,-1265.0705 476.6712,-1427.5621 418.442,-1551 404.37,-1580.8307 382.709,-1611.7382 366.6798,-1632.8061"></path>
<polygon fill="#000000" stroke="#000000" points="363.7518,-1630.8713 360.4097,-1640.9252 369.2921,-1635.1498 363.7518,-1630.8713"></polygon>
</g>
<!-- notifications -->
<g id="node24" class="node">
<title>notifications</title>
<polygon fill="#9ed1f3" stroke="#9ed1f3" stroke-width="3" points="388.6818,-1211 302.707,-1211 302.707,-1175 388.6818,-1175 388.6818,-1211"></polygon>
<text text-anchor="middle" x="345.6944" y="-1188.8" font-family="Times,serif" font-size="14.00" fill="#000000">notifications</text>
</g>
<!-- conversations&#45;&gt;notifications -->
<g id="edge4" class="edge">
<title>conversations-&gt;notifications</title>
<path fill="none" stroke="#000000" d="M478.2063,-1193C453.975,-1193 424.2438,-1193 399.0876,-1193"></path>
<polygon fill="#000000" stroke="#000000" points="398.9767,-1189.5001 388.9766,-1193 398.9766,-1196.5001 398.9767,-1189.5001"></polygon>
</g>
<!-- groups -->
<g id="node21" class="node">
<title>groups</title>
<path fill="#9ed1f3" stroke="#9ed1f3" stroke-width="3" d="M360.7997,-1731C360.7997,-1731 330.5891,-1731 330.5891,-1731 324.5891,-1731 318.5891,-1725 318.5891,-1719 318.5891,-1719 318.5891,-1707 318.5891,-1707 318.5891,-1701 324.5891,-1695 330.5891,-1695 330.5891,-1695 360.7997,-1695 360.7997,-1695 366.7997,-1695 372.7997,-1701 372.7997,-1707 372.7997,-1707 372.7997,-1719 372.7997,-1719 372.7997,-1725 366.7997,-1731 360.7997,-1731"></path>
<text text-anchor="middle" x="345.6944" y="-1708.8" font-family="Times,serif" font-size="14.00" fill="#000000">groups</text>
</g>
<!-- groups&#45;&gt;state -->
<g id="edge8" class="edge">
<title>groups-&gt;state</title>
<path fill="none" stroke="#000000" d="M318.4184,-1707.2308C303.8094,-1703.1272 286.1555,-1696.4451 272.9468,-1686 260.3773,-1676.0603 265.1465,-1666.3903 252.9468,-1656 246.2748,-1650.3176 238.2095,-1645.5987 230.2094,-1641.7816"></path>
<polygon fill="#000000" stroke="#000000" points="231.4988,-1638.5252 220.9353,-1637.7111 228.6854,-1644.935 231.4988,-1638.5252"></polygon>
</g>
<!-- users&#45;&gt;state -->
<g id="edge9" class="edge">
<title>users-&gt;state</title>
<path fill="none" stroke="#000000" d="M318.5363,-1653.6366C294.094,-1648.8095 257.9603,-1641.6736 230.8641,-1636.3224"></path>
<polygon fill="#000000" stroke="#000000" points="231.4535,-1632.8713 220.9649,-1634.3675 230.0973,-1639.7387 231.4535,-1632.8713"></polygon>
</g>
<!-- new&#45;group&#45;creation&#45;flow -->
<g id="node23" class="node">
<title>new-group-creation-flow</title>
<path fill="#9ed1f3" stroke="#9ed1f3" stroke-width="3" d="M591.0028,-1723C591.0028,-1723 458.5882,-1723 458.5882,-1723 452.5882,-1723 446.5882,-1717 446.5882,-1711 446.5882,-1711 446.5882,-1699 446.5882,-1699 446.5882,-1693 452.5882,-1687 458.5882,-1687 458.5882,-1687 591.0028,-1687 591.0028,-1687 597.0028,-1687 603.0028,-1693 603.0028,-1699 603.0028,-1699 603.0028,-1711 603.0028,-1711 603.0028,-1717 597.0028,-1723 591.0028,-1723"></path>
<text text-anchor="middle" x="524.7955" y="-1700.8" font-family="Times,serif" font-size="14.00" fill="#000000">new-group-creation-flow</text>
</g>
<!-- new&#45;group&#45;creation&#45;flow&#45;&gt;page -->
<g id="edge11" class="edge">
<title>new-group-creation-flow-&gt;page</title>
<path fill="none" stroke="#000000" d="M492.7291,-1686.9818C475.9629,-1675.7581 456.8198,-1659.704 446.442,-1640 414.6216,-1579.5833 461.7672,-1386.7792 418.442,-1334 375.659,-1281.8814 335.5463,-1316.0608 272.9468,-1291 208.7948,-1265.3177 177.5,-1274.1927 134.6256,-1220 111.6185,-1190.9193 137.7117,-1168.018 114.6256,-1139 110.1556,-1133.3814 104.2064,-1128.8275 97.9044,-1125.1731"></path>
<polygon fill="#000000" stroke="#000000" points="99.0535,-1121.8323 88.5501,-1120.4436 95.8951,-1128.0792 99.0535,-1121.8323"></polygon>
</g>
<!-- new&#45;group&#45;creation&#45;flow&#45;&gt;groups -->
<g id="edge12" class="edge">
<title>new-group-creation-flow-&gt;groups</title>
<path fill="none" stroke="#000000" d="M446.4997,-1708.4973C424.365,-1709.486 401.2982,-1710.5163 382.8248,-1711.3415"></path>
<polygon fill="#000000" stroke="#000000" points="382.6295,-1707.8466 372.7957,-1711.7895 382.9419,-1714.8396 382.6295,-1707.8466"></polygon>
</g>
<!-- new&#45;group&#45;creation&#45;flow&#45;&gt;users -->
<g id="edge10" class="edge">
<title>new-group-creation-flow-&gt;users</title>
<path fill="none" stroke="#000000" d="M454.524,-1686.9516C429.9321,-1680.6355 403.3038,-1673.7963 382.5425,-1668.464"></path>
<polygon fill="#000000" stroke="#000000" points="383.4128,-1665.074 372.8565,-1665.9763 381.6714,-1671.8539 383.4128,-1665.074"></polygon>
</g>
<!-- user&#45;settings -->
<g id="node25" class="node">
<title>user-settings</title>
<polygon fill="#9ed1f3" stroke="#9ed1f3" stroke-width="3" points="237.0425,-1211 150.5299,-1211 150.5299,-1175 237.0425,-1175 237.0425,-1211"></polygon>
<text text-anchor="middle" x="193.7862" y="-1188.8" font-family="Times,serif" font-size="14.00" fill="#000000">user-settings</text>
</g>
<!-- notifications&#45;&gt;user&#45;settings -->
<g id="edge13" class="edge">
<title>notifications-&gt;user-settings</title>
<path fill="none" stroke="#000000" d="M302.5699,-1193C285.4053,-1193 265.4708,-1193 247.391,-1193"></path>
<polygon fill="#000000" stroke="#000000" points="247.2821,-1189.5001 237.282,-1193 247.282,-1196.5001 247.2821,-1189.5001"></polygon>
</g>
<!-- user&#45;settings&#45;&gt;page -->
<g id="edge15" class="edge">
<title>user-settings-&gt;page</title>
<path fill="none" stroke="#000000" d="M155.668,-1174.8511C148.4002,-1170.7164 141.0609,-1166.04 134.6256,-1161 124.2222,-1152.8522 125.1382,-1147.0064 114.6256,-1139 109.4257,-1135.0397 103.5564,-1131.3935 97.6621,-1128.1466"></path>
<polygon fill="#000000" stroke="#000000" points="98.9608,-1124.8776 88.4716,-1123.3851 95.7407,-1131.093 98.9608,-1124.8776"></polygon>
</g>
<!-- user&#45;settings&#45;&gt;user&#45;menu -->
<g id="edge14" class="edge">
<title>user-settings-&gt;user-menu</title>
<path fill="none" stroke="#000000" d="M150.4095,-1184.1592C137.1806,-1181.463 122.5651,-1178.4841 109.0636,-1175.7323"></path>
<polygon fill="#000000" stroke="#000000" points="109.495,-1172.2483 98.9974,-1173.6807 108.097,-1179.1073 109.495,-1172.2483"></polygon>
</g>
<!-- group&#45;settings -->
<g id="node26" class="node">
<title>group-settings</title>
<polygon fill="#9ed1f3" stroke="#9ed1f3" stroke-width="3" points="393.7912,-989 297.5976,-989 297.5976,-953 393.7912,-953 393.7912,-989"></polygon>
<text text-anchor="middle" x="345.6944" y="-966.8" font-family="Times,serif" font-size="14.00" fill="#000000">group-settings</text>
</g>
<!-- group&#45;settings&#45;&gt;group&#45;header -->
<g id="edge16" class="edge">
<title>group-settings-&gt;group-header</title>
<path fill="none" stroke="#000000" d="M297.4529,-976.598C247.3871,-982.4077 169.1941,-991.4813 116.65,-997.5786"></path>
<polygon fill="#000000" stroke="#000000" points="116.029,-994.1271 106.4991,-998.7565 116.8359,-1001.0804 116.029,-994.1271"></polygon>
</g>
<!-- group&#45;settings&#45;&gt;group&#45;page -->
<g id="edge17" class="edge">
<title>group-settings-&gt;group-page</title>
<path fill="none" stroke="#000000" d="M300.1169,-989.002C282.107,-996.1154 261.369,-1004.3064 243.0167,-1011.5552"></path>
<polygon fill="#000000" stroke="#000000" points="241.6792,-1008.3203 233.6642,-1015.2492 244.2507,-1014.8308 241.6792,-1008.3203"></polygon>
</g>
<!-- emoji -->
<g id="node27" class="node">
<title>emoji</title>
<polygon fill="#4cafef" stroke="#4cafef" stroke-width="3" points="551.7955,-371 497.7955,-371 497.7955,-335 551.7955,-335 551.7955,-371"></polygon>
<text text-anchor="middle" x="524.7955" y="-348.8" font-family="Times,serif" font-size="14.00" fill="#000000">emoji</text>
</g>
<!-- emoji&#45;&gt;autocomplete -->
<g id="edge18" class="edge">
<title>emoji-&gt;autocomplete</title>
<path fill="none" stroke="#000000" d="M497.5939,-359.9864C472.1418,-366.5235 433.3497,-376.4868 401.3391,-384.7083"></path>
<polygon fill="#000000" stroke="#000000" points="400.4597,-381.3205 391.6447,-387.1982 402.2011,-388.1005 400.4597,-381.3205"></polygon>
</g>
<!-- emoji&#45;&gt;message&#45;render -->
<g id="edge19" class="edge">
<title>emoji-&gt;message-render</title>
<path fill="none" stroke="#000000" d="M497.5939,-351.785C473.8558,-350.7247 438.514,-349.146 407.8923,-347.7782"></path>
<polygon fill="#000000" stroke="#000000" points="407.8584,-344.2733 397.7121,-347.3235 407.5459,-351.2663 407.8584,-344.2733"></polygon>
</g>
<!-- emoji&#45;&gt;group&#45;settings -->
<g id="edge20" class="edge">
<title>emoji-&gt;group-settings</title>
<path fill="none" stroke="#000000" d="M497.5703,-368.8702C479.627,-380.9539 457.4754,-399.3496 446.442,-422 399.2621,-518.8554 465.2727,-808.9752 418.442,-906 410.6991,-922.0419 397.0399,-935.8736 383.6324,-946.6035"></path>
<polygon fill="#000000" stroke="#000000" points="381.2198,-944.0407 375.372,-952.8756 385.4529,-949.6158 381.2198,-944.0407"></polygon>
</g>
<!-- user&#45;mentions -->
<g id="node28" class="node">
<title>user-mentions</title>
<path fill="#9ed1f3" stroke="#9ed1f3" stroke-width="3" d="M560.6074,-317C560.6074,-317 488.9836,-317 488.9836,-317 482.9836,-317 476.9836,-311 476.9836,-305 476.9836,-305 476.9836,-293 476.9836,-293 476.9836,-287 482.9836,-281 488.9836,-281 488.9836,-281 560.6074,-281 560.6074,-281 566.6074,-281 572.6074,-287 572.6074,-293 572.6074,-293 572.6074,-305 572.6074,-305 572.6074,-311 566.6074,-317 560.6074,-317"></path>
<text text-anchor="middle" x="524.7955" y="-294.8" font-family="Times,serif" font-size="14.00" fill="#000000">user-mentions</text>
</g>
<!-- user&#45;mentions&#45;&gt;autocomplete -->
<g id="edge21" class="edge">
<title>user-mentions-&gt;autocomplete</title>
<path fill="none" stroke="#000000" d="M476.9181,-309.6496C466.1458,-313.5709 455.2951,-318.8711 446.442,-326 427.8004,-341.011 436.9057,-356.7707 418.442,-372 413.2051,-376.3195 407.2113,-379.9846 400.9613,-383.0857"></path>
<polygon fill="#000000" stroke="#000000" points="399.3799,-379.9588 391.6796,-387.2359 402.2372,-386.3491 399.3799,-379.9588"></polygon>
</g>
<!-- user&#45;mentions&#45;&gt;message&#45;render -->
<g id="edge22" class="edge">
<title>user-mentions-&gt;message-render</title>
<path fill="none" stroke="#000000" d="M476.7997,-311.3272C455.4983,-316.7982 430.1662,-323.3044 407.4744,-329.1325"></path>
<polygon fill="#000000" stroke="#000000" points="406.4105,-325.7921 397.5956,-331.6698 408.1519,-332.5721 406.4105,-325.7921"></polygon>
</g>
<!-- tags -->
<g id="node29" class="node">
<title>tags</title>
<polygon fill="#9ed1f3" stroke="#9ed1f3" stroke-width="3" points="738.297,-1658 684.297,-1658 684.297,-1622 738.297,-1622 738.297,-1658"></polygon>
<text text-anchor="middle" x="711.297" y="-1635.8" font-family="Times,serif" font-size="14.00" fill="#000000">tags</text>
</g>
<!-- tags&#45;&gt;state -->
<g id="edge24" class="edge">
<title>tags-&gt;state</title>
<path fill="none" stroke="#000000" d="M696.7542,-1658.2111C677.8685,-1680.3021 642.6153,-1716.5065 603.149,-1732 466.5019,-1785.6441 388.1457,-1830.9909 272.9468,-1740 242.831,-1716.2128 277.3217,-1685.6421 252.9468,-1656 247.0595,-1648.8405 238.8635,-1643.4961 230.4451,-1639.539"></path>
<polygon fill="#000000" stroke="#000000" points="231.537,-1636.2037 220.9573,-1635.638 228.8751,-1642.6779 231.537,-1636.2037"></polygon>
</g>
<!-- tags&#45;&gt;conversations -->
<g id="edge25" class="edge">
<title>tags-&gt;conversations</title>
<path fill="none" stroke="#000000" d="M701.6127,-1621.8283C687.1956,-1594.4721 659.5955,-1540.9124 639.149,-1494 596.0297,-1395.067 552.9112,-1274.168 534.3148,-1220.6981"></path>
<polygon fill="#000000" stroke="#000000" points="537.6131,-1219.5265 531.0314,-1211.224 530.999,-1221.8188 537.6131,-1219.5265"></polygon>
</g>
<!-- tags&#45;&gt;users -->
<g id="edge23" class="edge">
<title>tags-&gt;users</title>
<path fill="none" stroke="#000000" d="M684.1161,-1641.4126C619.6046,-1644.7652 457.1446,-1653.208 383.2863,-1657.0464"></path>
<polygon fill="#000000" stroke="#000000" points="382.8591,-1653.5638 373.0543,-1657.5781 383.2225,-1660.5543 382.8591,-1653.5638"></polygon>
</g>
<!-- tag&#45;mentions -->
<g id="node30" class="node">
<title>tag-mentions</title>
<path fill="#9ed1f3" stroke="#9ed1f3" stroke-width="3" d="M919.5125,-417C919.5125,-417 854.3187,-417 854.3187,-417 848.3187,-417 842.3187,-411 842.3187,-405 842.3187,-405 842.3187,-393 842.3187,-393 842.3187,-387 848.3187,-381 854.3187,-381 854.3187,-381 919.5125,-381 919.5125,-381 925.5125,-381 931.5125,-387 931.5125,-393 931.5125,-393 931.5125,-405 931.5125,-405 931.5125,-411 925.5125,-417 919.5125,-417"></path>
<text text-anchor="middle" x="886.9156" y="-394.8" font-family="Times,serif" font-size="14.00" fill="#000000">tag-mentions</text>
</g>
<!-- tag&#45;mentions&#45;&gt;autocomplete -->
<g id="edge26" class="edge">
<title>tag-mentions-&gt;autocomplete</title>
<path fill="none" stroke="#000000" d="M842.1647,-399C743.9033,-399 509.4735,-399 401.6721,-399"></path>
<polygon fill="#000000" stroke="#000000" points="401.6439,-395.5001 391.6439,-399 401.6438,-402.5001 401.6439,-395.5001"></polygon>
</g>
<!-- tag&#45;mentions&#45;&gt;message&#45;render -->
<g id="edge28" class="edge">
<title>tag-mentions-&gt;message-render</title>
<path fill="none" stroke="#000000" d="M842.0632,-391.5365C833.5935,-388.2922 825.5038,-383.6471 819.445,-377 770.6358,-323.4515 840.0536,-263.2244 783.445,-218 724.1882,-170.66 506.8847,-226.1837 446.442,-272 427.3684,-286.4581 436.9057,-302.7707 418.442,-318 414.8972,-320.9239 411.0055,-323.5479 406.9223,-325.9001"></path>
<polygon fill="#000000" stroke="#000000" points="405.0284,-322.9385 397.738,-330.6262 408.2312,-329.1627 405.0284,-322.9385"></polygon>
</g>
<!-- tag&#45;mentions&#45;&gt;tags -->
<g id="edge27" class="edge">
<title>tag-mentions-&gt;tags</title>
<path fill="none" stroke="#000000" d="M884.3485,-417.2988C874.6049,-487.2974 839.4515,-744.8579 819.445,-958 797.132,-1195.714 845.5209,-1263.4519 783.445,-1494 771.5719,-1538.0963 745.9605,-1584.6684 728.6732,-1613.0383"></path>
<polygon fill="#000000" stroke="#000000" points="725.6706,-1611.2391 723.3808,-1621.5835 731.6217,-1614.9248 725.6706,-1611.2391"></polygon>
</g>
<!-- emojione&#45;emoji -->
<g id="node31" class="node">
<title>emojione-emoji</title>
<path fill="#4cafef" stroke="#4cafef" stroke-width="3" d="M751.4456,-263C751.4456,-263 671.1484,-263 671.1484,-263 665.1484,-263 659.1484,-257 659.1484,-251 659.1484,-251 659.1484,-239 659.1484,-239 659.1484,-233 665.1484,-227 671.1484,-227 671.1484,-227 751.4456,-227 751.4456,-227 757.4456,-227 763.4456,-233 763.4456,-239 763.4456,-239 763.4456,-251 763.4456,-251 763.4456,-257 757.4456,-263 751.4456,-263"></path>
<text text-anchor="middle" x="711.297" y="-240.8" font-family="Times,serif" font-size="14.00" fill="#000000">emojione-emoji</text>
</g>
<!-- emojione&#45;emoji&#45;&gt;emoji -->
<g id="edge29" class="edge">
<title>emojione-emoji-&gt;emoji</title>
<path fill="none" stroke="#000000" d="M659.1146,-259.994C652.0122,-263.2976 645.1221,-267.2634 639.149,-272 616.5481,-289.922 625.9831,-308.3761 603.149,-326 591.1423,-335.267 575.7383,-341.4803 561.7706,-345.5834"></path>
<polygon fill="#000000" stroke="#000000" points="560.6822,-342.2513 551.9229,-348.2116 562.4873,-349.0145 560.6822,-342.2513"></polygon>
</g>
<!-- twemoji -->
<g id="node32" class="node">
<title>twemoji</title>
<path fill="none" stroke="#9ed1f3" stroke-width="3" d="M730.1807,-371C730.1807,-371 692.4133,-371 692.4133,-371 686.4133,-371 680.4133,-365 680.4133,-359 680.4133,-359 680.4133,-347 680.4133,-347 680.4133,-341 686.4133,-335 692.4133,-335 692.4133,-335 730.1807,-335 730.1807,-335 736.1807,-335 742.1807,-341 742.1807,-347 742.1807,-347 742.1807,-359 742.1807,-359 742.1807,-365 736.1807,-371 730.1807,-371"></path>
<text text-anchor="middle" x="711.297" y="-348.8" font-family="Times,serif" font-size="14.00" fill="#000000">twemoji</text>
</g>
<!-- twemoji&#45;&gt;emoji -->
<g id="edge30" class="edge">
<title>twemoji-&gt;emoji</title>
<path fill="none" stroke="#000000" d="M680.0808,-353C647.5656,-353 596.6345,-353 562.0395,-353"></path>
<polygon fill="#000000" stroke="#000000" points="561.8662,-349.5001 551.8661,-353 561.8661,-356.5001 561.8662,-349.5001"></polygon>
</g>
<!-- custom&#45;emoji -->
<g id="node33" class="node">
<title>custom-emoji</title>
<path fill="#4cafef" stroke="#4cafef" stroke-width="3" d="M745.7844,-841C745.7844,-841 676.8096,-841 676.8096,-841 670.8096,-841 664.8096,-835 664.8096,-829 664.8096,-829 664.8096,-817 664.8096,-817 664.8096,-811 670.8096,-805 676.8096,-805 676.8096,-805 745.7844,-805 745.7844,-805 751.7844,-805 757.7844,-811 757.7844,-817 757.7844,-817 757.7844,-829 757.7844,-829 757.7844,-835 751.7844,-841 745.7844,-841"></path>
<text text-anchor="middle" x="711.297" y="-818.8" font-family="Times,serif" font-size="14.00" fill="#000000">custom-emoji</text>
</g>
<!-- custom&#45;emoji&#45;&gt;group&#45;settings -->
<g id="edge32" class="edge">
<title>custom-emoji-&gt;group-settings</title>
<path fill="none" stroke="#000000" d="M664.7457,-811.8517C597.7893,-797.0306 478.7801,-775.6027 446.442,-802 398.2979,-841.2997 457.4715,-890.6366 418.442,-939 414.1338,-944.3385 408.7551,-948.8104 402.8841,-952.5509"></path>
<polygon fill="#000000" stroke="#000000" points="401.0151,-949.586 393.9977,-957.5237 404.4334,-955.6946 401.0151,-949.586"></polygon>
</g>
<!-- custom&#45;emoji&#45;&gt;emoji -->
<g id="edge31" class="edge">
<title>custom-emoji-&gt;emoji</title>
<path fill="none" stroke="#000000" d="M664.7426,-814.1494C654.9118,-810.1637 645.5795,-804.3833 639.149,-796 588.3314,-729.7502 641.1396,-496.3517 603.149,-422 593.5461,-403.206 576.4693,-387.2341 560.7041,-375.4049"></path>
<polygon fill="#000000" stroke="#000000" points="562.304,-372.2457 552.1363,-369.2678 558.2277,-377.9365 562.304,-372.2457"></polygon>
</g>
<!-- big&#45;emoji -->
<g id="node34" class="node">
<title>big-emoji</title>
<path fill="#4cafef" stroke="#4cafef" stroke-width="3" d="M734.736,-317C734.736,-317 687.858,-317 687.858,-317 681.858,-317 675.858,-311 675.858,-305 675.858,-305 675.858,-293 675.858,-293 675.858,-287 681.858,-281 687.858,-281 687.858,-281 734.736,-281 734.736,-281 740.736,-281 746.736,-287 746.736,-293 746.736,-293 746.736,-305 746.736,-305 746.736,-311 740.736,-317 734.736,-317"></path>
<text text-anchor="middle" x="711.297" y="-294.8" font-family="Times,serif" font-size="14.00" fill="#000000">big-emoji</text>
</g>
<!-- big&#45;emoji&#45;&gt;emoji -->
<g id="edge33" class="edge">
<title>big-emoji-&gt;emoji</title>
<path fill="none" stroke="#000000" d="M675.7785,-309.2841C643.1179,-318.7407 594.8799,-332.7076 561.7671,-342.2952"></path>
<polygon fill="#000000" stroke="#000000" points="560.6423,-338.977 552.0103,-345.1202 562.5892,-345.7008 560.6423,-338.977"></polygon>
</g>
<!-- auth -->
<g id="node35" class="node">
<title>auth</title>
<polygon fill="#9ed1f3" stroke="#9ed1f3" stroke-width="3" points="88.3128,-1675 34.3128,-1675 34.3128,-1639 88.3128,-1639 88.3128,-1675"></polygon>
<text text-anchor="middle" x="61.3128" y="-1652.8" font-family="Times,serif" font-size="14.00" fill="#000000">auth</text>
</g>
<!-- oauth -->
<g id="node36" class="node">
<title>oauth</title>
<polygon fill="#9ed1f3" stroke="#9ed1f3" stroke-width="3" points="220.7862,-1888 166.7862,-1888 166.7862,-1852 220.7862,-1852 220.7862,-1888"></polygon>
<text text-anchor="middle" x="193.7862" y="-1865.8" font-family="Times,serif" font-size="14.00" fill="#000000">oauth</text>
</g>
<!-- oauth&#45;&gt;auth -->
<g id="edge34" class="edge">
<title>oauth-&gt;auth</title>
<path fill="none" stroke="#000000" d="M178.8683,-1851.9726C166.3865,-1836.5172 148.4517,-1813.4195 134.6256,-1792 111.4657,-1756.1204 88.5964,-1712.31 74.7147,-1684.5265"></path>
<polygon fill="#000000" stroke="#000000" points="77.7712,-1682.8117 70.1937,-1675.4068 71.4995,-1685.9209 77.7712,-1682.8117"></polygon>
</g>
<!-- google&#45;oauth -->
<g id="node37" class="node">
<title>google-oauth</title>
<path fill="none" stroke="#9ed1f3" stroke-width="3" d="M378.5655,-1861C378.5655,-1861 312.8233,-1861 312.8233,-1861 306.8233,-1861 300.8233,-1855 300.8233,-1849 300.8233,-1849 300.8233,-1837 300.8233,-1837 300.8233,-1831 306.8233,-1825 312.8233,-1825 312.8233,-1825 378.5655,-1825 378.5655,-1825 384.5655,-1825 390.5655,-1831 390.5655,-1837 390.5655,-1837 390.5655,-1849 390.5655,-1849 390.5655,-1855 384.5655,-1861 378.5655,-1861"></path>
<text text-anchor="middle" x="345.6944" y="-1838.8" font-family="Times,serif" font-size="14.00" fill="#000000">google-oauth</text>
</g>
<!-- google&#45;oauth&#45;&gt;system&#45;settings -->
<g id="edge36" class="edge">
<title>google-oauth-&gt;system-settings</title>
<path fill="none" stroke="#000000" d="M300.5923,-1825.9997C291.1445,-1821.667 281.4702,-1816.6216 272.9468,-1811 252.3516,-1797.4164 232.0837,-1778.3307 217.2124,-1762.9446"></path>
<polygon fill="#000000" stroke="#000000" points="219.3731,-1760.1363 209.9544,-1755.2847 214.2918,-1764.951 219.3731,-1760.1363"></polygon>
</g>
<!-- google&#45;oauth&#45;&gt;oauth -->
<g id="edge35" class="edge">
<title>google-oauth-&gt;oauth</title>
<path fill="none" stroke="#000000" d="M300.5282,-1851.0278C278.3823,-1854.964 252.0328,-1859.6473 231.0546,-1863.376"></path>
<polygon fill="#000000" stroke="#000000" points="230.1611,-1859.9798 220.9279,-1865.1759 231.3861,-1866.8718 230.1611,-1859.9798"></polygon>
</g>
<!-- github&#45;oauth -->
<g id="node38" class="node">
<title>github-oauth</title>
<path fill="#9ed1f3" stroke="#9ed1f3" stroke-width="3" d="M377.2426,-1915C377.2426,-1915 314.1462,-1915 314.1462,-1915 308.1462,-1915 302.1462,-1909 302.1462,-1903 302.1462,-1903 302.1462,-1891 302.1462,-1891 302.1462,-1885 308.1462,-1879 314.1462,-1879 314.1462,-1879 377.2426,-1879 377.2426,-1879 383.2426,-1879 389.2426,-1885 389.2426,-1891 389.2426,-1891 389.2426,-1903 389.2426,-1903 389.2426,-1909 383.2426,-1915 377.2426,-1915"></path>
<text text-anchor="middle" x="345.6944" y="-1892.8" font-family="Times,serif" font-size="14.00" fill="#000000">github-oauth</text>
</g>
<!-- github&#45;oauth&#45;&gt;system&#45;settings -->
<g id="edge38" class="edge">
<title>github-oauth-&gt;system-settings</title>
<path fill="none" stroke="#000000" d="M301.9397,-1886.1909C291.6915,-1882.2528 281.3302,-1876.985 272.9468,-1870 263.7557,-1862.3421 229.0443,-1800.9764 208.7666,-1764.3322"></path>
<polygon fill="#000000" stroke="#000000" points="211.5998,-1762.222 203.7048,-1755.1567 205.4706,-1765.6033 211.5998,-1762.222"></polygon>
</g>
<!-- github&#45;oauth&#45;&gt;oauth -->
<g id="edge37" class="edge">
<title>github-oauth-&gt;oauth</title>
<path fill="none" stroke="#000000" d="M301.7563,-1889.1905C279.3159,-1885.202 252.3118,-1880.4023 230.9236,-1876.6008"></path>
<polygon fill="#000000" stroke="#000000" points="231.3779,-1873.1267 220.9197,-1874.8227 230.1529,-1880.0187 231.3779,-1873.1267"></polygon>
</g>
<!-- facebook&#45;oauth -->
<g id="node39" class="node">
<title>facebook-oauth</title>
<path fill="none" stroke="#9ed1f3" stroke-width="3" d="M385.2646,-1969C385.2646,-1969 306.1242,-1969 306.1242,-1969 300.1242,-1969 294.1242,-1963 294.1242,-1957 294.1242,-1957 294.1242,-1945 294.1242,-1945 294.1242,-1939 300.1242,-1933 306.1242,-1933 306.1242,-1933 385.2646,-1933 385.2646,-1933 391.2646,-1933 397.2646,-1939 397.2646,-1945 397.2646,-1945 397.2646,-1957 397.2646,-1957 397.2646,-1963 391.2646,-1969 385.2646,-1969"></path>
<text text-anchor="middle" x="345.6944" y="-1946.8" font-family="Times,serif" font-size="14.00" fill="#000000">facebook-oauth</text>
</g>
<!-- facebook&#45;oauth&#45;&gt;system&#45;settings -->
<g id="edge40" class="edge">
<title>facebook-oauth-&gt;system-settings</title>
<path fill="none" stroke="#000000" d="M294.0025,-1939.0728C286.1058,-1935.3355 278.6883,-1930.432 272.9468,-1924 248.2533,-1896.3369 266.548,-1877.4966 252.9468,-1843 241.7688,-1814.6493 224.343,-1784.5065 211.2941,-1763.6416"></path>
<polygon fill="#000000" stroke="#000000" points="214.1377,-1761.5904 205.823,-1755.0241 208.2281,-1765.3424 214.1377,-1761.5904"></polygon>
</g>
<!-- facebook&#45;oauth&#45;&gt;oauth -->
<g id="edge39" class="edge">
<title>facebook-oauth-&gt;oauth</title>
<path fill="none" stroke="#000000" d="M294.1387,-1933.653C286.8997,-1930.7041 279.6487,-1927.4637 272.9468,-1924 256.5466,-1915.5239 239.4904,-1904.2496 225.4284,-1894.1957"></path>
<polygon fill="#000000" stroke="#000000" points="227.2375,-1891.1835 217.0924,-1888.1293 223.1185,-1896.8435 227.2375,-1891.1835"></polygon>
</g>
<!-- pass&#45;auth -->
<g id="node40" class="node">
<title>pass-auth</title>
<path fill="#9ed1f3" stroke="#9ed1f3" stroke-width="3" d="M368.0641,-1433C368.0641,-1433 323.3247,-1433 323.3247,-1433 317.3247,-1433 311.3247,-1427 311.3247,-1421 311.3247,-1421 311.3247,-1409 311.3247,-1409 311.3247,-1403 317.3247,-1397 323.3247,-1397 323.3247,-1397 368.0641,-1397 368.0641,-1397 374.0641,-1397 380.0641,-1403 380.0641,-1409 380.0641,-1409 380.0641,-1421 380.0641,-1421 380.0641,-1427 374.0641,-1433 368.0641,-1433"></path>
<text text-anchor="middle" x="345.6944" y="-1410.8" font-family="Times,serif" font-size="14.00" fill="#000000">pass-auth</text>
</g>
<!-- pass&#45;auth&#45;&gt;state -->
<g id="edge42" class="edge">
<title>pass-auth-&gt;state</title>
<path fill="none" stroke="#000000" d="M311.3238,-1422.2394C297.2863,-1426.955 282.2047,-1434.6267 272.9468,-1447 231.3344,-1502.6156 294.176,-1546.0997 252.9468,-1602 247.2873,-1609.6734 238.9233,-1615.2225 230.2553,-1619.2136"></path>
<polygon fill="#000000" stroke="#000000" points="228.8404,-1616.0097 220.8438,-1622.9598 231.4292,-1622.5134 228.8404,-1616.0097"></polygon>
</g>
<!-- pass&#45;auth&#45;&gt;user&#45;settings -->
<g id="edge43" class="edge">
<title>pass-auth-&gt;user-settings</title>
<path fill="none" stroke="#000000" d="M310.9636,-1408.4084C297.6986,-1404.401 283.2924,-1398.0374 272.9468,-1388 225.3028,-1341.7753 205.4135,-1262.9445 197.8809,-1221.0716"></path>
<polygon fill="#000000" stroke="#000000" points="201.3004,-1220.3005 196.1846,-1211.0227 194.398,-1221.4658 201.3004,-1220.3005"></polygon>
</g>
<!-- pass&#45;auth&#45;&gt;auth -->
<g id="edge41" class="edge">
<title>pass-auth-&gt;auth</title>
<path fill="none" stroke="#000000" d="M311.3175,-1428.4334C298.9533,-1433.7015 285.0721,-1440.1313 272.9468,-1447 207.3923,-1484.135 186.9106,-1490.7536 134.6256,-1545 109.8519,-1570.703 88.4126,-1605.8854 75.2259,-1629.9171"></path>
<polygon fill="#000000" stroke="#000000" points="72.0761,-1628.3845 70.4222,-1638.8495 78.2411,-1631.7 72.0761,-1628.3845"></polygon>
</g>
<!-- email&#45;digest -->
<g id="node41" class="node">
<title>email-digest</title>
<path fill="#9ed1f3" stroke="#9ed1f3" stroke-width="3" d="M741.9992,-1485C741.9992,-1485 680.5948,-1485 680.5948,-1485 674.5948,-1485 668.5948,-1479 668.5948,-1473 668.5948,-1473 668.5948,-1461 668.5948,-1461 668.5948,-1455 674.5948,-1449 680.5948,-1449 680.5948,-1449 741.9992,-1449 741.9992,-1449 747.9992,-1449 753.9992,-1455 753.9992,-1461 753.9992,-1461 753.9992,-1473 753.9992,-1473 753.9992,-1479 747.9992,-1485 741.9992,-1485"></path>
<text text-anchor="middle" x="711.297" y="-1462.8" font-family="Times,serif" font-size="14.00" fill="#000000">email-digest</text>
</g>
<!-- email&#45;digest&#45;&gt;jobs -->
<g id="edge45" class="edge">
<title>email-digest-&gt;jobs</title>
<path fill="none" stroke="#000000" d="M700.942,-1485.4487C685.924,-1512.7178 657.854,-1565.6704 639.149,-1613 618.8399,-1664.3885 646.7956,-1698.1147 603.149,-1732 487.1925,-1822.0235 402.3763,-1809.2686 272.9468,-1740 258.8183,-1732.4386 265.1465,-1720.3903 252.9468,-1710 246.2748,-1704.3176 238.2095,-1699.5987 230.2094,-1695.7816"></path>
<polygon fill="#000000" stroke="#000000" points="231.4988,-1692.5252 220.9353,-1691.7111 228.6854,-1698.935 231.4988,-1692.5252"></polygon>
</g>
<!-- email&#45;digest&#45;&gt;email -->
<g id="edge44" class="edge">
<title>email-digest-&gt;email</title>
<path fill="none" stroke="#000000" d="M668.5066,-1475.93C569.1882,-1496.6569 324.382,-1547.7458 230.8941,-1567.2559"></path>
<polygon fill="#000000" stroke="#000000" points="230.1079,-1563.8445 221.0338,-1569.3137 231.538,-1570.6969 230.1079,-1563.8445"></polygon>
</g>
<!-- email&#45;digest&#45;&gt;conversations -->
<g id="edge47" class="edge">
<title>email-digest-&gt;conversations</title>
<path fill="none" stroke="#000000" d="M699.8818,-1448.9028C684.5959,-1424.1283 657.3022,-1377.9366 639.149,-1336 618.5464,-1288.4047 638.4379,-1263.0062 603.149,-1225 596.9081,-1218.2785 589.0521,-1212.9323 580.7397,-1208.6903"></path>
<polygon fill="#000000" stroke="#000000" points="582.1454,-1205.4846 571.5956,-1204.5079 579.2337,-1211.8503 582.1454,-1205.4846"></polygon>
</g>
<!-- email&#45;digest&#45;&gt;user&#45;settings -->
<g id="edge46" class="edge">
<title>email-digest-&gt;user-settings</title>
<path fill="none" stroke="#000000" d="M692.5054,-1448.8704C648.4803,-1407.4506 533.6463,-1305.4241 418.442,-1253 358.0899,-1225.5366 336.7466,-1238.0611 272.9468,-1220 264.4198,-1217.5861 255.4594,-1214.7886 246.7568,-1211.9276"></path>
<polygon fill="#000000" stroke="#000000" points="247.6715,-1208.5429 237.0777,-1208.6875 245.4494,-1215.1809 247.6715,-1208.5429"></polygon>
</g>
<!-- files -->
<g id="node42" class="node">
<title>files</title>
<polygon fill="#9ed1f3" stroke="#9ed1f3" stroke-width="3" points="551.7955,-467 497.7955,-467 497.7955,-431 551.7955,-431 551.7955,-467"></polygon>
<text text-anchor="middle" x="524.7955" y="-444.8" font-family="Times,serif" font-size="14.00" fill="#000000">files</text>
</g>
<!-- files&#45;&gt;autocomplete -->
<g id="edge48" class="edge">
<title>files-&gt;autocomplete</title>
<path fill="none" stroke="#000000" d="M497.5939,-441.4061C472.1418,-434.3006 433.3497,-423.4709 401.3391,-414.5344"></path>
<polygon fill="#000000" stroke="#000000" points="402.2176,-411.1459 391.6447,-411.828 400.3353,-417.8881 402.2176,-411.1459"></polygon>
</g>
<!-- files&#45;&gt;compose&#45;actions -->
<g id="edge49" class="edge">
<title>files-&gt;compose-actions</title>
<path fill="none" stroke="#000000" d="M497.5939,-449.6075C474.7469,-450.1178 441.1508,-450.8681 411.3597,-451.5334"></path>
<polygon fill="#000000" stroke="#000000" points="410.924,-448.0422 401.0047,-451.7647 411.0804,-455.0405 410.924,-448.0422"></polygon>
</g>
<!-- dropbox -->
<g id="node43" class="node">
<title>dropbox</title>
<path fill="none" stroke="#9ed1f3" stroke-width="3" d="M730.4585,-463C730.4585,-463 692.1355,-463 692.1355,-463 686.1355,-463 680.1355,-457 680.1355,-451 680.1355,-451 680.1355,-439 680.1355,-439 680.1355,-433 686.1355,-427 692.1355,-427 692.1355,-427 730.4585,-427 730.4585,-427 736.4585,-427 742.4585,-433 742.4585,-439 742.4585,-439 742.4585,-451 742.4585,-451 742.4585,-457 736.4585,-463 730.4585,-463"></path>
<text text-anchor="middle" x="711.297" y="-440.8" font-family="Times,serif" font-size="14.00" fill="#000000">dropbox</text>
</g>
<!-- dropbox&#45;&gt;files -->
<g id="edge50" class="edge">
<title>dropbox-&gt;files</title>
<path fill="none" stroke="#000000" d="M680.0808,-445.6695C647.5656,-446.3669 596.6345,-447.4592 562.0395,-448.2012"></path>
<polygon fill="#000000" stroke="#000000" points="561.7887,-444.7057 551.8661,-448.4194 561.9389,-451.7041 561.7887,-444.7057"></polygon>
</g>
<!-- s3 -->
<g id="node44" class="node">
<title>s3</title>
<path fill="#9ed1f3" stroke="#9ed1f3" stroke-width="3" d="M726.297,-517C726.297,-517 696.297,-517 696.297,-517 690.297,-517 684.297,-511 684.297,-505 684.297,-505 684.297,-493 684.297,-493 684.297,-487 690.297,-481 696.297,-481 696.297,-481 726.297,-481 726.297,-481 732.297,-481 738.297,-487 738.297,-493 738.297,-493 738.297,-505 738.297,-505 738.297,-511 732.297,-517 726.297,-517"></path>
<text text-anchor="middle" x="711.297" y="-494.8" font-family="Times,serif" font-size="14.00" fill="#000000">s3</text>
</g>
<!-- s3&#45;&gt;files -->
<g id="edge51" class="edge">
<title>s3-&gt;files</title>
<path fill="none" stroke="#000000" d="M684.1781,-491.7296C651.8574,-483.0646 597.6993,-468.5451 561.613,-458.8706"></path>
<polygon fill="#000000" stroke="#000000" points="562.5124,-455.4882 551.9472,-456.2792 560.6997,-462.2494 562.5124,-455.4882"></polygon>
</g>
<!-- search -->
<g id="node45" class="node">
<title>search</title>
<polygon fill="#9ed1f3" stroke="#9ed1f3" stroke-width="3" points="738.297,-1057 684.297,-1057 684.297,-1021 738.297,-1021 738.297,-1057"></polygon>
<text text-anchor="middle" x="711.297" y="-1034.8" font-family="Times,serif" font-size="14.00" fill="#000000">search</text>
</g>
<!-- search&#45;&gt;group&#45;header -->
<g id="edge52" class="edge">
<title>search-&gt;group-header</title>
<path fill="none" stroke="#000000" d="M684.1234,-1035.5514C668.6645,-1032.1487 650.2326,-1025.3954 639.149,-1012 578.7818,-939.0417 670.5769,-868.4875 603.149,-802 543.9789,-743.6551 501.2879,-779.464 418.442,-773 292.6766,-763.1872 235.7563,-700.5956 134.6256,-776 102.0577,-800.2831 76.4937,-920.3362 66.2166,-975.8076"></path>
<polygon fill="#000000" stroke="#000000" points="62.766,-975.2206 64.4222,-985.6851 69.6533,-976.4718 62.766,-975.2206"></polygon>
</g>
<!-- search&#45;&gt;group&#45;page -->
<g id="edge53" class="edge">
<title>search-&gt;group-page</title>
<path fill="none" stroke="#000000" d="M684.1859,-1039.3201C662.3124,-1039.5616 630.7502,-1039.8724 603.149,-1040 533.5022,-1040.322 516.0785,-1041.2399 446.442,-1040 376.0306,-1038.7463 294.6339,-1035.5288 243.68,-1033.3016"></path>
<polygon fill="#000000" stroke="#000000" points="243.7405,-1029.801 233.5958,-1032.8564 243.4317,-1036.7942 243.7405,-1029.801"></polygon>
</g>
<!-- search&#45;&gt;conversations -->
<g id="edge54" class="edge">
<title>search-&gt;conversations</title>
<path fill="none" stroke="#000000" d="M684.1197,-1045.7923C669.9316,-1050.1451 652.7451,-1056.7398 639.149,-1066 598.7028,-1093.5475 562.9057,-1138.3165 542.5565,-1166.6806"></path>
<polygon fill="#000000" stroke="#000000" points="539.6498,-1164.7293 536.7491,-1174.9194 545.3713,-1168.7623 539.6498,-1164.7293"></polygon>
</g>
<!-- user&#45;avatar -->
<g id="node46" class="node">
<title>user-avatar</title>
<path fill="#9ed1f3" stroke="#9ed1f3" stroke-width="3" d="M551.9711,-1631C551.9711,-1631 497.6199,-1631 497.6199,-1631 491.6199,-1631 485.6199,-1625 485.6199,-1619 485.6199,-1619 485.6199,-1607 485.6199,-1607 485.6199,-1601 491.6199,-1595 497.6199,-1595 497.6199,-1595 551.9711,-1595 551.9711,-1595 557.9711,-1595 563.9711,-1601 563.9711,-1607 563.9711,-1607 563.9711,-1619 563.9711,-1619 563.9711,-1625 557.9711,-1631 551.9711,-1631"></path>
<text text-anchor="middle" x="524.7955" y="-1608.8" font-family="Times,serif" font-size="14.00" fill="#000000">user-avatar</text>
</g>
<!-- user&#45;avatar&#45;&gt;state -->
<g id="edge56" class="edge">
<title>user-avatar-&gt;state</title>
<path fill="none" stroke="#000000" d="M485.5245,-1614.8982C421.2556,-1618.0048 294.4612,-1624.1337 231.3317,-1627.1852"></path>
<polygon fill="#000000" stroke="#000000" points="230.8583,-1623.7039 221.0389,-1627.6827 231.1963,-1630.6957 230.8583,-1623.7039"></polygon>
</g>
<!-- user&#45;avatar&#45;&gt;users -->
<g id="edge55" class="edge">
<title>user-avatar-&gt;users</title>
<path fill="none" stroke="#000000" d="M485.491,-1623.0949C454.9101,-1630.9492 412.7707,-1641.7723 382.7708,-1649.4774"></path>
<polygon fill="#000000" stroke="#000000" points="381.5195,-1646.1851 372.7046,-1652.0628 383.2609,-1652.965 381.5195,-1646.1851"></polygon>
</g>
<!-- user&#45;avatar&#45;&gt;user&#45;settings -->
<g id="edge57" class="edge">
<title>user-avatar-&gt;user-settings</title>
<path fill="none" stroke="#000000" d="M524.0229,-1594.9682C520.7777,-1542.079 504.0413,-1385.7594 418.442,-1301 370.0564,-1253.0892 333.2305,-1284.6621 272.9468,-1253 254.6967,-1243.4147 236.23,-1229.6986 221.7283,-1217.7994"></path>
<polygon fill="#000000" stroke="#000000" points="223.5906,-1214.7933 213.6797,-1211.0483 219.092,-1220.1564 223.5906,-1214.7933"></polygon>
</g>
<!-- embeds -->
<g id="node47" class="node">
<title>embeds</title>
<polygon fill="#4cafef" stroke="#4cafef" stroke-width="3" points="554.0604,-571 495.5306,-571 495.5306,-535 554.0604,-535 554.0604,-571"></polygon>
<text text-anchor="middle" x="524.7955" y="-548.8" font-family="Times,serif" font-size="14.00" fill="#000000">embeds</text>
</g>
<!-- embeds&#45;&gt;message&#45;footer&#45;ui -->
<g id="edge58" class="edge">
<title>embeds-&gt;message-footer-ui</title>
<path fill="none" stroke="#000000" d="M495.2206,-545.404C473.1793,-539.743 442.1666,-531.7777 414.0949,-524.5679"></path>
<polygon fill="#000000" stroke="#000000" points="414.8642,-521.1519 404.3078,-522.0542 413.1228,-527.9319 414.8642,-521.1519"></polygon>
</g>
<!-- google&#45;maps&#45;embeds -->
<g id="node48" class="node">
<title>google-maps-embeds</title>
<path fill="none" stroke="#9ed1f3" stroke-width="3" d="M767.0378,-679C767.0378,-679 655.5562,-679 655.5562,-679 649.5562,-679 643.5562,-673 643.5562,-667 643.5562,-667 643.5562,-655 643.5562,-655 643.5562,-649 649.5562,-643 655.5562,-643 655.5562,-643 767.0378,-643 767.0378,-643 773.0378,-643 779.0378,-649 779.0378,-655 779.0378,-655 779.0378,-667 779.0378,-667 779.0378,-673 773.0378,-679 767.0378,-679"></path>
<text text-anchor="middle" x="711.297" y="-656.8" font-family="Times,serif" font-size="14.00" fill="#000000">google-maps-embeds</text>
</g>
<!-- google&#45;maps&#45;embeds&#45;&gt;embeds -->
<g id="edge59" class="edge">
<title>google-maps-embeds-&gt;embeds</title>
<path fill="none" stroke="#000000" d="M653.3615,-642.8558C648.345,-640.2491 643.5221,-637.3081 639.149,-634 617.5973,-617.6968 624.4568,-601.6208 603.149,-585 591.5885,-575.9824 577.1363,-569.1329 563.8029,-564.1314"></path>
<polygon fill="#000000" stroke="#000000" points="564.9441,-560.8226 554.3492,-560.8115 562.6247,-567.4272 564.9441,-560.8226"></polygon>
</g>
<!-- video&#45;embeds -->
<g id="node49" class="node">
<title>video-embeds</title>
<path fill="#4cafef" stroke="#4cafef" stroke-width="3" d="M746.3284,-625C746.3284,-625 676.2656,-625 676.2656,-625 670.2656,-625 664.2656,-619 664.2656,-613 664.2656,-613 664.2656,-601 664.2656,-601 664.2656,-595 670.2656,-589 676.2656,-589 676.2656,-589 746.3284,-589 746.3284,-589 752.3284,-589 758.3284,-595 758.3284,-601 758.3284,-601 758.3284,-613 758.3284,-613 758.3284,-619 752.3284,-625 746.3284,-625"></path>
<text text-anchor="middle" x="711.297" y="-602.8" font-family="Times,serif" font-size="14.00" fill="#000000">video-embeds</text>
</g>
<!-- video&#45;embeds&#45;&gt;embeds -->
<g id="edge60" class="edge">
<title>video-embeds-&gt;embeds</title>
<path fill="none" stroke="#000000" d="M664.2348,-593.3735C633.2492,-584.4019 593.1611,-572.7947 563.9263,-564.33"></path>
<polygon fill="#000000" stroke="#000000" points="564.6498,-560.8958 554.0709,-561.4765 562.703,-567.6196 564.6498,-560.8958"></polygon>
</g>
<!-- youtube&#45;video&#45;embeds -->
<g id="node50" class="node">
<title>youtube-video-embeds</title>
<path fill="none" stroke="#9ed1f3" stroke-width="3" d="M771.5933,-571C771.5933,-571 651.0007,-571 651.0007,-571 645.0007,-571 639.0007,-565 639.0007,-559 639.0007,-559 639.0007,-547 639.0007,-547 639.0007,-541 645.0007,-535 651.0007,-535 651.0007,-535 771.5933,-535 771.5933,-535 777.5933,-535 783.5933,-541 783.5933,-547 783.5933,-547 783.5933,-559 783.5933,-559 783.5933,-565 777.5933,-571 771.5933,-571"></path>
<text text-anchor="middle" x="711.297" y="-548.8" font-family="Times,serif" font-size="14.00" fill="#000000">youtube-video-embeds</text>
</g>
<!-- youtube&#45;video&#45;embeds&#45;&gt;embeds -->
<g id="edge61" class="edge">
<title>youtube-video-embeds-&gt;embeds</title>
<path fill="none" stroke="#000000" d="M638.9237,-553C613.5819,-553 586.0717,-553 564.4112,-553"></path>
<polygon fill="#000000" stroke="#000000" points="564.2829,-549.5001 554.2829,-553 564.2828,-556.5001 564.2829,-549.5001"></polygon>
</g>
<!-- soundcloud&#45;embeds -->
<g id="node51" class="node">
<title>soundcloud-embeds</title>
<path fill="none" stroke="#9ed1f3" stroke-width="3" d="M763.2718,-895C763.2718,-895 659.3222,-895 659.3222,-895 653.3222,-895 647.3222,-889 647.3222,-883 647.3222,-883 647.3222,-871 647.3222,-871 647.3222,-865 653.3222,-859 659.3222,-859 659.3222,-859 763.2718,-859 763.2718,-859 769.2718,-859 775.2718,-865 775.2718,-871 775.2718,-871 775.2718,-883 775.2718,-883 775.2718,-889 769.2718,-895 763.2718,-895"></path>
<text text-anchor="middle" x="711.297" y="-872.8" font-family="Times,serif" font-size="14.00" fill="#000000">soundcloud-embeds</text>
</g>
<!-- soundcloud&#45;embeds&#45;&gt;embeds -->
<g id="edge62" class="edge">
<title>soundcloud-embeds-&gt;embeds</title>
<path fill="none" stroke="#000000" d="M648.3831,-858.8414C644.9498,-856.2743 641.8196,-853.3442 639.149,-850 564.9797,-757.121 675.934,-678.9678 603.149,-585 593.5719,-572.6356 578.4139,-565.021 563.9713,-560.344"></path>
<polygon fill="#000000" stroke="#000000" points="564.7404,-556.9239 554.1643,-557.553 562.8244,-563.6566 564.7404,-556.9239"></polygon>
</g>
<!-- website&#45;embeds -->
<g id="node52" class="node">
<title>website-embeds</title>
<path fill="#4cafef" stroke="#4cafef" stroke-width="3" d="M752.4838,-787C752.4838,-787 670.1102,-787 670.1102,-787 664.1102,-787 658.1102,-781 658.1102,-775 658.1102,-775 658.1102,-763 658.1102,-763 658.1102,-757 664.1102,-751 670.1102,-751 670.1102,-751 752.4838,-751 752.4838,-751 758.4838,-751 764.4838,-757 764.4838,-763 764.4838,-763 764.4838,-775 764.4838,-775 764.4838,-781 758.4838,-787 752.4838,-787"></path>
<text text-anchor="middle" x="711.297" y="-764.8" font-family="Times,serif" font-size="14.00" fill="#000000">website-embeds</text>
</g>
<!-- website&#45;embeds&#45;&gt;embeds -->
<g id="edge63" class="edge">
<title>website-embeds-&gt;embeds</title>
<path fill="none" stroke="#000000" d="M658.1125,-756.189C650.9803,-752.5719 644.3464,-747.9372 639.149,-742 591.9956,-688.1345 649.4991,-639.5583 603.149,-585 593.1004,-573.1719 578.0052,-565.6567 563.7385,-560.909"></path>
<polygon fill="#000000" stroke="#000000" points="564.6483,-557.5282 554.0661,-558.0453 562.661,-564.2402 564.6483,-557.5282"></polygon>
</g>
<!-- image&#45;embeds -->
<g id="node53" class="node">
<title>image-embeds</title>
<path fill="#4cafef" stroke="#4cafef" stroke-width="3" d="M747.9331,-733C747.9331,-733 674.6609,-733 674.6609,-733 668.6609,-733 662.6609,-727 662.6609,-721 662.6609,-721 662.6609,-709 662.6609,-709 662.6609,-703 668.6609,-697 674.6609,-697 674.6609,-697 747.9331,-697 747.9331,-697 753.9331,-697 759.9331,-703 759.9331,-709 759.9331,-709 759.9331,-721 759.9331,-721 759.9331,-727 753.9331,-733 747.9331,-733"></path>
<text text-anchor="middle" x="711.297" y="-710.8" font-family="Times,serif" font-size="14.00" fill="#000000">image-embeds</text>
</g>
<!-- image&#45;embeds&#45;&gt;embeds -->
<g id="edge64" class="edge">
<title>image-embeds-&gt;embeds</title>
<path fill="none" stroke="#000000" d="M662.3782,-703.3859C653.8186,-699.5981 645.6026,-694.5962 639.149,-688 605.2357,-653.3374 636.5449,-620.1613 603.149,-585 592.7263,-574.0263 578.0067,-566.7028 564.1351,-561.8687"></path>
<polygon fill="#000000" stroke="#000000" points="564.847,-558.424 554.2579,-558.7721 562.7528,-565.1034 564.847,-558.424"></polygon>
</g>
<!-- code&#45;display -->
<g id="node54" class="node">
<title>code-display</title>
<polygon fill="#9ed1f3" stroke="#9ed1f3" stroke-width="3" points="568.327,-198 481.264,-198 481.264,-162 568.327,-162 568.327,-198"></polygon>
<text text-anchor="middle" x="524.7955" y="-175.8" font-family="Times,serif" font-size="14.00" fill="#000000">code-display</text>
</g>
<!-- code&#45;display&#45;&gt;message&#45;render -->
<g id="edge65" class="edge">
<title>code-display-&gt;message-render</title>
<path fill="none" stroke="#000000" d="M480.9179,-189.9111C468.2657,-194.7017 455.4594,-201.7324 446.442,-212 414.288,-248.6121 451.1838,-281.9127 418.442,-318 414.9668,-321.8303 410.8979,-325.1189 406.4915,-327.9423"></path>
<polygon fill="#000000" stroke="#000000" points="404.7283,-324.9178 397.6691,-332.8184 408.1144,-331.0443 404.7283,-324.9178"></polygon>
</g>
<!-- clojure&#45;code&#45;display -->
<g id="node55" class="node">
<title>clojure-code-display</title>
<path fill="#9ed1f3" stroke="#9ed1f3" stroke-width="3" d="M764.8588,-171C764.8588,-171 657.7352,-171 657.7352,-171 651.7352,-171 645.7352,-165 645.7352,-159 645.7352,-159 645.7352,-147 645.7352,-147 645.7352,-141 651.7352,-135 657.7352,-135 657.7352,-135 764.8588,-135 764.8588,-135 770.8588,-135 776.8588,-141 776.8588,-147 776.8588,-147 776.8588,-159 776.8588,-159 776.8588,-165 770.8588,-171 764.8588,-171"></path>
<text text-anchor="middle" x="711.297" y="-148.8" font-family="Times,serif" font-size="14.00" fill="#000000">clojure-code-display</text>
</g>
<!-- clojure&#45;code&#45;display&#45;&gt;code&#45;display -->
<g id="edge66" class="edge">
<title>clojure-code-display-&gt;code-display</title>
<path fill="none" stroke="#000000" d="M645.5435,-162.5192C623.553,-165.7028 599.3219,-169.2107 578.374,-172.2434"></path>
<polygon fill="#000000" stroke="#000000" points="577.7737,-168.7937 568.3783,-173.6905 578.7767,-175.7215 577.7737,-168.7937"></polygon>
</g>
<!-- long&#45;reply -->
<g id="node56" class="node">
<title>long-reply</title>
<path fill="none" stroke="#9ed1f3" stroke-width="3" d="M550.1132,-663C550.1132,-663 499.4778,-663 499.4778,-663 493.4778,-663 487.4778,-657 487.4778,-651 487.4778,-651 487.4778,-639 487.4778,-639 487.4778,-633 493.4778,-627 499.4778,-627 499.4778,-627 550.1132,-627 550.1132,-627 556.1132,-627 562.1132,-633 562.1132,-639 562.1132,-639 562.1132,-651 562.1132,-651 562.1132,-657 556.1132,-663 550.1132,-663"></path>
<text text-anchor="middle" x="524.7955" y="-640.8" font-family="Times,serif" font-size="14.00" fill="#000000">long-reply</text>
</g>
<!-- long&#45;reply&#45;&gt;compose&#45;actions -->
<g id="edge67" class="edge">
<title>long-reply-&gt;compose-actions</title>
<path fill="none" stroke="#000000" d="M487.5126,-637.7578C472.7187,-633.0648 456.7961,-625.4113 446.442,-613 407.7453,-566.6151 457.8837,-525.753 418.442,-480 415.7963,-476.931 412.7681,-474.2104 409.4837,-471.7987"></path>
<polygon fill="#000000" stroke="#000000" points="411.2003,-468.7444 400.8641,-466.4179 407.4935,-474.6824 411.2003,-468.7444"></polygon>
</g>
<!-- email&#45;bridge -->
<g id="node57" class="node">
<title>email-bridge</title>
<path fill="none" stroke="#9ed1f3" stroke-width="3" d="M742.8257,-1003C742.8257,-1003 679.7683,-1003 679.7683,-1003 673.7683,-1003 667.7683,-997 667.7683,-991 667.7683,-991 667.7683,-979 667.7683,-979 667.7683,-973 673.7683,-967 679.7683,-967 679.7683,-967 742.8257,-967 742.8257,-967 748.8257,-967 754.8257,-973 754.8257,-979 754.8257,-979 754.8257,-991 754.8257,-991 754.8257,-997 748.8257,-1003 742.8257,-1003"></path>
<text text-anchor="middle" x="711.297" y="-980.8" font-family="Times,serif" font-size="14.00" fill="#000000">email-bridge</text>
</g>
<!-- email&#45;bridge&#45;&gt;conversations -->
<g id="edge69" class="edge">
<title>email-bridge-&gt;conversations</title>
<path fill="none" stroke="#000000" d="M667.6533,-996.1663C657.6088,-1000.0818 647.4502,-1005.2498 639.149,-1012 587.4169,-1054.0664 552.0356,-1126.0521 535.4914,-1165.3718"></path>
<polygon fill="#000000" stroke="#000000" points="532.1579,-1164.276 531.6008,-1174.8562 538.6342,-1166.9327 532.1579,-1164.276"></polygon>
</g>
<!-- email&#45;bridge&#45;&gt;group&#45;settings -->
<g id="edge70" class="edge">
<title>email-bridge-&gt;group-settings</title>
<path fill="none" stroke="#000000" d="M667.7383,-968.9996C648.2657,-962.6615 624.8525,-956.1436 603.149,-953 534.2207,-943.0163 515.8176,-946.8512 446.442,-953 432.5563,-954.2307 417.719,-956.3977 403.8176,-958.8115"></path>
<polygon fill="#000000" stroke="#000000" points="403.1073,-955.3831 393.8876,-960.6029 404.3502,-962.2719 403.1073,-955.3831"></polygon>
</g>
<!-- email&#45;bridge&#45;&gt;long&#45;reply -->
<g id="edge68" class="edge">
<title>email-bridge-&gt;long-reply</title>
<path fill="none" stroke="#000000" d="M667.5415,-977.0304C656.7647,-973.0304 646.282,-967.0227 639.149,-958 559.6966,-857.4985 683.9135,-771.4502 603.149,-672 595.2833,-662.3145 583.7556,-656.0926 571.9495,-652.0992"></path>
<polygon fill="#000000" stroke="#000000" points="572.6194,-648.6498 562.0411,-649.2417 570.6797,-655.3757 572.6194,-648.6498"></polygon>
</g>
<!-- stars -->
<g id="node58" class="node">
<title>stars</title>
<path fill="none" stroke="#9ed1f3" stroke-width="3" d="M539.7955,-901C539.7955,-901 509.7955,-901 509.7955,-901 503.7955,-901 497.7955,-895 497.7955,-889 497.7955,-889 497.7955,-877 497.7955,-877 497.7955,-871 503.7955,-865 509.7955,-865 509.7955,-865 539.7955,-865 539.7955,-865 545.7955,-865 551.7955,-871 551.7955,-877 551.7955,-877 551.7955,-889 551.7955,-889 551.7955,-895 545.7955,-901 539.7955,-901"></path>
<text text-anchor="middle" x="524.7955" y="-878.8" font-family="Times,serif" font-size="14.00" fill="#000000">stars</text>
</g>
<!-- stars&#45;&gt;state -->
<g id="edge73" class="edge">
<title>stars-&gt;state</title>
<path fill="none" stroke="#000000" d="M505.6106,-901.0063C486.7333,-920.0762 458.9734,-952.0666 446.442,-986 427.5886,-1037.0523 452.9267,-1432.8978 418.442,-1475 376.0929,-1526.7039 319.385,-1464.9351 272.9468,-1513 244.7769,-1542.1567 278.4975,-1570.5228 252.9468,-1602 247.105,-1609.1968 238.9254,-1614.5545 230.5082,-1618.5125"></path>
<polygon fill="#000000" stroke="#000000" points="228.9372,-1615.3739 221.016,-1622.4099 231.596,-1621.8493 228.9372,-1615.3739"></polygon>
</g>
<!-- stars&#45;&gt;group&#45;header -->
<g id="edge72" class="edge">
<title>stars-&gt;group-header</title>
<path fill="none" stroke="#000000" d="M497.4901,-877.8666C481.4834,-873.8666 461.5136,-867.0771 446.442,-856 429.538,-843.5761 437.1658,-827.4613 418.442,-818 305.6322,-760.9964 235.6754,-760.0764 134.6256,-836 89.5101,-869.8974 71.7198,-937.4434 65.0462,-975.7574"></path>
<polygon fill="#000000" stroke="#000000" points="61.5736,-975.3084 63.4453,-985.7365 68.4852,-976.4173 61.5736,-975.3084"></polygon>
</g>
<!-- stars&#45;&gt;conversation&#45;header -->
<g id="edge71" class="edge">
<title>stars-&gt;conversation-header</title>
<path fill="none" stroke="#000000" d="M497.6472,-879.7499C480.8859,-876.4094 460.0562,-869.6517 446.442,-856 441.5019,-851.0463 378.7824,-661.5392 354.8706,-588.9217"></path>
<polygon fill="#000000" stroke="#000000" points="358.0863,-587.4965 351.6357,-579.0917 351.4371,-589.6847 358.0863,-587.4965"></polygon>
</g>
<!-- stars&#45;&gt;group&#45;page -->
<g id="edge74" class="edge">
<title>stars-&gt;group-page</title>
<path fill="none" stroke="#000000" d="M513.6898,-901.3529C496.7318,-927.5921 461.7435,-975.1729 418.442,-998 363.5364,-1026.9444 291.1895,-1032.7681 243.6237,-1032.9624"></path>
<polygon fill="#000000" stroke="#000000" points="243.5845,-1029.4623 233.5702,-1032.9212 243.5557,-1036.4623 243.5845,-1029.4623"></polygon>
</g>
<!-- invites -->
<g id="node59" class="node">
<title>invites</title>
<path fill="#9ed1f3" stroke="#9ed1f3" stroke-width="3" d="M360.6944,-1379C360.6944,-1379 330.6944,-1379 330.6944,-1379 324.6944,-1379 318.6944,-1373 318.6944,-1367 318.6944,-1367 318.6944,-1355 318.6944,-1355 318.6944,-1349 324.6944,-1343 330.6944,-1343 330.6944,-1343 360.6944,-1343 360.6944,-1343 366.6944,-1343 372.6944,-1349 372.6944,-1355 372.6944,-1355 372.6944,-1367 372.6944,-1367 372.6944,-1373 366.6944,-1379 360.6944,-1379"></path>
<text text-anchor="middle" x="345.6944" y="-1356.8" font-family="Times,serif" font-size="14.00" fill="#000000">invites</text>
</g>
<!-- invites&#45;&gt;email -->
<g id="edge75" class="edge">
<title>invites-&gt;email</title>
<path fill="none" stroke="#000000" d="M318.6691,-1365.5635C303.5984,-1369.3347 285.4115,-1376.0847 272.9468,-1388 227.0958,-1431.8302 206.593,-1506.4207 198.4563,-1546.8833"></path>
<polygon fill="#000000" stroke="#000000" points="194.9876,-1546.3897 196.5619,-1556.8669 201.8648,-1547.6947 194.9876,-1546.3897"></polygon>
</g>
<!-- invites&#45;&gt;user&#45;menu -->
<g id="edge76" class="edge">
<title>invites-&gt;user-menu</title>
<path fill="none" stroke="#000000" d="M318.5965,-1364.5476C275.1458,-1368.707 189.2389,-1370.4568 134.6256,-1329 91.2112,-1296.0442 72.8582,-1231.5694 65.6147,-1194.3472"></path>
<polygon fill="#000000" stroke="#000000" points="69.0001,-1193.3977 63.781,-1184.1775 62.1111,-1194.6399 69.0001,-1193.3977"></polygon>
</g>
<!-- invites&#45;&gt;group&#45;page -->
<g id="edge77" class="edge">
<title>invites-&gt;group-page</title>
<path fill="none" stroke="#000000" d="M335.311,-1342.6485C320.4864,-1316.0727 292.8496,-1265.1106 272.9468,-1220 262.6159,-1196.5845 262.5316,-1189.7307 252.9468,-1166 237.7543,-1128.3853 218.6908,-1085.5867 206.3768,-1058.4494"></path>
<polygon fill="#000000" stroke="#000000" points="209.4941,-1056.8494 202.1651,-1049.1986 203.1233,-1059.75 209.4941,-1056.8494"></polygon>
</g>
<!-- reactions -->
<g id="node60" class="node">
<title>reactions</title>
<path fill="none" stroke="#9ed1f3" stroke-width="3" d="M545.8273,-847C545.8273,-847 503.7637,-847 503.7637,-847 497.7637,-847 491.7637,-841 491.7637,-835 491.7637,-835 491.7637,-823 491.7637,-823 491.7637,-817 497.7637,-811 503.7637,-811 503.7637,-811 545.8273,-811 545.8273,-811 551.8273,-811 557.8273,-817 557.8273,-823 557.8273,-823 557.8273,-835 557.8273,-835 557.8273,-841 551.8273,-847 545.8273,-847"></path>
<text text-anchor="middle" x="524.7955" y="-824.8" font-family="Times,serif" font-size="14.00" fill="#000000">reactions</text>
</g>
<!-- reactions&#45;&gt;state -->
<g id="edge79" class="edge">
<title>reactions-&gt;state</title>
<path fill="none" stroke="#000000" d="M491.5213,-831.9046C475.2605,-835.1653 456.9719,-841.9557 446.442,-856 407.3388,-908.1544 460.3234,-1392.0492 418.442,-1442 375.84,-1492.8103 318.2401,-1426.5734 272.9468,-1475 233.9153,-1516.7316 287.5009,-1556.4917 252.9468,-1602 247.231,-1609.5278 238.9266,-1615.0196 230.338,-1619.0019"></path>
<polygon fill="#000000" stroke="#000000" points="228.9848,-1615.7736 221.016,-1622.7557 231.5996,-1622.267 228.9848,-1615.7736"></polygon>
</g>
<!-- reactions&#45;&gt;message&#45;footer&#45;ui -->
<g id="edge78" class="edge">
<title>reactions-&gt;message-footer-ui</title>
<path fill="none" stroke="#000000" d="M506.2196,-810.7535C487.8273,-791.4923 460.4475,-759.352 446.442,-726 413.0534,-646.49 472.674,-601.0487 418.442,-534 416.737,-531.8921 414.8505,-529.9487 412.8216,-528.157"></path>
<polygon fill="#000000" stroke="#000000" points="414.5087,-525.0545 404.3723,-521.9714 410.3737,-530.7027 414.5087,-525.0545"></polygon>
</g>
<!-- auto&#45;translate -->
<g id="node61" class="node">
<title>auto-translate</title>
<path fill="none" stroke="#9ed1f3" stroke-width="3" d="M558.9823,-717C558.9823,-717 490.6087,-717 490.6087,-717 484.6087,-717 478.6087,-711 478.6087,-705 478.6087,-705 478.6087,-693 478.6087,-693 478.6087,-687 484.6087,-681 490.6087,-681 490.6087,-681 558.9823,-681 558.9823,-681 564.9823,-681 570.9823,-687 570.9823,-693 570.9823,-693 570.9823,-705 570.9823,-705 570.9823,-711 564.9823,-717 558.9823,-717"></path>
<text text-anchor="middle" x="524.7955" y="-694.8" font-family="Times,serif" font-size="14.00" fill="#000000">auto-translate</text>
</g>
<!-- auto&#45;translate&#45;&gt;message&#45;render -->
<g id="edge80" class="edge">
<title>auto-translate-&gt;message-render</title>
<path fill="none" stroke="#000000" d="M478.3685,-692.3754C466.2346,-688.4 454.3538,-682.0688 446.442,-672 363.704,-566.7049 499.9351,-478.2616 418.442,-372 415.1947,-367.7658 411.2108,-364.1955 406.7959,-361.185"></path>
<polygon fill="#000000" stroke="#000000" points="408.271,-357.9963 397.8549,-356.0583 404.789,-364.0689 408.271,-357.9963"></polygon>
</g>
<!-- auto&#45;translate&#45;&gt;message&#45;footer&#45;ui -->
<g id="edge81" class="edge">
<title>auto-translate-&gt;message-footer-ui</title>
<path fill="none" stroke="#000000" d="M478.6336,-691.681C466.6529,-687.6888 454.7866,-681.5226 446.442,-672 405.1962,-624.9317 459.131,-581.5505 418.442,-534 416.7176,-531.9848 414.8282,-530.12 412.8094,-528.3941"></path>
<polygon fill="#000000" stroke="#000000" points="414.6221,-525.3871 404.4561,-522.4033 410.5425,-531.0755 414.6221,-525.3871"></polygon>
</g>
<!-- auto&#45;translate&#45;&gt;user&#45;settings -->
<g id="edge82" class="edge">
<title>auto-translate-&gt;user-settings</title>
<path fill="none" stroke="#000000" d="M503.234,-717.1701C485.3558,-733.4123 460.6481,-758.792 446.442,-786 421.0943,-834.5469 456.656,-866.7699 418.442,-906 371.8075,-953.8744 318.2335,-894.8487 272.9468,-944 238.0906,-981.8308 267.8212,-1008.757 252.9468,-1058 241.2825,-1096.6158 221.5505,-1138.8642 208.1097,-1165.6288"></path>
<polygon fill="#000000" stroke="#000000" points="204.8826,-1164.2533 203.469,-1174.7534 211.122,-1167.4266 204.8826,-1164.2533"></polygon>
</g>
<!-- links&#45;in&#45;message -->
<g id="node62" class="node">
<title>links-in-message</title>
<path fill="#9ed1f3" stroke="#9ed1f3" stroke-width="3" d="M568.1568,-90C568.1568,-90 481.4342,-90 481.4342,-90 475.4342,-90 469.4342,-84 469.4342,-78 469.4342,-78 469.4342,-66 469.4342,-66 469.4342,-60 475.4342,-54 481.4342,-54 481.4342,-54 568.1568,-54 568.1568,-54 574.1568,-54 580.1568,-60 580.1568,-66 580.1568,-66 580.1568,-78 580.1568,-78 580.1568,-84 574.1568,-90 568.1568,-90"></path>
<text text-anchor="middle" x="524.7955" y="-67.8" font-family="Times,serif" font-size="14.00" fill="#000000">links-in-message</text>
</g>
<!-- links&#45;in&#45;message&#45;&gt;message&#45;render -->
<g id="edge83" class="edge">
<title>links-in-message-&gt;message-render</title>
<path fill="none" stroke="#000000" d="M469.2851,-82.3696C460.5467,-86.272 452.4356,-91.6344 446.442,-99 384.5084,-175.1109 479.4755,-241.1654 418.442,-318 415.123,-322.1782 411.0896,-325.7099 406.6422,-328.695"></path>
<polygon fill="#000000" stroke="#000000" points="404.6314,-325.8116 397.6583,-333.7883 408.0837,-331.901 404.6314,-325.8116"></polygon>
</g>
<!-- keyboard&#45;shortcuts -->
<g id="node63" class="node">
<title>keyboard-shortcuts</title>
<polygon fill="none" stroke="#9ed1f3" stroke-width="3" points="948.712,-1057 825.1192,-1057 825.1192,-1021 948.712,-1021 948.712,-1057"></polygon>
<text text-anchor="middle" x="886.9156" y="-1034.8" font-family="Times,serif" font-size="14.00" fill="#000000">keyboard-shortcuts</text>
</g>
<!-- slack&#45;bridge -->
<g id="node64" class="node">
<title>slack-bridge</title>
<path fill="none" stroke="#9ed1f3" stroke-width="3" d="M741.988,-1273C741.988,-1273 680.606,-1273 680.606,-1273 674.606,-1273 668.606,-1267 668.606,-1261 668.606,-1261 668.606,-1249 668.606,-1249 668.606,-1243 674.606,-1237 680.606,-1237 680.606,-1237 741.988,-1237 741.988,-1237 747.988,-1237 753.988,-1243 753.988,-1249 753.988,-1249 753.988,-1261 753.988,-1261 753.988,-1267 747.988,-1273 741.988,-1273"></path>
<text text-anchor="middle" x="711.297" y="-1250.8" font-family="Times,serif" font-size="14.00" fill="#000000">slack-bridge</text>
</g>
<!-- slack&#45;bridge&#45;&gt;conversations -->
<g id="edge84" class="edge">
<title>slack-bridge-&gt;conversations</title>
<path fill="none" stroke="#000000" d="M668.5098,-1240.7759C642.5358,-1232.1412 609.087,-1221.0216 580.9954,-1211.6829"></path>
<polygon fill="#000000" stroke="#000000" points="581.897,-1208.2944 571.3035,-1208.461 579.6887,-1214.9369 581.897,-1208.2944"></polygon>
</g>
<!-- asana&#45;bridge -->
<g id="node65" class="node">
<title>asana-bridge</title>
<path fill="none" stroke="#9ed1f3" stroke-width="3" d="M742.8131,-949C742.8131,-949 679.7809,-949 679.7809,-949 673.7809,-949 667.7809,-943 667.7809,-937 667.7809,-937 667.7809,-925 667.7809,-925 667.7809,-919 673.7809,-913 679.7809,-913 679.7809,-913 742.8131,-913 742.8131,-913 748.8131,-913 754.8131,-919 754.8131,-925 754.8131,-925 754.8131,-937 754.8131,-937 754.8131,-943 748.8131,-949 742.8131,-949"></path>
<text text-anchor="middle" x="711.297" y="-926.8" font-family="Times,serif" font-size="14.00" fill="#000000">asana-bridge</text>
</g>
<!-- asana&#45;bridge&#45;&gt;autocomplete -->
<g id="edge85" class="edge">
<title>asana-bridge-&gt;autocomplete</title>
<path fill="none" stroke="#000000" d="M667.5415,-923.0304C656.7647,-919.0304 646.282,-913.0227 639.149,-904 559.6966,-803.4985 688.4943,-713.5479 603.149,-618 555.4075,-564.5513 495.6256,-632.1247 446.442,-580 398.6992,-529.4023 463.1318,-479.3135 418.442,-426 413.6822,-420.3217 407.6097,-415.837 401.0084,-412.2952"></path>
<polygon fill="#000000" stroke="#000000" points="402.2989,-409.0361 391.7523,-408.0263 399.3672,-415.3927 402.2989,-409.0361"></polygon>
</g>
<!-- asana&#45;bridge&#45;&gt;conversations -->
<g id="edge86" class="edge">
<title>asana-bridge-&gt;conversations</title>
<path fill="none" stroke="#000000" d="M667.6559,-941.0195C657.3818,-944.9854 647.1162,-950.4639 639.149,-958 610.2334,-985.3512 620.2278,-1004.0485 603.149,-1040 582.0034,-1084.5122 555.5366,-1135.2593 539.4113,-1165.6776"></path>
<polygon fill="#000000" stroke="#000000" points="536.1624,-1164.3329 534.5591,-1174.8057 542.3434,-1167.6185 536.1624,-1164.3329"></polygon>
</g>
<!-- github&#45;bridge -->
<g id="node66" class="node">
<title>github-bridge</title>
<path fill="none" stroke="#9ed1f3" stroke-width="3" d="M745.5048,-1111C745.5048,-1111 677.0892,-1111 677.0892,-1111 671.0892,-1111 665.0892,-1105 665.0892,-1099 665.0892,-1099 665.0892,-1087 665.0892,-1087 665.0892,-1081 671.0892,-1075 677.0892,-1075 677.0892,-1075 745.5048,-1075 745.5048,-1075 751.5048,-1075 757.5048,-1081 757.5048,-1087 757.5048,-1087 757.5048,-1099 757.5048,-1099 757.5048,-1105 751.5048,-1111 745.5048,-1111"></path>
<text text-anchor="middle" x="711.297" y="-1088.8" font-family="Times,serif" font-size="14.00" fill="#000000">github-bridge</text>
</g>
<!-- github&#45;bridge&#45;&gt;conversations -->
<g id="edge87" class="edge">
<title>github-bridge-&gt;conversations</title>
<path fill="none" stroke="#000000" d="M664.8802,-1108.7235C656.1898,-1112.1276 647.2854,-1115.9371 639.149,-1120 610.6866,-1134.2127 580.4249,-1153.7494 558.186,-1169.0356"></path>
<polygon fill="#000000" stroke="#000000" points="555.9937,-1166.2968 549.7769,-1174.8759 559.9868,-1172.0462 555.9937,-1166.2968"></polygon>
</g>
<!-- github&#45;bridge&#45;&gt;group&#45;settings -->
<g id="edge88" class="edge">
<title>github-bridge-&gt;group-settings</title>
<path fill="none" stroke="#000000" d="M665.0736,-1081.8812C655.6904,-1078.017 646.4676,-1072.8593 639.149,-1066 610.701,-1039.3371 635.2609,-1008.1139 603.149,-986 572.0408,-964.5772 470.1043,-964.8772 404.2149,-967.5717"></path>
<polygon fill="#000000" stroke="#000000" points="403.8027,-964.0863 393.9659,-968.0218 404.1099,-971.0796 403.8027,-964.0863"></polygon>
</g>
<!-- voice&#45;and&#45;video&#45;chat -->
<g id="node67" class="node">
<title>voice-and-video-chat</title>
<path fill="none" stroke="#9ed1f3" stroke-width="3" d="M942.3568,-1111C942.3568,-1111 831.4744,-1111 831.4744,-1111 825.4744,-1111 819.4744,-1105 819.4744,-1099 819.4744,-1099 819.4744,-1087 819.4744,-1087 819.4744,-1081 825.4744,-1075 831.4744,-1075 831.4744,-1075 942.3568,-1075 942.3568,-1075 948.3568,-1075 954.3568,-1081 954.3568,-1087 954.3568,-1087 954.3568,-1099 954.3568,-1099 954.3568,-1105 948.3568,-1111 942.3568,-1111"></path>
<text text-anchor="middle" x="886.9156" y="-1088.8" font-family="Times,serif" font-size="14.00" fill="#000000">voice-and-video-chat</text>
</g>
<!-- gmail&#45;bridge -->
<g id="node68" class="node">
<title>gmail-bridge</title>
<path fill="none" stroke="#9ed1f3" stroke-width="3" d="M919.229,-1003C919.229,-1003 854.6022,-1003 854.6022,-1003 848.6022,-1003 842.6022,-997 842.6022,-991 842.6022,-991 842.6022,-979 842.6022,-979 842.6022,-973 848.6022,-967 854.6022,-967 854.6022,-967 919.229,-967 919.229,-967 925.229,-967 931.229,-973 931.229,-979 931.229,-979 931.229,-991 931.229,-991 931.229,-997 925.229,-1003 919.229,-1003"></path>
<text text-anchor="middle" x="886.9156" y="-980.8" font-family="Times,serif" font-size="14.00" fill="#000000">gmail-bridge</text>
</g>
<!-- gmail&#45;bridge&#45;&gt;email&#45;bridge -->
<g id="edge89" class="edge">
<title>gmail-bridge-&gt;email-bridge</title>
<path fill="none" stroke="#000000" d="M842.5996,-985C819.0224,-985 789.8483,-985 764.9924,-985"></path>
<polygon fill="#000000" stroke="#000000" points="764.9905,-981.5001 754.9904,-985 764.9904,-988.5001 764.9905,-981.5001"></polygon>
</g>
<!-- google&#45;groups&#45;bridge -->
<g id="node69" class="node">
<title>google-groups-bridge</title>
<path fill="none" stroke="#9ed1f3" stroke-width="3" d="M768.0947,-1219C768.0947,-1219 654.4993,-1219 654.4993,-1219 648.4993,-1219 642.4993,-1213 642.4993,-1207 642.4993,-1207 642.4993,-1195 642.4993,-1195 642.4993,-1189 648.4993,-1183 654.4993,-1183 654.4993,-1183 768.0947,-1183 768.0947,-1183 774.0947,-1183 780.0947,-1189 780.0947,-1195 780.0947,-1195 780.0947,-1207 780.0947,-1207 780.0947,-1213 774.0947,-1219 768.0947,-1219"></path>
<text text-anchor="middle" x="711.297" y="-1196.8" font-family="Times,serif" font-size="14.00" fill="#000000">google-groups-bridge</text>
</g>
<!-- google&#45;groups&#45;bridge&#45;&gt;conversations -->
<g id="edge90" class="edge">
<title>google-groups-bridge-&gt;conversations</title>
<path fill="none" stroke="#000000" d="M642.6453,-1198.0552C622.5722,-1197.1941 600.8613,-1196.2629 581.6092,-1195.437"></path>
<polygon fill="#000000" stroke="#000000" points="581.632,-1191.9349 571.4911,-1195.003 581.3319,-1198.9284 581.632,-1191.9349"></polygon>
</g>
<!-- discourse&#45;bridge -->
<g id="node70" class="node">
<title>discourse-bridge</title>
<path fill="none" stroke="#9ed1f3" stroke-width="3" d="M754.0934,-1327C754.0934,-1327 668.5006,-1327 668.5006,-1327 662.5006,-1327 656.5006,-1321 656.5006,-1315 656.5006,-1315 656.5006,-1303 656.5006,-1303 656.5006,-1297 662.5006,-1291 668.5006,-1291 668.5006,-1291 754.0934,-1291 754.0934,-1291 760.0934,-1291 766.0934,-1297 766.0934,-1303 766.0934,-1303 766.0934,-1315 766.0934,-1315 766.0934,-1321 760.0934,-1327 754.0934,-1327"></path>
<text text-anchor="middle" x="711.297" y="-1304.8" font-family="Times,serif" font-size="14.00" fill="#000000">discourse-bridge</text>
</g>
<!-- discourse&#45;bridge&#45;&gt;conversations -->
<g id="edge91" class="edge">
<title>discourse-bridge-&gt;conversations</title>
<path fill="none" stroke="#000000" d="M656.4085,-1292.8837C650.2505,-1289.8203 644.3369,-1286.2192 639.149,-1282 615.9033,-1263.0946 626.1121,-1244.2477 603.149,-1225 596.4399,-1219.3764 588.6098,-1214.6371 580.5438,-1210.6752"></path>
<polygon fill="#000000" stroke="#000000" points="581.9374,-1207.4641 571.3841,-1206.5266 579.0493,-1213.8406 581.9374,-1207.4641"></polygon>
</g>
<!-- password&#45;obfuscator -->
<g id="node71" class="node">
<title>password-obfuscator</title>
<path fill="none" stroke="#9ed1f3" stroke-width="3" d="M578.9133,-36C578.9133,-36 470.6777,-36 470.6777,-36 464.6777,-36 458.6777,-30 458.6777,-24 458.6777,-24 458.6777,-12 458.6777,-12 458.6777,-6 464.6777,0 470.6777,0 470.6777,0 578.9133,0 578.9133,0 584.9133,0 590.9133,-6 590.9133,-12 590.9133,-12 590.9133,-24 590.9133,-24 590.9133,-30 584.9133,-36 578.9133,-36"></path>
<text text-anchor="middle" x="524.7955" y="-13.8" font-family="Times,serif" font-size="14.00" fill="#000000">password-obfuscator</text>
</g>
<!-- password&#45;obfuscator&#45;&gt;message&#45;preprocess -->
<g id="edge92" class="edge">
<title>password-obfuscator-&gt;message-preprocess</title>
<path fill="none" stroke="#000000" d="M458.6196,-35.8922C454.2269,-38.5245 450.1026,-41.5418 446.442,-45 382.5483,-105.3604 357.9619,-212.0639 349.5604,-262.7482"></path>
<polygon fill="#000000" stroke="#000000" points="346.095,-262.2552 348.0049,-272.6765 353.0106,-263.3388 346.095,-262.2552"></polygon>
</g>
<!-- quests -->
<g id="node72" class="node">
<title>quests</title>
<polygon fill="#4cafef" stroke="#4cafef" stroke-width="3" points="372.6944,-1119 318.6944,-1119 318.6944,-1083 372.6944,-1083 372.6944,-1119"></polygon>
<text text-anchor="middle" x="345.6944" y="-1096.8" font-family="Times,serif" font-size="14.00" fill="#000000">quests</text>
</g>
<!-- quests&#45;&gt;state -->
<g id="edge94" class="edge">
<title>quests-&gt;state</title>
<path fill="none" stroke="#000000" d="M318.5145,-1117.2507C302.165,-1128.654 282.6898,-1145.5023 272.9468,-1166 252.128,-1209.7993 280.0985,-1561.818 252.9468,-1602 247.562,-1609.969 239.21,-1615.6241 230.4618,-1619.6229"></path>
<polygon fill="#000000" stroke="#000000" points="228.977,-1616.4453 220.9352,-1623.3431 231.5234,-1622.9658 228.977,-1616.4453"></polygon>
</g>
<!-- quests&#45;&gt;group&#45;header -->
<g id="edge93" class="edge">
<title>quests-&gt;group-header</title>
<path fill="none" stroke="#000000" d="M318.4238,-1101.477C275.856,-1100.9733 192.5059,-1094.864 134.6256,-1058 122.0298,-1049.9777 126.0376,-1040.6321 114.6256,-1031 113.3174,-1029.8958 111.9564,-1028.8219 110.5548,-1027.7787"></path>
<polygon fill="#000000" stroke="#000000" points="112.4217,-1024.8165 102.1687,-1022.1469 108.519,-1030.6277 112.4217,-1024.8165"></polygon>
</g>
<!-- markdown -->
<g id="node73" class="node">
<title>markdown</title>
<path fill="none" stroke="#9ed1f3" stroke-width="3" d="M550.668,-144C550.668,-144 498.923,-144 498.923,-144 492.923,-144 486.923,-138 486.923,-132 486.923,-132 486.923,-120 486.923,-120 486.923,-114 492.923,-108 498.923,-108 498.923,-108 550.668,-108 550.668,-108 556.668,-108 562.668,-114 562.668,-120 562.668,-120 562.668,-132 562.668,-132 562.668,-138 556.668,-144 550.668,-144"></path>
<text text-anchor="middle" x="524.7955" y="-121.8" font-family="Times,serif" font-size="14.00" fill="#000000">markdown</text>
</g>
<!-- markdown&#45;&gt;message&#45;render -->
<g id="edge95" class="edge">
<title>markdown-&gt;message-render</title>
<path fill="none" stroke="#000000" d="M486.5908,-130.7569C472.0102,-134.4935 456.4943,-141.1504 446.442,-153 398.3239,-209.7212 465.8892,-260.7164 418.442,-318 415.0906,-322.0462 411.0719,-325.4862 406.6671,-328.4108"></path>
<polygon fill="#000000" stroke="#000000" points="404.7793,-325.4574 397.7943,-333.4236 408.2226,-331.552 404.7793,-325.4574"></polygon>
</g>
<!-- braid&#45;messaging -->
<g id="node74" class="node">
<title>braid-messaging</title>
<path fill="#9ed1f3" stroke="#9ed1f3" stroke-width="3" d="M753.324,-1165C753.324,-1165 669.27,-1165 669.27,-1165 663.27,-1165 657.27,-1159 657.27,-1153 657.27,-1153 657.27,-1141 657.27,-1141 657.27,-1135 663.27,-1129 669.27,-1129 669.27,-1129 753.324,-1129 753.324,-1129 759.324,-1129 765.324,-1135 765.324,-1141 765.324,-1141 765.324,-1153 765.324,-1153 765.324,-1159 759.324,-1165 753.324,-1165"></path>
<text text-anchor="middle" x="711.297" y="-1142.8" font-family="Times,serif" font-size="14.00" fill="#000000">braid-messaging</text>
</g>
<!-- braid&#45;messaging&#45;&gt;conversations -->
<g id="edge97" class="edge">
<title>braid-messaging-&gt;conversations</title>
<path fill="none" stroke="#000000" d="M657.1025,-1160.3669C633.388,-1166.216 605.5602,-1173.0796 581.5605,-1178.9991"></path>
<polygon fill="#000000" stroke="#000000" points="580.4033,-1175.6795 571.5324,-1181.4725 582.0796,-1182.4759 580.4033,-1175.6795"></polygon>
</g>
<!-- braid&#45;messaging&#45;&gt;quests -->
<g id="edge96" class="edge">
<title>braid-messaging-&gt;quests</title>
<path fill="none" stroke="#000000" d="M656.9574,-1140.163C581.7749,-1130.7036 447.972,-1113.8685 383.0661,-1105.7021"></path>
<polygon fill="#000000" stroke="#000000" points="383.2474,-1102.1974 372.8887,-1104.4216 382.3735,-1109.1426 383.2474,-1102.1974"></polygon>
</g>
<!-- payments -->
<g id="node75" class="node">
<title>payments</title>
<path fill="#4cafef" stroke="#4cafef" stroke-width="3" d="M547.4514,-1031C547.4514,-1031 502.1396,-1031 502.1396,-1031 496.1396,-1031 490.1396,-1025 490.1396,-1019 490.1396,-1019 490.1396,-1007 490.1396,-1007 490.1396,-1001 496.1396,-995 502.1396,-995 502.1396,-995 547.4514,-995 547.4514,-995 553.4514,-995 559.4514,-1001 559.4514,-1007 559.4514,-1007 559.4514,-1019 559.4514,-1019 559.4514,-1025 553.4514,-1031 547.4514,-1031"></path>
<text text-anchor="middle" x="524.7955" y="-1008.8" font-family="Times,serif" font-size="14.00" fill="#000000">payments</text>
</g>
<!-- payments&#45;&gt;group&#45;header -->
<g id="edge98" class="edge">
<title>payments-&gt;group-header</title>
<path fill="none" stroke="#000000" d="M509.1733,-994.8245C492.4421,-974.849 465.7029,-941.4125 446.442,-910 431.4794,-885.5976 442.6863,-867.2175 418.442,-852 308.6669,-783.0972 237.4044,-840.0399 134.6256,-919 113.1112,-935.5285 93.3151,-959.218 79.7311,-977.3918"></path>
<polygon fill="#000000" stroke="#000000" points="76.6513,-975.6745 73.5813,-985.8148 82.3048,-979.8022 76.6513,-975.6745"></polygon>
</g>
<!-- payments&#45;&gt;users -->
<g id="edge99" class="edge">
<title>payments-&gt;users</title>
<path fill="none" stroke="#000000" d="M512.363,-1031.3229C494.2628,-1059.072 461.2089,-1114.0417 446.442,-1166 404.1438,-1314.8295 459.9189,-1363.9395 418.442,-1513 406.18,-1557.0673 380.4317,-1603.647 363.0964,-1632.0265"></path>
<polygon fill="#000000" stroke="#000000" points="360.0905,-1630.2324 357.7914,-1640.5748 366.0383,-1633.9236 360.0905,-1630.2324"></polygon>
</g>
<!-- payments&#45;&gt;group&#45;settings -->
<g id="edge100" class="edge">
<title>payments-&gt;group-settings</title>
<path fill="none" stroke="#000000" d="M489.8378,-1004.8023C465.3418,-999.0578 432.0326,-991.2467 403.6049,-984.5803"></path>
<polygon fill="#000000" stroke="#000000" points="404.3108,-981.1509 393.7758,-982.2753 402.7125,-987.966 404.3108,-981.1509"></polygon>
</g>
<!-- rest&#45;api -->
<g id="node76" class="node">
<title>rest-api</title>
<polygon fill="none" stroke="#9ed1f3" stroke-width="3" points="915.8918,-1165 857.9394,-1165 857.9394,-1129 915.8918,-1129 915.8918,-1165"></polygon>
<text text-anchor="middle" x="886.9156" y="-1142.8" font-family="Times,serif" font-size="14.00" fill="#000000">rest-api</text>
</g>
</g>
</svg>
