<!--?xml version="1.0" encoding="UTF-8" standalone="no"?-->

<!-- Generated by graphviz version 2.40.1 (20161225.0304)
 -->
<!-- Title: %0 Pages: 1 -->
<svg width="962pt" height="2019pt" viewBox="0.00 0.00 962.39 2018.88" xmlns="http://www.w3.org/2000/svg" xmlns:xlink="http://www.w3.org/1999/xlink">
<g id="graph0" class="graph" transform="scale(1 1) rotate(0) translate(4 2014.8784)">
<title>%0</title>
<polygon fill="#ffffff" stroke="transparent" points="-4,4 -4,-2014.8784 958.3862,-2014.8784 958.3862,4 -4,4"></polygon>
<g id="clust1" class="cluster">
<title>cluster325</title>
<polygon fill="#cccccc" stroke="#cccccc" stroke-width="3" points="846.8104,-337.8784 846.8104,-522.8784 927.0208,-522.8784 927.0208,-337.8784 846.8104,-337.8784"></polygon>
<text text-anchor="middle" x="886.9156" y="-506.2784" font-family="Times,serif" font-size="14.00" fill="#000000">legend</text>
</g>
<g id="clust2" class="cluster">
<title>cluster326</title>
<polygon fill="#cccccc" stroke="#cccccc" stroke-width="3" points="134.6256,-1582.8784 134.6256,-1821.8784 252.9468,-1821.8784 252.9468,-1582.8784 134.6256,-1582.8784"></polygon>
<text text-anchor="middle" x="193.7862" y="-1805.2784" font-family="Times,serif" font-size="14.00" fill="#000000">braid-server</text>
</g>
<g id="clust3" class="cluster">
<title>cluster327</title>
<polygon fill="#cccccc" stroke="#cccccc" stroke-width="3" points="7,-986.8784 7,-1225.8784 114.6256,-1225.8784 114.6256,-986.8784 7,-986.8784"></polygon>
<text text-anchor="middle" x="60.8128" y="-1209.2784" font-family="Times,serif" font-size="14.00" fill="#000000">braid-web-client</text>
</g>
<g id="clust4" class="cluster">
<title>cluster328</title>
<polygon fill="#cccccc" stroke="#cccccc" stroke-width="3" points="272.9468,-433.8784 272.9468,-780.8784 418.442,-780.8784 418.442,-433.8784 272.9468,-433.8784"></polygon>
<text text-anchor="middle" x="345.6944" y="-764.2784" font-family="Times,serif" font-size="14.00" fill="#000000">conversation-ui</text>
</g>
<!-- TODO -->
<g id="node1" class="node">
<title>TODO</title>
<polygon fill="none" stroke="#4cafef" stroke-width="3" points="914.2881,-489.8784 859.5431,-489.8784 859.5431,-453.8784 914.2881,-453.8784 914.2881,-489.8784"></polygon>
<text text-anchor="middle" x="886.9156" y="-467.6784" font-family="Times,serif" font-size="14.00" fill="#000000">TODO</text>
</g>
<!-- exists -->
<g id="node2" class="node">
<title>exists</title>
<polygon fill="#4cafef" stroke="#4cafef" stroke-width="3" points="913.9156,-435.8784 859.9156,-435.8784 859.9156,-399.8784 913.9156,-399.8784 913.9156,-435.8784"></polygon>
<text text-anchor="middle" x="886.9156" y="-413.6784" font-family="Times,serif" font-size="14.00" fill="#000000">exists</text>
</g>
<!-- provides -->
<g id="node3" class="node">
<title>provides</title>
<path fill="#4cafef" stroke="#4cafef" stroke-width="3" d="M907.1263,-381.8784C907.1263,-381.8784 866.7049,-381.8784 866.7049,-381.8784 860.7049,-381.8784 854.7049,-375.8784 854.7049,-369.8784 854.7049,-369.8784 854.7049,-357.8784 854.7049,-357.8784 854.7049,-351.8784 860.7049,-345.8784 866.7049,-345.8784 866.7049,-345.8784 907.1263,-345.8784 907.1263,-345.8784 913.1263,-345.8784 919.1263,-351.8784 919.1263,-357.8784 919.1263,-357.8784 919.1263,-369.8784 919.1263,-369.8784 919.1263,-375.8784 913.1263,-381.8784 907.1263,-381.8784"></path>
<text text-anchor="middle" x="886.9156" y="-359.6784" font-family="Times,serif" font-size="14.00" fill="#000000">provides</text>
</g>
<!-- system&#45;settings -->
<g id="node4" class="node">
<title>system-settings</title>
<path fill="#4cafef" stroke="#4cafef" stroke-width="3" d="M233.1079,-1788.8784C233.1079,-1788.8784 154.4645,-1788.8784 154.4645,-1788.8784 148.4645,-1788.8784 142.4645,-1782.8784 142.4645,-1776.8784 142.4645,-1776.8784 142.4645,-1764.8784 142.4645,-1764.8784 142.4645,-1758.8784 148.4645,-1752.8784 154.4645,-1752.8784 154.4645,-1752.8784 233.1079,-1752.8784 233.1079,-1752.8784 239.1079,-1752.8784 245.1079,-1758.8784 245.1079,-1764.8784 245.1079,-1764.8784 245.1079,-1776.8784 245.1079,-1776.8784 245.1079,-1782.8784 239.1079,-1788.8784 233.1079,-1788.8784"></path>
<text text-anchor="middle" x="193.7862" y="-1766.6784" font-family="Times,serif" font-size="14.00" fill="#000000">system-settings</text>
</g>
<!-- jobs -->
<g id="node5" class="node">
<title>jobs</title>
<path fill="#4cafef" stroke="#4cafef" stroke-width="3" d="M208.7862,-1734.8784C208.7862,-1734.8784 178.7862,-1734.8784 178.7862,-1734.8784 172.7862,-1734.8784 166.7862,-1728.8784 166.7862,-1722.8784 166.7862,-1722.8784 166.7862,-1710.8784 166.7862,-1710.8784 166.7862,-1704.8784 172.7862,-1698.8784 178.7862,-1698.8784 178.7862,-1698.8784 208.7862,-1698.8784 208.7862,-1698.8784 214.7862,-1698.8784 220.7862,-1704.8784 220.7862,-1710.8784 220.7862,-1710.8784 220.7862,-1722.8784 220.7862,-1722.8784 220.7862,-1728.8784 214.7862,-1734.8784 208.7862,-1734.8784"></path>
<text text-anchor="middle" x="193.7862" y="-1712.6784" font-family="Times,serif" font-size="14.00" fill="#000000">jobs</text>
</g>
<!-- email -->
<g id="node6" class="node">
<title>email</title>
<path fill="#4cafef" stroke="#4cafef" stroke-width="3" d="M208.7862,-1626.8784C208.7862,-1626.8784 178.7862,-1626.8784 178.7862,-1626.8784 172.7862,-1626.8784 166.7862,-1620.8784 166.7862,-1614.8784 166.7862,-1614.8784 166.7862,-1602.8784 166.7862,-1602.8784 166.7862,-1596.8784 172.7862,-1590.8784 178.7862,-1590.8784 178.7862,-1590.8784 208.7862,-1590.8784 208.7862,-1590.8784 214.7862,-1590.8784 220.7862,-1596.8784 220.7862,-1602.8784 220.7862,-1602.8784 220.7862,-1614.8784 220.7862,-1614.8784 220.7862,-1620.8784 214.7862,-1626.8784 208.7862,-1626.8784"></path>
<text text-anchor="middle" x="193.7862" y="-1604.6784" font-family="Times,serif" font-size="14.00" fill="#000000">email</text>
</g>
<!-- state -->
<g id="node7" class="node">
<title>state</title>
<path fill="#4cafef" stroke="#4cafef" stroke-width="3" d="M208.7862,-1680.8784C208.7862,-1680.8784 178.7862,-1680.8784 178.7862,-1680.8784 172.7862,-1680.8784 166.7862,-1674.8784 166.7862,-1668.8784 166.7862,-1668.8784 166.7862,-1656.8784 166.7862,-1656.8784 166.7862,-1650.8784 172.7862,-1644.8784 178.7862,-1644.8784 178.7862,-1644.8784 208.7862,-1644.8784 208.7862,-1644.8784 214.7862,-1644.8784 220.7862,-1650.8784 220.7862,-1656.8784 220.7862,-1656.8784 220.7862,-1668.8784 220.7862,-1668.8784 220.7862,-1674.8784 214.7862,-1680.8784 208.7862,-1680.8784"></path>
<text text-anchor="middle" x="193.7862" y="-1658.6784" font-family="Times,serif" font-size="14.00" fill="#000000">state</text>
</g>
<!-- error -->
<g id="node8" class="node">
<title>error</title>
<path fill="#4cafef" stroke="#4cafef" stroke-width="3" d="M76.3128,-1084.8784C76.3128,-1084.8784 46.3128,-1084.8784 46.3128,-1084.8784 40.3128,-1084.8784 34.3128,-1078.8784 34.3128,-1072.8784 34.3128,-1072.8784 34.3128,-1060.8784 34.3128,-1060.8784 34.3128,-1054.8784 40.3128,-1048.8784 46.3128,-1048.8784 46.3128,-1048.8784 76.3128,-1048.8784 76.3128,-1048.8784 82.3128,-1048.8784 88.3128,-1054.8784 88.3128,-1060.8784 88.3128,-1060.8784 88.3128,-1072.8784 88.3128,-1072.8784 88.3128,-1078.8784 82.3128,-1084.8784 76.3128,-1084.8784"></path>
<text text-anchor="middle" x="61.3128" y="-1062.6784" font-family="Times,serif" font-size="14.00" fill="#000000">error</text>
</g>
<!-- page -->
<g id="node9" class="node">
<title>page</title>
<path fill="#4cafef" stroke="#4cafef" stroke-width="3" d="M76.3128,-1192.8784C76.3128,-1192.8784 46.3128,-1192.8784 46.3128,-1192.8784 40.3128,-1192.8784 34.3128,-1186.8784 34.3128,-1180.8784 34.3128,-1180.8784 34.3128,-1168.8784 34.3128,-1168.8784 34.3128,-1162.8784 40.3128,-1156.8784 46.3128,-1156.8784 46.3128,-1156.8784 76.3128,-1156.8784 76.3128,-1156.8784 82.3128,-1156.8784 88.3128,-1162.8784 88.3128,-1168.8784 88.3128,-1168.8784 88.3128,-1180.8784 88.3128,-1180.8784 88.3128,-1186.8784 82.3128,-1192.8784 76.3128,-1192.8784"></path>
<text text-anchor="middle" x="61.3128" y="-1170.6784" font-family="Times,serif" font-size="14.00" fill="#000000">page</text>
</g>
<!-- user&#45;menu -->
<g id="node10" class="node">
<title>user-menu</title>
<path fill="#4cafef" stroke="#4cafef" stroke-width="3" d="M86.8984,-1138.8784C86.8984,-1138.8784 35.7272,-1138.8784 35.7272,-1138.8784 29.7272,-1138.8784 23.7272,-1132.8784 23.7272,-1126.8784 23.7272,-1126.8784 23.7272,-1114.8784 23.7272,-1114.8784 23.7272,-1108.8784 29.7272,-1102.8784 35.7272,-1102.8784 35.7272,-1102.8784 86.8984,-1102.8784 86.8984,-1102.8784 92.8984,-1102.8784 98.8984,-1108.8784 98.8984,-1114.8784 98.8984,-1114.8784 98.8984,-1126.8784 98.8984,-1126.8784 98.8984,-1132.8784 92.8984,-1138.8784 86.8984,-1138.8784"></path>
<text text-anchor="middle" x="61.3128" y="-1116.6784" font-family="Times,serif" font-size="14.00" fill="#000000">user-menu</text>
</g>
<!-- group&#45;header -->
<g id="node11" class="node">
<title>group-header</title>
<path fill="#4cafef" stroke="#4cafef" stroke-width="3" d="M94.4392,-1030.8784C94.4392,-1030.8784 28.1864,-1030.8784 28.1864,-1030.8784 22.1864,-1030.8784 16.1864,-1024.8784 16.1864,-1018.8784 16.1864,-1018.8784 16.1864,-1006.8784 16.1864,-1006.8784 16.1864,-1000.8784 22.1864,-994.8784 28.1864,-994.8784 28.1864,-994.8784 94.4392,-994.8784 94.4392,-994.8784 100.4392,-994.8784 106.4392,-1000.8784 106.4392,-1006.8784 106.4392,-1006.8784 106.4392,-1018.8784 106.4392,-1018.8784 106.4392,-1024.8784 100.4392,-1030.8784 94.4392,-1030.8784"></path>
<text text-anchor="middle" x="61.3128" y="-1008.6784" font-family="Times,serif" font-size="14.00" fill="#000000">group-header</text>
</g>
<!-- inbox -->
<g id="node12" class="node">
<title>inbox</title>
<polygon fill="#4cafef" stroke="#4cafef" stroke-width="3" points="372.6944,-862.8784 318.6944,-862.8784 318.6944,-826.8784 372.6944,-826.8784 372.6944,-862.8784"></polygon>
<text text-anchor="middle" x="345.6944" y="-840.6784" font-family="Times,serif" font-size="14.00" fill="#000000">inbox</text>
</g>
<!-- inbox&#45;&gt;group&#45;header -->
<g id="edge1" class="edge">
<title>inbox-&gt;group-header</title>
<path fill="none" stroke="#000000" d="M318.5051,-850.3369C276.0472,-859.8668 192.8434,-882.6688 134.6256,-924.8784 111.5904,-941.5795 91.4023,-967.1025 78.0748,-986.3683"></path>
<polygon fill="#000000" stroke="#000000" points="75.1297,-984.4757 72.4485,-994.7257 80.9365,-988.3849 75.1297,-984.4757"></polygon>
</g>
<!-- group&#45;page -->
<g id="node19" class="node">
<title>group-page</title>
<path fill="#4cafef" stroke="#4cafef" stroke-width="3" d="M221.537,-992.8784C221.537,-992.8784 166.0354,-992.8784 166.0354,-992.8784 160.0354,-992.8784 154.0354,-986.8784 154.0354,-980.8784 154.0354,-980.8784 154.0354,-968.8784 154.0354,-968.8784 154.0354,-962.8784 160.0354,-956.8784 166.0354,-956.8784 166.0354,-956.8784 221.537,-956.8784 221.537,-956.8784 227.537,-956.8784 233.537,-962.8784 233.537,-968.8784 233.537,-968.8784 233.537,-980.8784 233.537,-980.8784 233.537,-986.8784 227.537,-992.8784 221.537,-992.8784"></path>
<text text-anchor="middle" x="193.7862" y="-970.6784" font-family="Times,serif" font-size="14.00" fill="#000000">group-page</text>
</g>
<!-- inbox&#45;&gt;group&#45;page -->
<g id="edge2" class="edge">
<title>inbox-&gt;group-page</title>
<path fill="none" stroke="#000000" d="M318.456,-853.3384C304.03,-858.6525 286.5373,-866.4851 272.9468,-876.8784 246.9888,-896.7296 224.3658,-926.7918 210.0273,-948.3836"></path>
<polygon fill="#000000" stroke="#000000" points="207.0889,-946.4821 204.5855,-956.7769 212.9625,-950.2902 207.0889,-946.4821"></polygon>
</g>
<!-- autocomplete -->
<g id="node13" class="node">
<title>autocomplete</title>
<path fill="#4cafef" stroke="#4cafef" stroke-width="3" d="M379.6162,-477.8784C379.6162,-477.8784 311.7726,-477.8784 311.7726,-477.8784 305.7726,-477.8784 299.7726,-471.8784 299.7726,-465.8784 299.7726,-465.8784 299.7726,-453.8784 299.7726,-453.8784 299.7726,-447.8784 305.7726,-441.8784 311.7726,-441.8784 311.7726,-441.8784 379.6162,-441.8784 379.6162,-441.8784 385.6162,-441.8784 391.6162,-447.8784 391.6162,-453.8784 391.6162,-453.8784 391.6162,-465.8784 391.6162,-465.8784 391.6162,-471.8784 385.6162,-477.8784 379.6162,-477.8784"></path>
<text text-anchor="middle" x="345.6944" y="-455.6784" font-family="Times,serif" font-size="14.00" fill="#000000">autocomplete</text>
</g>
<!-- message&#45;render -->
<g id="node14" class="node">
<title>message-render</title>
<path fill="#4cafef" stroke="#4cafef" stroke-width="3" d="M385.5291,-531.8784C385.5291,-531.8784 305.8597,-531.8784 305.8597,-531.8784 299.8597,-531.8784 293.8597,-525.8784 293.8597,-519.8784 293.8597,-519.8784 293.8597,-507.8784 293.8597,-507.8784 293.8597,-501.8784 299.8597,-495.8784 305.8597,-495.8784 305.8597,-495.8784 385.5291,-495.8784 385.5291,-495.8784 391.5291,-495.8784 397.5291,-501.8784 397.5291,-507.8784 397.5291,-507.8784 397.5291,-519.8784 397.5291,-519.8784 397.5291,-525.8784 391.5291,-531.8784 385.5291,-531.8784"></path>
<text text-anchor="middle" x="345.6944" y="-509.6784" font-family="Times,serif" font-size="14.00" fill="#000000">message-render</text>
</g>
<!-- message&#45;footer&#45;ui -->
<g id="node15" class="node">
<title>message-footer-ui</title>
<path fill="none" stroke="#4cafef" stroke-width="3" d="M392.2562,-693.8784C392.2562,-693.8784 299.1326,-693.8784 299.1326,-693.8784 293.1326,-693.8784 287.1326,-687.8784 287.1326,-681.8784 287.1326,-681.8784 287.1326,-669.8784 287.1326,-669.8784 287.1326,-663.8784 293.1326,-657.8784 299.1326,-657.8784 299.1326,-657.8784 392.2562,-657.8784 392.2562,-657.8784 398.2562,-657.8784 404.2562,-663.8784 404.2562,-669.8784 404.2562,-669.8784 404.2562,-681.8784 404.2562,-681.8784 404.2562,-687.8784 398.2562,-693.8784 392.2562,-693.8784"></path>
<text text-anchor="middle" x="345.6944" y="-671.6784" font-family="Times,serif" font-size="14.00" fill="#000000">message-footer-ui</text>
</g>
<!-- compose&#45;actions -->
<g id="node16" class="node">
<title>compose-actions</title>
<path fill="none" stroke="#4cafef" stroke-width="3" d="M388.7744,-585.8784C388.7744,-585.8784 302.6144,-585.8784 302.6144,-585.8784 296.6144,-585.8784 290.6144,-579.8784 290.6144,-573.8784 290.6144,-573.8784 290.6144,-561.8784 290.6144,-561.8784 290.6144,-555.8784 296.6144,-549.8784 302.6144,-549.8784 302.6144,-549.8784 388.7744,-549.8784 388.7744,-549.8784 394.7744,-549.8784 400.7744,-555.8784 400.7744,-561.8784 400.7744,-561.8784 400.7744,-573.8784 400.7744,-573.8784 400.7744,-579.8784 394.7744,-585.8784 388.7744,-585.8784"></path>
<text text-anchor="middle" x="345.6944" y="-563.6784" font-family="Times,serif" font-size="14.00" fill="#000000">compose-actions</text>
</g>
<!-- conversation&#45;header -->
<g id="node17" class="node">
<title>conversation-header</title>
<path fill="#4cafef" stroke="#4cafef" stroke-width="3" d="M398.6906,-747.8784C398.6906,-747.8784 292.6982,-747.8784 292.6982,-747.8784 286.6982,-747.8784 280.6982,-741.8784 280.6982,-735.8784 280.6982,-735.8784 280.6982,-723.8784 280.6982,-723.8784 280.6982,-717.8784 286.6982,-711.8784 292.6982,-711.8784 292.6982,-711.8784 398.6906,-711.8784 398.6906,-711.8784 404.6906,-711.8784 410.6906,-717.8784 410.6906,-723.8784 410.6906,-723.8784 410.6906,-735.8784 410.6906,-735.8784 410.6906,-741.8784 404.6906,-747.8784 398.6906,-747.8784"></path>
<text text-anchor="middle" x="345.6944" y="-725.6784" font-family="Times,serif" font-size="14.00" fill="#000000">conversation-header</text>
</g>
<!-- message&#45;preprocess -->
<g id="node18" class="node">
<title>message-preprocess</title>
<path fill="#4cafef" stroke="#4cafef" stroke-width="3" d="M397.6328,-639.8784C397.6328,-639.8784 293.756,-639.8784 293.756,-639.8784 287.756,-639.8784 281.756,-633.8784 281.756,-627.8784 281.756,-627.8784 281.756,-615.8784 281.756,-615.8784 281.756,-609.8784 287.756,-603.8784 293.756,-603.8784 293.756,-603.8784 397.6328,-603.8784 397.6328,-603.8784 403.6328,-603.8784 409.6328,-609.8784 409.6328,-615.8784 409.6328,-615.8784 409.6328,-627.8784 409.6328,-627.8784 409.6328,-633.8784 403.6328,-639.8784 397.6328,-639.8784"></path>
<text text-anchor="middle" x="345.6944" y="-617.6784" font-family="Times,serif" font-size="14.00" fill="#000000">message-preprocess</text>
</g>
<!-- group&#45;page&#45;&gt;page -->
<g id="edge3" class="edge">
<title>group-page-&gt;page</title>
<path fill="none" stroke="#000000" d="M189.7234,-993.0689C181.2431,-1027.3165 158.6847,-1102.0365 114.6256,-1147.8784 109.7953,-1152.9041 103.8282,-1157.1517 97.6537,-1160.6832"></path>
<polygon fill="#000000" stroke="#000000" points="95.862,-1157.6688 88.5673,-1165.3524 99.0614,-1163.8949 95.862,-1157.6688"></polygon>
</g>
<!-- conversations -->
<g id="node20" class="node">
<title>conversations</title>
<path fill="#4cafef" stroke="#4cafef" stroke-width="3" d="M559.2703,-1306.8784C559.2703,-1306.8784 490.3207,-1306.8784 490.3207,-1306.8784 484.3207,-1306.8784 478.3207,-1300.8784 478.3207,-1294.8784 478.3207,-1294.8784 478.3207,-1282.8784 478.3207,-1282.8784 478.3207,-1276.8784 484.3207,-1270.8784 490.3207,-1270.8784 490.3207,-1270.8784 559.2703,-1270.8784 559.2703,-1270.8784 565.2703,-1270.8784 571.2703,-1276.8784 571.2703,-1282.8784 571.2703,-1282.8784 571.2703,-1294.8784 571.2703,-1294.8784 571.2703,-1300.8784 565.2703,-1306.8784 559.2703,-1306.8784"></path>
<text text-anchor="middle" x="524.7955" y="-1284.6784" font-family="Times,serif" font-size="14.00" fill="#000000">conversations</text>
</g>
<!-- conversations&#45;&gt;state -->
<g id="edge7" class="edge">
<title>conversations-&gt;state</title>
<path fill="none" stroke="#000000" d="M517.9295,-1307.2726C495.9415,-1366.0097 428.1351,-1545.7655 418.442,-1554.8784 368.8312,-1601.5193 326.222,-1560.4712 272.9468,-1602.8784 259.5287,-1613.5592 265.7603,-1624.4794 252.9468,-1635.8784 246.3383,-1641.7573 238.2339,-1646.5667 230.1682,-1650.4105"></path>
<polygon fill="#000000" stroke="#000000" points="228.5807,-1647.2843 220.8094,-1654.4855 231.3752,-1653.7023 228.5807,-1647.2843"></polygon>
</g>
<!-- conversations&#45;&gt;error -->
<g id="edge5" class="edge">
<title>conversations-&gt;error</title>
<path fill="none" stroke="#000000" d="M515.248,-1270.579C500.3507,-1241.9493 470.7619,-1184.7773 446.442,-1135.8784 433.6951,-1110.2488 442.4492,-1093.4673 418.442,-1077.8784 366.6608,-1044.2545 179.4728,-1056.2706 98.7685,-1063.2789"></path>
<polygon fill="#000000" stroke="#000000" points="98.214,-1059.8144 88.564,-1064.188 98.8352,-1066.7867 98.214,-1059.8144"></polygon>
</g>
<!-- users -->
<g id="node22" class="node">
<title>users</title>
<path fill="#4cafef" stroke="#4cafef" stroke-width="3" d="M360.6944,-1680.8784C360.6944,-1680.8784 330.6944,-1680.8784 330.6944,-1680.8784 324.6944,-1680.8784 318.6944,-1674.8784 318.6944,-1668.8784 318.6944,-1668.8784 318.6944,-1656.8784 318.6944,-1656.8784 318.6944,-1650.8784 324.6944,-1644.8784 330.6944,-1644.8784 330.6944,-1644.8784 360.6944,-1644.8784 360.6944,-1644.8784 366.6944,-1644.8784 372.6944,-1650.8784 372.6944,-1656.8784 372.6944,-1656.8784 372.6944,-1668.8784 372.6944,-1668.8784 372.6944,-1674.8784 366.6944,-1680.8784 360.6944,-1680.8784"></path>
<text text-anchor="middle" x="345.6944" y="-1658.6784" font-family="Times,serif" font-size="14.00" fill="#000000">users</text>
</g>
<!-- conversations&#45;&gt;users -->
<g id="edge6" class="edge">
<title>conversations-&gt;users</title>
<path fill="none" stroke="#000000" d="M521.5379,-1306.9641C512.0597,-1356.1573 481.1091,-1495.2361 418.442,-1592.8784 407.4988,-1609.9291 391.6059,-1625.8538 377.4644,-1638.1929"></path>
<polygon fill="#000000" stroke="#000000" points="375.1959,-1635.5275 369.8307,-1644.6635 379.7222,-1640.8673 375.1959,-1635.5275"></polygon>
</g>
<!-- notifications -->
<g id="node24" class="node">
<title>notifications</title>
<path fill="#4cafef" stroke="#4cafef" stroke-width="3" d="M376.6818,-1306.8784C376.6818,-1306.8784 314.707,-1306.8784 314.707,-1306.8784 308.707,-1306.8784 302.707,-1300.8784 302.707,-1294.8784 302.707,-1294.8784 302.707,-1282.8784 302.707,-1282.8784 302.707,-1276.8784 308.707,-1270.8784 314.707,-1270.8784 314.707,-1270.8784 376.6818,-1270.8784 376.6818,-1270.8784 382.6818,-1270.8784 388.6818,-1276.8784 388.6818,-1282.8784 388.6818,-1282.8784 388.6818,-1294.8784 388.6818,-1294.8784 388.6818,-1300.8784 382.6818,-1306.8784 376.6818,-1306.8784"></path>
<text text-anchor="middle" x="345.6944" y="-1284.6784" font-family="Times,serif" font-size="14.00" fill="#000000">notifications</text>
</g>
<!-- conversations&#45;&gt;notifications -->
<g id="edge4" class="edge">
<title>conversations-&gt;notifications</title>
<path fill="none" stroke="#000000" d="M478.2063,-1288.8784C453.975,-1288.8784 424.2438,-1288.8784 399.0876,-1288.8784"></path>
<polygon fill="#000000" stroke="#000000" points="398.9767,-1285.3785 388.9766,-1288.8784 398.9766,-1292.3785 398.9767,-1285.3785"></polygon>
</g>
<!-- groups -->
<g id="node21" class="node">
<title>groups</title>
<polygon fill="#4cafef" stroke="#4cafef" stroke-width="3" points="372.7997,-1734.8784 318.5891,-1734.8784 318.5891,-1698.8784 372.7997,-1698.8784 372.7997,-1734.8784"></polygon>
<text text-anchor="middle" x="345.6944" y="-1712.6784" font-family="Times,serif" font-size="14.00" fill="#000000">groups</text>
</g>
<!-- groups&#45;&gt;state -->
<g id="edge8" class="edge">
<title>groups-&gt;state</title>
<path fill="none" stroke="#000000" d="M318.5363,-1707.2242C293.9863,-1698.4973 257.6418,-1685.5776 230.5065,-1675.9316"></path>
<polygon fill="#000000" stroke="#000000" points="231.5596,-1672.5915 220.9649,-1672.5398 229.2149,-1679.1871 231.5596,-1672.5915"></polygon>
</g>
<!-- users&#45;&gt;state -->
<g id="edge9" class="edge">
<title>users-&gt;state</title>
<path fill="none" stroke="#000000" d="M318.5363,-1662.8784C294.2016,-1662.8784 258.2785,-1662.8784 231.2227,-1662.8784"></path>
<polygon fill="#000000" stroke="#000000" points="230.9649,-1659.3785 220.9649,-1662.8784 230.9648,-1666.3785 230.9649,-1659.3785"></polygon>
</g>
<!-- new&#45;group&#45;creation&#45;flow -->
<g id="node23" class="node">
<title>new-group-creation-flow</title>
<polygon fill="#4cafef" stroke="#4cafef" stroke-width="3" points="603.0028,-1624.8784 446.5882,-1624.8784 446.5882,-1588.8784 603.0028,-1588.8784 603.0028,-1624.8784"></polygon>
<text text-anchor="middle" x="524.7955" y="-1602.6784" font-family="Times,serif" font-size="14.00" fill="#000000">new-group-creation-flow</text>
</g>
<!-- new&#45;group&#45;creation&#45;flow&#45;&gt;page -->
<g id="edge11" class="edge">
<title>new-group-creation-flow-&gt;page</title>
<path fill="none" stroke="#000000" d="M518.4167,-1588.6999C505.1571,-1553.3782 471.373,-1474.9927 418.442,-1429.8784 314.9858,-1341.7002 235.3183,-1407.1995 134.6256,-1315.8784 100.4731,-1284.9045 79.6688,-1234.2868 69.3388,-1202.8694"></path>
<polygon fill="#000000" stroke="#000000" points="72.5752,-1201.4939 66.233,-1193.007 65.8984,-1203.5965 72.5752,-1201.4939"></polygon>
</g>
<!-- new&#45;group&#45;creation&#45;flow&#45;&gt;groups -->
<g id="edge12" class="edge">
<title>new-group-creation-flow-&gt;groups</title>
<path fill="none" stroke="#000000" d="M503.1902,-1625.0253C477.5071,-1646.3646 435.9284,-1680.1193 418.442,-1689.8784 407.2298,-1696.1358 394.2824,-1701.4765 382.4461,-1705.7156"></path>
<polygon fill="#000000" stroke="#000000" points="381.1518,-1702.4593 372.8274,-1709.0134 383.422,-1709.081 381.1518,-1702.4593"></polygon>
</g>
<!-- new&#45;group&#45;creation&#45;flow&#45;&gt;users -->
<g id="edge10" class="edge">
<title>new-group-creation-flow-&gt;users</title>
<path fill="none" stroke="#000000" d="M467.1409,-1624.9054C439.4589,-1633.5608 407.0994,-1643.6787 382.7469,-1651.2931"></path>
<polygon fill="#000000" stroke="#000000" points="381.6701,-1647.9626 373.1703,-1654.2874 383.7592,-1654.6436 381.6701,-1647.9626"></polygon>
</g>
<!-- user&#45;settings -->
<g id="node25" class="node">
<title>user-settings</title>
<path fill="#4cafef" stroke="#4cafef" stroke-width="3" d="M225.0425,-1306.8784C225.0425,-1306.8784 162.5299,-1306.8784 162.5299,-1306.8784 156.5299,-1306.8784 150.5299,-1300.8784 150.5299,-1294.8784 150.5299,-1294.8784 150.5299,-1282.8784 150.5299,-1282.8784 150.5299,-1276.8784 156.5299,-1270.8784 162.5299,-1270.8784 162.5299,-1270.8784 225.0425,-1270.8784 225.0425,-1270.8784 231.0425,-1270.8784 237.0425,-1276.8784 237.0425,-1282.8784 237.0425,-1282.8784 237.0425,-1294.8784 237.0425,-1294.8784 237.0425,-1300.8784 231.0425,-1306.8784 225.0425,-1306.8784"></path>
<text text-anchor="middle" x="193.7862" y="-1284.6784" font-family="Times,serif" font-size="14.00" fill="#000000">user-settings</text>
</g>
<!-- notifications&#45;&gt;user&#45;settings -->
<g id="edge13" class="edge">
<title>notifications-&gt;user-settings</title>
<path fill="none" stroke="#000000" d="M302.5699,-1288.8784C285.4053,-1288.8784 265.4708,-1288.8784 247.391,-1288.8784"></path>
<polygon fill="#000000" stroke="#000000" points="247.2821,-1285.3785 237.282,-1288.8784 247.282,-1292.3785 247.2821,-1285.3785"></polygon>
</g>
<!-- user&#45;settings&#45;&gt;page -->
<g id="edge15" class="edge">
<title>user-settings-&gt;page</title>
<path fill="none" stroke="#000000" d="M172.7954,-1270.8147C150.5441,-1251.6664 115.2435,-1221.2885 90.336,-1199.8543"></path>
<polygon fill="#000000" stroke="#000000" points="92.5069,-1197.1049 82.6441,-1193.235 87.9409,-1202.4107 92.5069,-1197.1049"></polygon>
</g>
<!-- user&#45;settings&#45;&gt;user&#45;menu -->
<g id="edge14" class="edge">
<title>user-settings-&gt;user-menu</title>
<path fill="none" stroke="#000000" d="M172.0164,-1270.8063C159.3615,-1259.1972 144.0918,-1243.104 134.6256,-1225.8784 117.3897,-1194.5142 137.0315,-1175.7847 114.6256,-1147.8784 112.5146,-1145.2491 110.0803,-1142.8522 107.4389,-1140.6712"></path>
<polygon fill="#000000" stroke="#000000" points="109.2061,-1137.6356 99.0093,-1134.7587 105.1864,-1143.3665 109.2061,-1137.6356"></polygon>
</g>
<!-- group&#45;settings -->
<g id="node26" class="node">
<title>group-settings</title>
<path fill="#4cafef" stroke="#4cafef" stroke-width="3" d="M381.7912,-954.8784C381.7912,-954.8784 309.5976,-954.8784 309.5976,-954.8784 303.5976,-954.8784 297.5976,-948.8784 297.5976,-942.8784 297.5976,-942.8784 297.5976,-930.8784 297.5976,-930.8784 297.5976,-924.8784 303.5976,-918.8784 309.5976,-918.8784 309.5976,-918.8784 381.7912,-918.8784 381.7912,-918.8784 387.7912,-918.8784 393.7912,-924.8784 393.7912,-930.8784 393.7912,-930.8784 393.7912,-942.8784 393.7912,-942.8784 393.7912,-948.8784 387.7912,-954.8784 381.7912,-954.8784"></path>
<text text-anchor="middle" x="345.6944" y="-932.6784" font-family="Times,serif" font-size="14.00" fill="#000000">group-settings</text>
</g>
<!-- group&#45;settings&#45;&gt;group&#45;header -->
<g id="edge16" class="edge">
<title>group-settings-&gt;group-header</title>
<path fill="none" stroke="#000000" d="M297.6338,-930.5981C253.5317,-926.8369 187.2576,-926.3225 134.6256,-947.8784 114.172,-956.2553 95.5943,-972.8742 82.2577,-987.2102"></path>
<polygon fill="#000000" stroke="#000000" points="79.4633,-985.0845 75.409,-994.8729 84.6825,-989.7493 79.4633,-985.0845"></polygon>
</g>
<!-- group&#45;settings&#45;&gt;group&#45;page -->
<g id="edge17" class="edge">
<title>group-settings-&gt;group-page</title>
<path fill="none" stroke="#000000" d="M297.6297,-948.9018C280.4815,-953.1914 261.1308,-958.032 243.8209,-962.3621"></path>
<polygon fill="#000000" stroke="#000000" points="242.7487,-959.0224 233.897,-964.8446 244.4475,-965.8132 242.7487,-959.0224"></polygon>
</g>
<!-- emoji -->
<g id="node27" class="node">
<title>emoji</title>
<path fill="#4cafef" stroke="#4cafef" stroke-width="3" d="M539.7955,-612.8784C539.7955,-612.8784 509.7955,-612.8784 509.7955,-612.8784 503.7955,-612.8784 497.7955,-606.8784 497.7955,-600.8784 497.7955,-600.8784 497.7955,-588.8784 497.7955,-588.8784 497.7955,-582.8784 503.7955,-576.8784 509.7955,-576.8784 509.7955,-576.8784 539.7955,-576.8784 539.7955,-576.8784 545.7955,-576.8784 551.7955,-582.8784 551.7955,-588.8784 551.7955,-588.8784 551.7955,-600.8784 551.7955,-600.8784 551.7955,-606.8784 545.7955,-612.8784 539.7955,-612.8784"></path>
<text text-anchor="middle" x="524.7955" y="-590.6784" font-family="Times,serif" font-size="14.00" fill="#000000">emoji</text>
</g>
<!-- emoji&#45;&gt;autocomplete -->
<g id="edge18" class="edge">
<title>emoji-&gt;autocomplete</title>
<path fill="none" stroke="#000000" d="M497.6645,-591.611C480.9101,-588.2636 460.0816,-581.5047 446.442,-567.8784 419.4951,-540.9576 445.0702,-514.1144 418.442,-486.8784 413.5065,-481.8302 407.5431,-477.7174 401.1794,-474.3685"></path>
<polygon fill="#000000" stroke="#000000" points="402.1909,-470.9816 391.6427,-469.9887 399.2694,-477.3429 402.1909,-470.9816"></polygon>
</g>
<!-- emoji&#45;&gt;message&#45;render -->
<g id="edge19" class="edge">
<title>emoji-&gt;message-render</title>
<path fill="none" stroke="#000000" d="M497.764,-588.6939C482.0418,-584.3525 462.2698,-577.5723 446.442,-567.8784 431.6996,-558.8492 433.0771,-550.0804 418.442,-540.8784 414.8496,-538.6196 411.0398,-536.5078 407.1205,-534.5412"></path>
<polygon fill="#000000" stroke="#000000" points="408.3705,-531.2625 397.8276,-530.2148 405.416,-537.6084 408.3705,-531.2625"></polygon>
</g>
<!-- emoji&#45;&gt;group&#45;settings -->
<g id="edge20" class="edge">
<title>emoji-&gt;group-settings</title>
<path fill="none" stroke="#000000" d="M497.7192,-609.9701C480.0852,-621.3094 458.2381,-638.5298 446.442,-659.8784 400.4775,-743.0646 462.8725,-787.8628 418.442,-871.8784 410.0491,-887.7488 396.1342,-901.6207 382.7091,-912.428"></path>
<polygon fill="#000000" stroke="#000000" points="380.2705,-909.8875 374.4671,-918.7516 384.5315,-915.4413 380.2705,-909.8875"></polygon>
</g>
<!-- user&#45;mentions -->
<g id="node28" class="node">
<title>user-mentions</title>
<polygon fill="#4cafef" stroke="#4cafef" stroke-width="3" points="572.6074,-223.8784 476.9836,-223.8784 476.9836,-187.8784 572.6074,-187.8784 572.6074,-223.8784"></polygon>
<text text-anchor="middle" x="524.7955" y="-201.6784" font-family="Times,serif" font-size="14.00" fill="#000000">user-mentions</text>
</g>
<!-- user&#45;mentions&#45;&gt;autocomplete -->
<g id="edge21" class="edge">
<title>user-mentions-&gt;autocomplete</title>
<path fill="none" stroke="#000000" d="M477.0487,-215.4333C466.0261,-219.4024 455.0289,-224.9988 446.442,-232.8784 386.7818,-287.6243 360.4363,-384.2073 350.6331,-431.7844"></path>
<polygon fill="#000000" stroke="#000000" points="347.1788,-431.2118 348.6855,-441.699 354.0475,-432.5612 347.1788,-431.2118"></polygon>
</g>
<!-- user&#45;mentions&#45;&gt;message&#45;render -->
<g id="edge22" class="edge">
<title>user-mentions-&gt;message-render</title>
<path fill="none" stroke="#000000" d="M476.8416,-213.1384C465.2818,-217.1399 454.0784,-223.3256 446.442,-232.8784 375.5266,-321.5901 488.3085,-397.3382 418.442,-486.8784 415.1594,-491.0853 411.1511,-494.6367 406.7202,-497.6348"></path>
<polygon fill="#000000" stroke="#000000" points="404.7113,-494.7512 397.7581,-502.7452 408.1788,-500.8321 404.7113,-494.7512"></polygon>
</g>
<!-- tags -->
<g id="node29" class="node">
<title>tags</title>
<path fill="#4cafef" stroke="#4cafef" stroke-width="3" d="M726.297,-1509.8784C726.297,-1509.8784 696.297,-1509.8784 696.297,-1509.8784 690.297,-1509.8784 684.297,-1503.8784 684.297,-1497.8784 684.297,-1497.8784 684.297,-1485.8784 684.297,-1485.8784 684.297,-1479.8784 690.297,-1473.8784 696.297,-1473.8784 696.297,-1473.8784 726.297,-1473.8784 726.297,-1473.8784 732.297,-1473.8784 738.297,-1479.8784 738.297,-1485.8784 738.297,-1485.8784 738.297,-1497.8784 738.297,-1497.8784 738.297,-1503.8784 732.297,-1509.8784 726.297,-1509.8784"></path>
<text text-anchor="middle" x="711.297" y="-1487.6784" font-family="Times,serif" font-size="14.00" fill="#000000">tags</text>
</g>
<!-- tags&#45;&gt;state -->
<g id="edge24" class="edge">
<title>tags-&gt;state</title>
<path fill="none" stroke="#000000" d="M684.2433,-1499.7524C635.9087,-1514.0658 531.7885,-1546.0147 446.442,-1579.8784 433.6889,-1584.9385 431.2779,-1588.032 418.442,-1592.8784 355.3591,-1616.6962 337.2025,-1615.4347 272.9468,-1635.8784 259.0535,-1640.2987 243.8811,-1645.405 230.5702,-1649.9792"></path>
<polygon fill="#000000" stroke="#000000" points="229.1146,-1646.7791 220.8062,-1653.3533 231.401,-1653.3952 229.1146,-1646.7791"></polygon>
</g>
<!-- tags&#45;&gt;conversations -->
<g id="edge25" class="edge">
<title>tags-&gt;conversations</title>
<path fill="none" stroke="#000000" d="M690.8099,-1473.7012C676.0398,-1460.3283 655.8491,-1441.4883 639.149,-1423.8784 604.671,-1387.522 567.7009,-1342.6842 545.414,-1314.9358"></path>
<polygon fill="#000000" stroke="#000000" points="547.9672,-1312.5244 538.9877,-1306.9012 542.5006,-1316.8967 547.9672,-1312.5244"></polygon>
</g>
<!-- tags&#45;&gt;users -->
<g id="edge23" class="edge">
<title>tags-&gt;users</title>
<path fill="none" stroke="#000000" d="M703.4191,-1510.0281C688.7608,-1541.3527 654.0905,-1604.9785 603.149,-1633.8784 533.4244,-1673.4341 436.0022,-1671.9694 383.2404,-1667.4281"></path>
<polygon fill="#000000" stroke="#000000" points="383.2806,-1663.9163 372.9952,-1666.4581 382.6207,-1670.8852 383.2806,-1663.9163"></polygon>
</g>
<!-- tag&#45;mentions -->
<g id="node30" class="node">
<title>tag-mentions</title>
<polygon fill="#4cafef" stroke="#4cafef" stroke-width="3" points="931.5125,-566.8784 842.3187,-566.8784 842.3187,-530.8784 931.5125,-530.8784 931.5125,-566.8784"></polygon>
<text text-anchor="middle" x="886.9156" y="-544.6784" font-family="Times,serif" font-size="14.00" fill="#000000">tag-mentions</text>
</g>
<!-- tag&#45;mentions&#45;&gt;autocomplete -->
<g id="edge26" class="edge">
<title>tag-mentions-&gt;autocomplete</title>
<path fill="none" stroke="#000000" d="M842.3233,-542.4725C833.5167,-539.1792 825.2229,-534.2468 819.445,-526.8784 753.0305,-442.1815 862.3294,-117.102 783.445,-43.8784 665.1893,65.8913 544.3429,-50.6239 446.442,-178.8784 385.7125,-258.4367 359.2744,-377.8785 349.9511,-431.7505"></path>
<polygon fill="#000000" stroke="#000000" points="346.4979,-431.1806 348.3095,-441.6194 353.403,-432.3292 346.4979,-431.1806"></polygon>
</g>
<!-- tag&#45;mentions&#45;&gt;message&#45;render -->
<g id="edge28" class="edge">
<title>tag-mentions-&gt;message-render</title>
<path fill="none" stroke="#000000" d="M842.3239,-549.9866C792.1488,-550.1972 708.5835,-547.4142 639.149,-529.8784 622.1729,-525.591 620.2767,-517.5131 603.149,-513.8784 537.5641,-499.9603 460.4465,-502.3525 407.8278,-506.7197"></path>
<polygon fill="#000000" stroke="#000000" points="407.2965,-503.2528 397.6414,-507.6152 407.9096,-510.2259 407.2965,-503.2528"></polygon>
</g>
<!-- tag&#45;mentions&#45;&gt;tags -->
<g id="edge27" class="edge">
<title>tag-mentions-&gt;tags</title>
<path fill="none" stroke="#000000" d="M882.7168,-566.9627C870.7631,-619.1786 836.325,-774.8159 819.445,-905.8784 804.7054,-1020.3219 832.8218,-1319.5879 783.445,-1423.8784 775.2561,-1441.1744 760.572,-1456.2729 746.5789,-1467.8204"></path>
<polygon fill="#000000" stroke="#000000" points="744.1679,-1465.2639 738.4741,-1474.1988 748.497,-1470.7647 744.1679,-1465.2639"></polygon>
</g>
<!-- emoji&#45;one -->
<g id="node31" class="node">
<title>emoji-one</title>
<polygon fill="#4cafef" stroke="#4cafef" stroke-width="3" points="747.559,-612.8784 675.035,-612.8784 675.035,-576.8784 747.559,-576.8784 747.559,-612.8784"></polygon>
<text text-anchor="middle" x="711.297" y="-590.6784" font-family="Times,serif" font-size="14.00" fill="#000000">emoji-one</text>
</g>
<!-- emoji&#45;one&#45;&gt;emoji -->
<g id="edge29" class="edge">
<title>emoji-one-&gt;emoji</title>
<path fill="none" stroke="#000000" d="M674.8949,-594.8784C642.3724,-594.8784 594.9316,-594.8784 562.1284,-594.8784"></path>
<polygon fill="#000000" stroke="#000000" points="562.0299,-591.3785 552.0298,-594.8784 562.0298,-598.3785 562.0299,-591.3785"></polygon>
</g>
<!-- twemoji -->
<g id="node32" class="node">
<title>twemoji</title>
<polygon fill="none" stroke="#4cafef" stroke-width="3" points="742.1807,-666.8784 680.4133,-666.8784 680.4133,-630.8784 742.1807,-630.8784 742.1807,-666.8784"></polygon>
<text text-anchor="middle" x="711.297" y="-644.6784" font-family="Times,serif" font-size="14.00" fill="#000000">twemoji</text>
</g>
<!-- twemoji&#45;&gt;emoji -->
<g id="edge30" class="edge">
<title>twemoji-&gt;emoji</title>
<path fill="none" stroke="#000000" d="M680.0808,-639.84C647.4255,-630.3849 596.195,-615.5515 561.5931,-605.5328"></path>
<polygon fill="#000000" stroke="#000000" points="562.445,-602.1358 551.8661,-602.7164 560.4982,-608.8596 562.445,-602.1358"></polygon>
</g>
<!-- custom&#45;emoji -->
<g id="node33" class="node">
<title>custom-emoji</title>
<polygon fill="none" stroke="#4cafef" stroke-width="3" points="757.7844,-751.8784 664.8096,-751.8784 664.8096,-715.8784 757.7844,-715.8784 757.7844,-751.8784"></polygon>
<text text-anchor="middle" x="711.297" y="-729.6784" font-family="Times,serif" font-size="14.00" fill="#000000">custom-emoji</text>
</g>
<!-- custom&#45;emoji&#45;&gt;group&#45;settings -->
<g id="edge32" class="edge">
<title>custom-emoji-&gt;group-settings</title>
<path fill="none" stroke="#000000" d="M695.5539,-751.9973C680.5608,-769.5006 657.6067,-796.9511 639.149,-821.8784 621.9842,-845.0596 626.8289,-859.4083 603.149,-875.8784 543.6858,-917.2368 459.7966,-930.7888 404.133,-935.0979"></path>
<polygon fill="#000000" stroke="#000000" points="403.8121,-931.6117 394.0801,-935.7996 404.2996,-938.5947 403.8121,-931.6117"></polygon>
</g>
<!-- custom&#45;emoji&#45;&gt;emoji -->
<g id="edge31" class="edge">
<title>custom-emoji-&gt;emoji</title>
<path fill="none" stroke="#000000" d="M685.5528,-715.7691C671.1308,-705.0107 653.2643,-690.6212 639.149,-675.8784 620.4604,-656.3589 624.4568,-643.4991 603.149,-626.8784 591.0291,-617.4244 575.7309,-610.3535 561.8757,-605.2966"></path>
<polygon fill="#000000" stroke="#000000" points="562.7026,-601.8807 552.1081,-601.9652 560.4429,-608.506 562.7026,-601.8807"></polygon>
</g>
<!-- auth -->
<g id="node34" class="node">
<title>auth</title>
<path fill="#4cafef" stroke="#4cafef" stroke-width="3" d="M76.3128,-1714.8784C76.3128,-1714.8784 46.3128,-1714.8784 46.3128,-1714.8784 40.3128,-1714.8784 34.3128,-1708.8784 34.3128,-1702.8784 34.3128,-1702.8784 34.3128,-1690.8784 34.3128,-1690.8784 34.3128,-1684.8784 40.3128,-1678.8784 46.3128,-1678.8784 46.3128,-1678.8784 76.3128,-1678.8784 76.3128,-1678.8784 82.3128,-1678.8784 88.3128,-1684.8784 88.3128,-1690.8784 88.3128,-1690.8784 88.3128,-1702.8784 88.3128,-1702.8784 88.3128,-1708.8784 82.3128,-1714.8784 76.3128,-1714.8784"></path>
<text text-anchor="middle" x="61.3128" y="-1692.6784" font-family="Times,serif" font-size="14.00" fill="#000000">auth</text>
</g>
<!-- oauth -->
<g id="node35" class="node">
<title>oauth</title>
<path fill="#4cafef" stroke="#4cafef" stroke-width="3" d="M208.7862,-1929.8784C208.7862,-1929.8784 178.7862,-1929.8784 178.7862,-1929.8784 172.7862,-1929.8784 166.7862,-1923.8784 166.7862,-1917.8784 166.7862,-1917.8784 166.7862,-1905.8784 166.7862,-1905.8784 166.7862,-1899.8784 172.7862,-1893.8784 178.7862,-1893.8784 178.7862,-1893.8784 208.7862,-1893.8784 208.7862,-1893.8784 214.7862,-1893.8784 220.7862,-1899.8784 220.7862,-1905.8784 220.7862,-1905.8784 220.7862,-1917.8784 220.7862,-1917.8784 220.7862,-1923.8784 214.7862,-1929.8784 208.7862,-1929.8784"></path>
<text text-anchor="middle" x="193.7862" y="-1907.6784" font-family="Times,serif" font-size="14.00" fill="#000000">oauth</text>
</g>
<!-- oauth&#45;&gt;auth -->
<g id="edge33" class="edge">
<title>oauth-&gt;auth</title>
<path fill="none" stroke="#000000" d="M180.6279,-1893.7294C168.3202,-1876.53 149.635,-1849.8355 134.6256,-1825.8784 113.0661,-1791.4661 90.2591,-1750.5194 75.9162,-1724.1346"></path>
<polygon fill="#000000" stroke="#000000" points="78.8708,-1722.2405 71.0328,-1715.1119 72.7146,-1725.5724 78.8708,-1722.2405"></polygon>
</g>
<!-- google&#45;oauth -->
<g id="node36" class="node">
<title>google-oauth</title>
<polygon fill="none" stroke="#4cafef" stroke-width="3" points="390.5655,-1902.8784 300.8233,-1902.8784 300.8233,-1866.8784 390.5655,-1866.8784 390.5655,-1902.8784"></polygon>
<text text-anchor="middle" x="345.6944" y="-1880.6784" font-family="Times,serif" font-size="14.00" fill="#000000">google-oauth</text>
</g>
<!-- google&#45;oauth&#45;&gt;system&#45;settings -->
<g id="edge35" class="edge">
<title>google-oauth-&gt;system-settings</title>
<path fill="none" stroke="#000000" d="M300.7518,-1868.3827C291.1956,-1863.9923 281.4364,-1858.7956 272.9468,-1852.8784 250.626,-1837.3208 229.4458,-1814.8195 214.6203,-1797.3218"></path>
<polygon fill="#000000" stroke="#000000" points="216.9524,-1794.6509 207.8756,-1789.1863 211.5635,-1799.1186 216.9524,-1794.6509"></polygon>
</g>
<!-- google&#45;oauth&#45;&gt;oauth -->
<g id="edge34" class="edge">
<title>google-oauth-&gt;oauth</title>
<path fill="none" stroke="#000000" d="M300.5282,-1892.9061C278.3823,-1896.8423 252.0328,-1901.5257 231.0546,-1905.2543"></path>
<polygon fill="#000000" stroke="#000000" points="230.1611,-1901.8582 220.9279,-1907.0542 231.3861,-1908.7502 230.1611,-1901.8582"></polygon>
</g>
<!-- github&#45;oauth -->
<g id="node37" class="node">
<title>github-oauth</title>
<polygon fill="#4cafef" stroke="#4cafef" stroke-width="3" points="389.2426,-1956.8784 302.1462,-1956.8784 302.1462,-1920.8784 389.2426,-1920.8784 389.2426,-1956.8784"></polygon>
<text text-anchor="middle" x="345.6944" y="-1934.6784" font-family="Times,serif" font-size="14.00" fill="#000000">github-oauth</text>
</g>
<!-- github&#45;oauth&#45;&gt;system&#45;settings -->
<g id="edge37" class="edge">
<title>github-oauth-&gt;system-settings</title>
<path fill="none" stroke="#000000" d="M301.8149,-1928.2172C291.5697,-1924.2755 281.2412,-1918.9689 272.9468,-1911.8784 263.3076,-1903.6383 227.84,-1836.7883 207.8058,-1798.1683"></path>
<polygon fill="#000000" stroke="#000000" points="210.7725,-1796.2856 203.07,-1789.0108 204.5548,-1799.5011 210.7725,-1796.2856"></polygon>
</g>
<!-- github&#45;oauth&#45;&gt;oauth -->
<g id="edge36" class="edge">
<title>github-oauth-&gt;oauth</title>
<path fill="none" stroke="#000000" d="M301.7563,-1931.0688C279.3159,-1927.0803 252.3118,-1922.2806 230.9236,-1918.4791"></path>
<polygon fill="#000000" stroke="#000000" points="231.3779,-1915.0051 220.9197,-1916.701 230.1529,-1921.8971 231.3779,-1915.0051"></polygon>
</g>
<!-- facebook&#45;oauth -->
<g id="node38" class="node">
<title>facebook-oauth</title>
<polygon fill="none" stroke="#4cafef" stroke-width="3" points="397.2646,-2010.8784 294.1242,-2010.8784 294.1242,-1974.8784 397.2646,-1974.8784 397.2646,-2010.8784"></polygon>
<text text-anchor="middle" x="345.6944" y="-1988.6784" font-family="Times,serif" font-size="14.00" fill="#000000">facebook-oauth</text>
</g>
<!-- facebook&#45;oauth&#45;&gt;system&#45;settings -->
<g id="edge39" class="edge">
<title>facebook-oauth-&gt;system-settings</title>
<path fill="none" stroke="#000000" d="M294.0025,-1980.9511C286.1058,-1977.2139 278.6883,-1972.3104 272.9468,-1965.8784 248.2533,-1938.2153 266.0228,-1919.5775 252.9468,-1884.8784 241.2675,-1853.8855 223.2248,-1820.4796 210.1348,-1797.8946"></path>
<polygon fill="#000000" stroke="#000000" points="213.1174,-1796.0617 205.0359,-1789.2103 207.0809,-1799.6059 213.1174,-1796.0617"></polygon>
</g>
<!-- facebook&#45;oauth&#45;&gt;oauth -->
<g id="edge38" class="edge">
<title>facebook-oauth-&gt;oauth</title>
<path fill="none" stroke="#000000" d="M294.1387,-1975.5314C286.8997,-1972.5825 279.6487,-1969.3421 272.9468,-1965.8784 256.5466,-1957.4023 239.4904,-1946.128 225.4284,-1936.0741"></path>
<polygon fill="#000000" stroke="#000000" points="227.2375,-1933.0619 217.0924,-1930.0077 223.1185,-1938.7218 227.2375,-1933.0619"></polygon>
</g>
<!-- pass&#45;auth -->
<g id="node39" class="node">
<title>pass-auth</title>
<polygon fill="#4cafef" stroke="#4cafef" stroke-width="3" points="380.0641,-1474.8784 311.3247,-1474.8784 311.3247,-1438.8784 380.0641,-1438.8784 380.0641,-1474.8784"></polygon>
<text text-anchor="middle" x="345.6944" y="-1452.6784" font-family="Times,serif" font-size="14.00" fill="#000000">pass-auth</text>
</g>
<!-- pass&#45;auth&#45;&gt;state -->
<g id="edge41" class="edge">
<title>pass-auth-&gt;state</title>
<path fill="none" stroke="#000000" d="M310.9882,-1464.2753C297.0653,-1469.0067 282.1643,-1476.6473 272.9468,-1488.8784 233.2641,-1541.5351 292.2667,-1582.9501 252.9468,-1635.8784 247.2608,-1643.5322 238.8879,-1649.0746 230.2197,-1653.0656"></path>
<polygon fill="#000000" stroke="#000000" points="228.8055,-1649.8614 220.811,-1656.8139 231.3963,-1656.3643 228.8055,-1649.8614"></polygon>
</g>
<!-- pass&#45;auth&#45;&gt;user&#45;settings -->
<g id="edge42" class="edge">
<title>pass-auth-&gt;user-settings</title>
<path fill="none" stroke="#000000" d="M325.5858,-1438.801C310.5992,-1425.0295 289.885,-1405.3525 272.9468,-1386.8784 251.6074,-1363.6038 229.1598,-1335.4118 213.6411,-1315.2515"></path>
<polygon fill="#000000" stroke="#000000" points="216.2932,-1312.9577 207.4379,-1307.1409 210.733,-1317.2103 216.2932,-1312.9577"></polygon>
</g>
<!-- pass&#45;auth&#45;&gt;auth -->
<g id="edge40" class="edge">
<title>pass-auth-&gt;auth</title>
<path fill="none" stroke="#000000" d="M311.2388,-1469.897C266.053,-1488.3799 186.4495,-1525.9594 134.6256,-1578.8784 108.1407,-1605.9229 86.5745,-1644.1591 73.8508,-1669.6989"></path>
<polygon fill="#000000" stroke="#000000" points="70.643,-1668.2923 69.4155,-1678.8158 76.9376,-1671.3546 70.643,-1668.2923"></polygon>
</g>
<!-- email&#45;digest -->
<g id="node40" class="node">
<title>email-digest</title>
<polygon fill="#4cafef" stroke="#4cafef" stroke-width="3" points="753.9992,-1690.8784 668.5948,-1690.8784 668.5948,-1654.8784 753.9992,-1654.8784 753.9992,-1690.8784"></polygon>
<text text-anchor="middle" x="711.297" y="-1668.6784" font-family="Times,serif" font-size="14.00" fill="#000000">email-digest</text>
</g>
<!-- email&#45;digest&#45;&gt;jobs -->
<g id="edge44" class="edge">
<title>email-digest-&gt;jobs</title>
<path fill="none" stroke="#000000" d="M679.492,-1690.9043C658.3835,-1702.2502 629.764,-1716.4748 603.149,-1725.8784 523.7704,-1753.9243 502.104,-1758.4864 418.442,-1767.8784 354.1811,-1775.0923 331.5063,-1795.3062 272.9468,-1767.8784 260.3728,-1761.989 263.9826,-1752.3045 252.9468,-1743.8784 246.0457,-1738.6091 237.9518,-1734.0691 230.0045,-1730.2957"></path>
<polygon fill="#000000" stroke="#000000" points="231.3829,-1727.0782 220.8228,-1726.2204 228.5431,-1733.4763 231.3829,-1727.0782"></polygon>
</g>
<!-- email&#45;digest&#45;&gt;email -->
<g id="edge43" class="edge">
<title>email-digest-&gt;email</title>
<path fill="none" stroke="#000000" d="M682.7507,-1690.9028C606.5172,-1736.5244 395.6349,-1845.9324 272.9468,-1743.8784 235.4173,-1712.6606 282.9876,-1674.3564 252.9468,-1635.8784 247.1302,-1628.4282 238.791,-1622.9632 230.2011,-1618.9819"></path>
<polygon fill="#000000" stroke="#000000" points="231.4723,-1615.7207 220.8893,-1615.2202 228.8504,-1622.2111 231.4723,-1615.7207"></polygon>
</g>
<!-- email&#45;digest&#45;&gt;conversations -->
<g id="edge46" class="edge">
<title>email-digest-&gt;conversations</title>
<path fill="none" stroke="#000000" d="M702.5518,-1654.8723C672.64,-1593.2849 574.2777,-1390.7605 538.2086,-1316.4954"></path>
<polygon fill="#000000" stroke="#000000" points="541.256,-1314.7584 533.7388,-1307.2923 534.9593,-1317.8166 541.256,-1314.7584"></polygon>
</g>
<!-- email&#45;digest&#45;&gt;user&#45;settings -->
<g id="edge45" class="edge">
<title>email-digest-&gt;user-settings</title>
<path fill="none" stroke="#000000" d="M700.6124,-1654.6494C666.9699,-1598.9816 557.1783,-1430.0623 418.442,-1348.8784 361.2132,-1315.3899 336.7466,-1333.9394 272.9468,-1315.8784 264.4198,-1313.4645 255.4594,-1310.6669 246.7568,-1307.8059"></path>
<polygon fill="#000000" stroke="#000000" points="247.6715,-1304.4213 237.0777,-1304.5658 245.4494,-1311.0592 247.6715,-1304.4213"></polygon>
</g>
<!-- files -->
<g id="node41" class="node">
<title>files</title>
<path fill="#4cafef" stroke="#4cafef" stroke-width="3" d="M539.7955,-466.8784C539.7955,-466.8784 509.7955,-466.8784 509.7955,-466.8784 503.7955,-466.8784 497.7955,-460.8784 497.7955,-454.8784 497.7955,-454.8784 497.7955,-442.8784 497.7955,-442.8784 497.7955,-436.8784 503.7955,-430.8784 509.7955,-430.8784 509.7955,-430.8784 539.7955,-430.8784 539.7955,-430.8784 545.7955,-430.8784 551.7955,-436.8784 551.7955,-442.8784 551.7955,-442.8784 551.7955,-454.8784 551.7955,-454.8784 551.7955,-460.8784 545.7955,-466.8784 539.7955,-466.8784"></path>
<text text-anchor="middle" x="524.7955" y="-444.6784" font-family="Times,serif" font-size="14.00" fill="#000000">files</text>
</g>
<!-- files&#45;&gt;autocomplete -->
<g id="edge47" class="edge">
<title>files-&gt;autocomplete</title>
<path fill="none" stroke="#000000" d="M497.5939,-450.549C472.2515,-452.1055 433.6839,-454.4742 401.7534,-456.4353"></path>
<polygon fill="#000000" stroke="#000000" points="401.4113,-452.9497 391.6447,-457.0562 401.8405,-459.9365 401.4113,-452.9497"></polygon>
</g>
<!-- files&#45;&gt;compose&#45;actions -->
<g id="edge48" class="edge">
<title>files-&gt;compose-actions</title>
<path fill="none" stroke="#000000" d="M502.1296,-466.9344C486.2776,-479.7422 464.7513,-497.4975 446.442,-513.8784 433.5581,-525.4053 433.0771,-531.6763 418.442,-540.8784 415.7049,-542.5994 412.8416,-544.235 409.8999,-545.7861"></path>
<polygon fill="#000000" stroke="#000000" points="408.3374,-542.654 400.887,-550.1868 411.4087,-548.9442 408.3374,-542.654"></polygon>
</g>
<!-- dropbox -->
<g id="node42" class="node">
<title>dropbox</title>
<polygon fill="none" stroke="#4cafef" stroke-width="3" points="742.4585,-466.8784 680.1355,-466.8784 680.1355,-430.8784 742.4585,-430.8784 742.4585,-466.8784"></polygon>
<text text-anchor="middle" x="711.297" y="-444.6784" font-family="Times,serif" font-size="14.00" fill="#000000">dropbox</text>
</g>
<!-- dropbox&#45;&gt;files -->
<g id="edge49" class="edge">
<title>dropbox-&gt;files</title>
<path fill="none" stroke="#000000" d="M680.0808,-448.8784C647.5656,-448.8784 596.6345,-448.8784 562.0395,-448.8784"></path>
<polygon fill="#000000" stroke="#000000" points="561.8662,-445.3785 551.8661,-448.8784 561.8661,-452.3785 561.8662,-445.3785"></polygon>
</g>
<!-- s3 -->
<g id="node43" class="node">
<title>s3</title>
<polygon fill="#4cafef" stroke="#4cafef" stroke-width="3" points="738.297,-520.8784 684.297,-520.8784 684.297,-484.8784 738.297,-484.8784 738.297,-520.8784"></polygon>
<text text-anchor="middle" x="711.297" y="-498.6784" font-family="Times,serif" font-size="14.00" fill="#000000">s3</text>
</g>
<!-- s3&#45;&gt;files -->
<g id="edge50" class="edge">
<title>s3-&gt;files</title>
<path fill="none" stroke="#000000" d="M684.1781,-495.0263C651.8574,-485.6681 597.6993,-469.9871 561.613,-459.5386"></path>
<polygon fill="#000000" stroke="#000000" points="562.5261,-456.1592 551.9472,-456.7399 560.5792,-462.8831 562.5261,-456.1592"></polygon>
</g>
<!-- search -->
<g id="node44" class="node">
<title>search</title>
<path fill="#4cafef" stroke="#4cafef" stroke-width="3" d="M726.297,-1172.8784C726.297,-1172.8784 696.297,-1172.8784 696.297,-1172.8784 690.297,-1172.8784 684.297,-1166.8784 684.297,-1160.8784 684.297,-1160.8784 684.297,-1148.8784 684.297,-1148.8784 684.297,-1142.8784 690.297,-1136.8784 696.297,-1136.8784 696.297,-1136.8784 726.297,-1136.8784 726.297,-1136.8784 732.297,-1136.8784 738.297,-1142.8784 738.297,-1148.8784 738.297,-1148.8784 738.297,-1160.8784 738.297,-1160.8784 738.297,-1166.8784 732.297,-1172.8784 726.297,-1172.8784"></path>
<text text-anchor="middle" x="711.297" y="-1150.6784" font-family="Times,serif" font-size="14.00" fill="#000000">search</text>
</g>
<!-- search&#45;&gt;group&#45;header -->
<g id="edge51" class="edge">
<title>search-&gt;group-header</title>
<path fill="none" stroke="#000000" d="M684.1202,-1157.788C614.1622,-1164.3619 422.8569,-1176.5176 272.9468,-1131.8784 194.9488,-1108.6526 186.1391,-1078.7236 114.6256,-1039.8784 111.976,-1038.4391 109.2409,-1036.9787 106.4739,-1035.5205"></path>
<polygon fill="#000000" stroke="#000000" points="108.0797,-1032.4106 97.5933,-1030.899 104.8483,-1038.6201 108.0797,-1032.4106"></polygon>
</g>
<!-- search&#45;&gt;group&#45;page -->
<g id="edge52" class="edge">
<title>search-&gt;group-page</title>
<path fill="none" stroke="#000000" d="M695.467,-1136.5827C680.8046,-1119.6045 658.4208,-1093.6046 639.149,-1070.8784 623.0287,-1051.8686 625.0073,-1039.8555 603.149,-1027.8784 542.2701,-994.5201 339.0833,-981.2975 243.8489,-976.839"></path>
<polygon fill="#000000" stroke="#000000" points="243.7554,-973.3312 233.6069,-976.3739 243.4378,-980.324 243.7554,-973.3312"></polygon>
</g>
<!-- search&#45;&gt;conversations -->
<g id="edge53" class="edge">
<title>search-&gt;conversations</title>
<path fill="none" stroke="#000000" d="M686.1446,-1172.9502C653.1913,-1196.6269 595.2911,-1238.2277 558.5498,-1264.6261"></path>
<polygon fill="#000000" stroke="#000000" points="556.224,-1261.9875 550.1451,-1270.6649 560.3085,-1267.6723 556.224,-1261.9875"></polygon>
</g>
<!-- user&#45;avatar -->
<g id="node45" class="node">
<title>user-avatar</title>
<polygon fill="#4cafef" stroke="#4cafef" stroke-width="3" points="563.9711,-1716.8784 485.6199,-1716.8784 485.6199,-1680.8784 563.9711,-1680.8784 563.9711,-1716.8784"></polygon>
<text text-anchor="middle" x="524.7955" y="-1694.6784" font-family="Times,serif" font-size="14.00" fill="#000000">user-avatar</text>
</g>
<!-- user&#45;avatar&#45;&gt;state -->
<g id="edge55" class="edge">
<title>user-avatar-&gt;state</title>
<path fill="none" stroke="#000000" d="M495.0317,-1717.0387C444.6289,-1745.1986 341.3005,-1791.4535 272.9468,-1743.8784 251.9408,-1729.2579 270.3673,-1708.6277 252.9468,-1689.8784 246.7491,-1683.2079 238.585,-1678.0607 230.3084,-1674.1389"></path>
<polygon fill="#000000" stroke="#000000" points="231.589,-1670.8805 221.015,-1670.216 228.8667,-1677.3295 231.589,-1670.8805"></polygon>
</g>
<!-- user&#45;avatar&#45;&gt;users -->
<g id="edge54" class="edge">
<title>user-avatar-&gt;users</title>
<path fill="none" stroke="#000000" d="M485.491,-1690.978C454.9101,-1684.8311 412.7707,-1676.3609 382.7708,-1670.3309"></path>
<polygon fill="#000000" stroke="#000000" points="383.1983,-1666.8468 372.7046,-1668.3075 381.8188,-1673.7096 383.1983,-1666.8468"></polygon>
</g>
<!-- user&#45;avatar&#45;&gt;user&#45;settings -->
<g id="edge56" class="edge">
<title>user-avatar-&gt;user-settings</title>
<path fill="none" stroke="#000000" d="M493.0711,-1680.675C476.412,-1669.3934 457.2619,-1653.3431 446.442,-1633.8784 401.9781,-1553.8892 470.0864,-1505.4307 418.442,-1429.8784 376.6768,-1368.7787 334.9232,-1389.3311 272.9468,-1348.8784 256.288,-1338.0049 238.5684,-1324.7475 224.1269,-1313.4626"></path>
<polygon fill="#000000" stroke="#000000" points="226.0543,-1310.5251 216.0355,-1307.0791 221.7186,-1316.0207 226.0543,-1310.5251"></polygon>
</g>
<!-- embeds -->
<g id="node46" class="node">
<title>embeds</title>
<path fill="#4cafef" stroke="#4cafef" stroke-width="3" d="M542.0604,-331.8784C542.0604,-331.8784 507.5306,-331.8784 507.5306,-331.8784 501.5306,-331.8784 495.5306,-325.8784 495.5306,-319.8784 495.5306,-319.8784 495.5306,-307.8784 495.5306,-307.8784 495.5306,-301.8784 501.5306,-295.8784 507.5306,-295.8784 507.5306,-295.8784 542.0604,-295.8784 542.0604,-295.8784 548.0604,-295.8784 554.0604,-301.8784 554.0604,-307.8784 554.0604,-307.8784 554.0604,-319.8784 554.0604,-319.8784 554.0604,-325.8784 548.0604,-331.8784 542.0604,-331.8784"></path>
<text text-anchor="middle" x="524.7955" y="-309.6784" font-family="Times,serif" font-size="14.00" fill="#000000">embeds</text>
</g>
<!-- embeds&#45;&gt;message&#45;footer&#45;ui -->
<g id="edge57" class="edge">
<title>embeds-&gt;message-footer-ui</title>
<path fill="none" stroke="#000000" d="M495.2583,-326.3957C478.0144,-335.3297 457.5291,-349.0998 446.442,-367.8784 382.6324,-475.9544 495.1309,-549.5259 418.442,-648.8784 416.6285,-651.2278 414.5883,-653.3729 412.3739,-655.3313"></path>
<polygon fill="#000000" stroke="#000000" points="410.239,-652.5567 404.2502,-661.2966 414.3821,-658.1989 410.239,-652.5567"></polygon>
</g>
<!-- google&#45;maps&#45;embeds -->
<g id="node47" class="node">
<title>google-maps-embeds</title>
<polygon fill="none" stroke="#4cafef" stroke-width="3" points="779.0378,-88.8784 643.5562,-88.8784 643.5562,-52.8784 779.0378,-52.8784 779.0378,-88.8784"></polygon>
<text text-anchor="middle" x="711.297" y="-66.6784" font-family="Times,serif" font-size="14.00" fill="#000000">google-maps-embeds</text>
</g>
<!-- google&#45;maps&#45;embeds&#45;&gt;embeds -->
<g id="edge58" class="edge">
<title>google-maps-embeds-&gt;embeds</title>
<path fill="none" stroke="#000000" d="M648.9124,-88.9668C645.304,-91.5511 641.9938,-94.5041 639.149,-97.8784 584.0317,-163.2548 659.1195,-222.2309 603.149,-286.8784 593.2973,-298.2574 578.4136,-304.8452 564.2554,-308.6574"></path>
<polygon fill="#000000" stroke="#000000" points="563.1222,-305.3263 554.1566,-310.9716 564.6858,-312.1495 563.1222,-305.3263"></polygon>
</g>
<!-- video&#45;embeds -->
<g id="node48" class="node">
<title>video-embeds</title>
<polygon fill="#4cafef" stroke="#4cafef" stroke-width="3" points="758.3284,-358.8784 664.2656,-358.8784 664.2656,-322.8784 758.3284,-322.8784 758.3284,-358.8784"></polygon>
<text text-anchor="middle" x="711.297" y="-336.6784" font-family="Times,serif" font-size="14.00" fill="#000000">video-embeds</text>
</g>
<!-- video&#45;embeds&#45;&gt;embeds -->
<g id="edge59" class="edge">
<title>video-embeds-&gt;embeds</title>
<path fill="none" stroke="#000000" d="M664.2348,-334.0651C633.3846,-329.5989 593.5111,-323.8264 564.3099,-319.5989"></path>
<polygon fill="#000000" stroke="#000000" points="564.4693,-316.0856 554.0709,-318.1166 563.4663,-323.0133 564.4693,-316.0856"></polygon>
</g>
<!-- youtube&#45;video&#45;embeds -->
<g id="node49" class="node">
<title>youtube-video-embeds</title>
<polygon fill="none" stroke="#4cafef" stroke-width="3" points="783.5933,-304.8784 639.0007,-304.8784 639.0007,-268.8784 783.5933,-268.8784 783.5933,-304.8784"></polygon>
<text text-anchor="middle" x="711.297" y="-282.6784" font-family="Times,serif" font-size="14.00" fill="#000000">youtube-video-embeds</text>
</g>
<!-- youtube&#45;video&#45;embeds&#45;&gt;embeds -->
<g id="edge60" class="edge">
<title>youtube-video-embeds-&gt;embeds</title>
<path fill="none" stroke="#000000" d="M638.9237,-297.3559C613.5819,-301.0247 586.0717,-305.0073 564.4112,-308.1432"></path>
<polygon fill="#000000" stroke="#000000" points="563.6782,-304.7127 554.2829,-309.6094 564.6812,-311.6405 563.6782,-304.7127"></polygon>
</g>
<!-- soundcloud&#45;embeds -->
<g id="node50" class="node">
<title>soundcloud-embeds</title>
<polygon fill="none" stroke="#4cafef" stroke-width="3" points="775.2718,-250.8784 647.3222,-250.8784 647.3222,-214.8784 775.2718,-214.8784 775.2718,-250.8784"></polygon>
<text text-anchor="middle" x="711.297" y="-228.6784" font-family="Times,serif" font-size="14.00" fill="#000000">soundcloud-embeds</text>
</g>
<!-- soundcloud&#45;embeds&#45;&gt;embeds -->
<g id="edge61" class="edge">
<title>soundcloud-embeds-&gt;embeds</title>
<path fill="none" stroke="#000000" d="M657.7254,-250.9539C651.3416,-253.6813 645.0149,-256.6677 639.149,-259.8784 621.605,-269.4809 620.8175,-277.5069 603.149,-286.8784 590.8931,-293.379 576.754,-298.813 563.8889,-303.0617"></path>
<polygon fill="#000000" stroke="#000000" points="562.8309,-299.7254 554.3516,-306.0777 564.9416,-306.3996 562.8309,-299.7254"></polygon>
</g>
<!-- website&#45;embeds -->
<g id="node51" class="node">
<title>website-embeds</title>
<polygon fill="#4cafef" stroke="#4cafef" stroke-width="3" points="764.4838,-196.8784 658.1102,-196.8784 658.1102,-160.8784 764.4838,-160.8784 764.4838,-196.8784"></polygon>
<text text-anchor="middle" x="711.297" y="-174.6784" font-family="Times,serif" font-size="14.00" fill="#000000">website-embeds</text>
</g>
<!-- website&#45;embeds&#45;&gt;embeds -->
<g id="edge62" class="edge">
<title>website-embeds-&gt;embeds</title>
<path fill="none" stroke="#000000" d="M657.9799,-193.1665C651.1212,-196.5641 644.6017,-200.7441 639.149,-205.8784 610.4674,-232.8852 632.1825,-260.2503 603.149,-286.8784 592.3126,-296.817 577.6415,-303.1234 563.9242,-307.1136"></path>
<polygon fill="#000000" stroke="#000000" points="562.9819,-303.742 554.173,-309.6287 564.7302,-310.5202 562.9819,-303.742"></polygon>
</g>
<!-- image&#45;embeds -->
<g id="node52" class="node">
<title>image-embeds</title>
<polygon fill="#4cafef" stroke="#4cafef" stroke-width="3" points="759.9331,-142.8784 662.6609,-142.8784 662.6609,-106.8784 759.9331,-106.8784 759.9331,-142.8784"></polygon>
<text text-anchor="middle" x="711.297" y="-120.6784" font-family="Times,serif" font-size="14.00" fill="#000000">image-embeds</text>
</g>
<!-- image&#45;embeds&#45;&gt;embeds -->
<g id="edge63" class="edge">
<title>image-embeds-&gt;embeds</title>
<path fill="none" stroke="#000000" d="M662.3424,-135.9441C653.6826,-139.7829 645.4384,-144.9438 639.149,-151.8784 597.4317,-197.8748 645.4663,-241.4334 603.149,-286.8784 592.9709,-297.8088 578.1641,-304.3142 564.1558,-308.1861"></path>
<polygon fill="#000000" stroke="#000000" points="563.0902,-304.842 554.1744,-310.5656 564.7135,-311.6512 563.0902,-304.842"></polygon>
</g>
<!-- code&#45;display -->
<g id="node53" class="node">
<title>code-display</title>
<path fill="#4cafef" stroke="#4cafef" stroke-width="3" d="M556.327,-412.8784C556.327,-412.8784 493.264,-412.8784 493.264,-412.8784 487.264,-412.8784 481.264,-406.8784 481.264,-400.8784 481.264,-400.8784 481.264,-388.8784 481.264,-388.8784 481.264,-382.8784 487.264,-376.8784 493.264,-376.8784 493.264,-376.8784 556.327,-376.8784 556.327,-376.8784 562.327,-376.8784 568.327,-382.8784 568.327,-388.8784 568.327,-388.8784 568.327,-400.8784 568.327,-400.8784 568.327,-406.8784 562.327,-412.8784 556.327,-412.8784"></path>
<text text-anchor="middle" x="524.7955" y="-390.6784" font-family="Times,serif" font-size="14.00" fill="#000000">code-display</text>
</g>
<!-- code&#45;display&#45;&gt;message&#45;render -->
<g id="edge64" class="edge">
<title>code-display-&gt;message-render</title>
<path fill="none" stroke="#000000" d="M481.0671,-402.9708C468.7155,-406.9875 456.0404,-412.9733 446.442,-421.8784 423.3826,-443.2722 441.248,-465.2146 418.442,-486.8784 414.9044,-490.2388 410.9116,-493.1888 406.6633,-495.7772"></path>
<polygon fill="#000000" stroke="#000000" points="404.8159,-492.7961 397.6482,-500.5983 408.117,-498.9689 404.8159,-492.7961"></polygon>
</g>
<!-- clojure&#45;code&#45;display -->
<g id="node54" class="node">
<title>clojure-code-display</title>
<polygon fill="#4cafef" stroke="#4cafef" stroke-width="3" points="776.8588,-412.8784 645.7352,-412.8784 645.7352,-376.8784 776.8588,-376.8784 776.8588,-412.8784"></polygon>
<text text-anchor="middle" x="711.297" y="-390.6784" font-family="Times,serif" font-size="14.00" fill="#000000">clojure-code-display</text>
</g>
<!-- clojure&#45;code&#45;display&#45;&gt;code&#45;display -->
<g id="edge65" class="edge">
<title>clojure-code-display-&gt;code-display</title>
<path fill="none" stroke="#000000" d="M645.5435,-394.8784C623.653,-394.8784 599.5422,-394.8784 578.6598,-394.8784"></path>
<polygon fill="#000000" stroke="#000000" points="578.3784,-391.3785 568.3783,-394.8784 578.3783,-398.3785 578.3784,-391.3785"></polygon>
</g>
<!-- long&#45;reply -->
<g id="node55" class="node">
<title>long-reply</title>
<polygon fill="none" stroke="#4cafef" stroke-width="3" points="562.1132,-704.8784 487.4778,-704.8784 487.4778,-668.8784 562.1132,-668.8784 562.1132,-704.8784"></polygon>
<text text-anchor="middle" x="524.7955" y="-682.6784" font-family="Times,serif" font-size="14.00" fill="#000000">long-reply</text>
</g>
<!-- long&#45;reply&#45;&gt;compose&#45;actions -->
<g id="edge66" class="edge">
<title>long-reply-&gt;compose-actions</title>
<path fill="none" stroke="#000000" d="M487.6353,-677.995C473.384,-673.0898 457.8278,-665.7206 446.442,-654.8784 425.1312,-634.5849 440.0782,-614.8246 418.442,-594.8784 415.7058,-592.3559 412.713,-590.0634 409.5508,-587.9806"></path>
<polygon fill="#000000" stroke="#000000" points="411.2533,-584.9221 400.8448,-582.9434 407.7476,-590.981 411.2533,-584.9221"></polygon>
</g>
<!-- email&#45;bridge -->
<g id="node56" class="node">
<title>email-bridge</title>
<polygon fill="none" stroke="#4cafef" stroke-width="3" points="754.8257,-950.8784 667.7683,-950.8784 667.7683,-914.8784 754.8257,-914.8784 754.8257,-950.8784"></polygon>
<text text-anchor="middle" x="711.297" y="-928.6784" font-family="Times,serif" font-size="14.00" fill="#000000">email-bridge</text>
</g>
<!-- email&#45;bridge&#45;&gt;conversations -->
<g id="edge68" class="edge">
<title>email-bridge-&gt;conversations</title>
<path fill="none" stroke="#000000" d="M691.5646,-951.153C675.4034,-967.1022 653.0169,-991.5958 639.149,-1016.8784 612.5752,-1065.3249 623.8256,-1084.6367 603.149,-1135.8784 584.8095,-1181.328 557.7548,-1231.4297 540.7139,-1261.5107"></path>
<polygon fill="#000000" stroke="#000000" points="537.476,-1260.1229 535.5568,-1270.5425 543.5548,-1263.5939 537.476,-1260.1229"></polygon>
</g>
<!-- email&#45;bridge&#45;&gt;group&#45;settings -->
<g id="edge69" class="edge">
<title>email-bridge-&gt;group-settings</title>
<path fill="none" stroke="#000000" d="M667.5599,-933.3569C601.7584,-934.0768 477.2065,-935.4395 403.8318,-936.2423"></path>
<polygon fill="#000000" stroke="#000000" points="403.7905,-932.7424 393.8294,-936.3517 403.8671,-939.742 403.7905,-932.7424"></polygon>
</g>
<!-- email&#45;bridge&#45;&gt;long&#45;reply -->
<g id="edge67" class="edge">
<title>email-bridge-&gt;long-reply</title>
<path fill="none" stroke="#000000" d="M679.3645,-914.7054C664.9996,-904.9638 649.0764,-891.6983 639.149,-875.8784 599.9449,-813.4041 652.2693,-768.8983 603.149,-713.8784 594.9892,-704.7385 583.5881,-698.6917 572.005,-694.6915"></path>
<polygon fill="#000000" stroke="#000000" points="572.8831,-691.301 562.2996,-691.7897 570.8779,-698.0077 572.8831,-691.301"></polygon>
</g>
<!-- stars -->
<g id="node57" class="node">
<title>stars</title>
<polygon fill="none" stroke="#4cafef" stroke-width="3" points="551.7955,-866.8784 497.7955,-866.8784 497.7955,-830.8784 551.7955,-830.8784 551.7955,-866.8784"></polygon>
<text text-anchor="middle" x="524.7955" y="-844.6784" font-family="Times,serif" font-size="14.00" fill="#000000">stars</text>
</g>
<!-- stars&#45;&gt;state -->
<g id="edge72" class="edge">
<title>stars-&gt;state</title>
<path fill="none" stroke="#000000" d="M514.3164,-866.9356C496.6522,-898.4085 461.4135,-965.8849 446.442,-1027.8784 434.5254,-1077.2219 451.3199,-1445.2023 418.442,-1483.8784 375.496,-1534.3982 318.4892,-1468.686 272.9468,-1516.8784 236.111,-1555.8575 285.5985,-1593.3329 252.9468,-1635.8784 247.1923,-1643.3766 238.8745,-1648.8581 230.2854,-1652.8401"></path>
<polygon fill="#000000" stroke="#000000" points="228.9332,-1649.6114 220.9673,-1656.5968 231.5507,-1656.1037 228.9332,-1649.6114"></polygon>
</g>
<!-- stars&#45;&gt;group&#45;header -->
<g id="edge71" class="edge">
<title>stars-&gt;group-header</title>
<path fill="none" stroke="#000000" d="M497.721,-838.6711C476.5025,-831.2417 446.0492,-821.8198 418.442,-817.8784 291.7943,-799.7969 230.7133,-781.417 134.6256,-865.8784 98.2887,-897.8186 77.9169,-951.978 68.3074,-984.8836"></path>
<polygon fill="#000000" stroke="#000000" points="64.8667,-984.1932 65.5591,-994.7654 71.6107,-986.0689 64.8667,-984.1932"></polygon>
</g>
<!-- stars&#45;&gt;conversation&#45;header -->
<g id="edge70" class="edge">
<title>stars-&gt;conversation-header</title>
<path fill="none" stroke="#000000" d="M497.5413,-843.6748C481.5528,-839.6499 461.5841,-832.8589 446.442,-821.8784 429.7472,-809.7719 433.0276,-799.4573 418.442,-784.8784 407.3417,-773.7832 393.9307,-763.0341 381.6626,-754.0267"></path>
<polygon fill="#000000" stroke="#000000" points="383.5578,-751.0786 373.3943,-748.0861 379.4733,-756.7635 383.5578,-751.0786"></polygon>
</g>
<!-- stars&#45;&gt;group&#45;page -->
<g id="edge73" class="edge">
<title>stars-&gt;group-page</title>
<path fill="none" stroke="#000000" d="M497.7176,-854.7185C436.897,-867.939 293.1776,-899.7905 272.9468,-909.8784 252.8058,-919.9214 233.2315,-935.9213 218.5863,-949.5333"></path>
<polygon fill="#000000" stroke="#000000" points="215.7968,-947.3578 210.9849,-956.7969 220.6328,-952.4188 215.7968,-947.3578"></polygon>
</g>
<!-- invites -->
<g id="node58" class="node">
<title>invites</title>
<polygon fill="#4cafef" stroke="#4cafef" stroke-width="3" points="372.6944,-1122.8784 318.6944,-1122.8784 318.6944,-1086.8784 372.6944,-1086.8784 372.6944,-1122.8784"></polygon>
<text text-anchor="middle" x="345.6944" y="-1100.6784" font-family="Times,serif" font-size="14.00" fill="#000000">invites</text>
</g>
<!-- invites&#45;&gt;email -->
<g id="edge74" class="edge">
<title>invites-&gt;email</title>
<path fill="none" stroke="#000000" d="M329.0458,-1123.1232C312.1977,-1142.6328 286.7258,-1175.1989 272.9468,-1207.8784 253.9809,-1252.8595 262.2224,-1267.9516 252.9468,-1315.8784 234.0817,-1413.354 210.3716,-1528.7806 199.5948,-1580.8851"></path>
<polygon fill="#000000" stroke="#000000" points="196.1575,-1580.224 197.5574,-1590.7259 203.0122,-1581.6432 196.1575,-1580.224"></polygon>
</g>
<!-- invites&#45;&gt;user&#45;menu -->
<g id="edge75" class="edge">
<title>invites-&gt;user-menu</title>
<path fill="none" stroke="#000000" d="M318.6841,-1106.398C270.5839,-1109.1043 169.4999,-1114.7915 109.3201,-1118.1774"></path>
<polygon fill="#000000" stroke="#000000" points="109.0921,-1114.6845 99.3045,-1118.7409 109.4854,-1121.6735 109.0921,-1114.6845"></polygon>
</g>
<!-- invites&#45;&gt;group&#45;page -->
<g id="edge76" class="edge">
<title>invites-&gt;group-page</title>
<path fill="none" stroke="#000000" d="M324.5722,-1086.8024C298.1929,-1064.2275 252.9192,-1025.4832 223.1694,-1000.0239"></path>
<polygon fill="#000000" stroke="#000000" points="225.0921,-997.0627 215.2187,-993.2199 220.5407,-1002.381 225.0921,-997.0627"></polygon>
</g>
<!-- reactions -->
<g id="node59" class="node">
<title>reactions</title>
<polygon fill="none" stroke="#4cafef" stroke-width="3" points="557.8273,-1072.8784 491.7637,-1072.8784 491.7637,-1036.8784 557.8273,-1036.8784 557.8273,-1072.8784"></polygon>
<text text-anchor="middle" x="524.7955" y="-1050.6784" font-family="Times,serif" font-size="14.00" fill="#000000">reactions</text>
</g>
<!-- reactions&#45;&gt;state -->
<g id="edge78" class="edge">
<title>reactions-&gt;state</title>
<path fill="none" stroke="#000000" d="M491.6164,-1057.8549C475.3816,-1061.1353 457.0876,-1067.9215 446.442,-1081.8784 387.6953,-1158.8977 480.0865,-1442.1581 418.442,-1516.8784 375.9101,-1568.4319 319.8877,-1507.3043 272.9468,-1554.8784 246.9027,-1581.2738 276.6177,-1607.3354 252.9468,-1635.8784 247.0297,-1643.0133 238.823,-1648.3489 230.4039,-1652.3053"></path>
<polygon fill="#000000" stroke="#000000" points="228.8345,-1649.1663 220.919,-1656.2087 231.4985,-1655.6396 228.8345,-1649.1663"></polygon>
</g>
<!-- reactions&#45;&gt;message&#45;footer&#45;ui -->
<g id="edge77" class="edge">
<title>reactions-&gt;message-footer-ui</title>
<path fill="none" stroke="#000000" d="M514.9626,-1036.648C498.2742,-1004.9137 464.4666,-937.0539 446.442,-875.8784 424.4284,-801.1645 467.8973,-763.0526 418.442,-702.8784 416.7206,-700.7838 414.8202,-698.8517 412.7797,-697.0695"></path>
<polygon fill="#000000" stroke="#000000" points="414.4452,-693.9536 404.2965,-690.9116 410.3331,-699.6185 414.4452,-693.9536"></polygon>
</g>
<!-- auto&#45;translate -->
<g id="node60" class="node">
<title>auto-translate</title>
<polygon fill="none" stroke="#4cafef" stroke-width="3" points="570.9823,-812.8784 478.6087,-812.8784 478.6087,-776.8784 570.9823,-776.8784 570.9823,-812.8784"></polygon>
<text text-anchor="middle" x="524.7955" y="-790.6784" font-family="Times,serif" font-size="14.00" fill="#000000">auto-translate</text>
</g>
<!-- auto&#45;translate&#45;&gt;message&#45;render -->
<g id="edge79" class="edge">
<title>auto-translate-&gt;message-render</title>
<path fill="none" stroke="#000000" d="M478.558,-788.1025C466.4283,-784.1238 454.5022,-777.8287 446.442,-767.8784 382.4568,-688.889 481.4931,-620.6153 418.442,-540.8784 415.1323,-536.6928 411.1052,-533.1561 406.662,-530.1676"></path>
<polygon fill="#000000" stroke="#000000" points="408.108,-526.9638 397.6838,-525.0699 404.6517,-533.0511 408.108,-526.9638"></polygon>
</g>
<!-- auto&#45;translate&#45;&gt;message&#45;footer&#45;ui -->
<g id="edge80" class="edge">
<title>auto-translate-&gt;message-footer-ui</title>
<path fill="none" stroke="#000000" d="M478.6207,-785.9655C467.0574,-781.9672 455.4075,-776.1963 446.442,-767.8784 423.3826,-746.4845 441.248,-724.5421 418.442,-702.8784 416.7358,-701.2576 414.9237,-699.7323 413.0281,-698.297"></path>
<polygon fill="#000000" stroke="#000000" points="414.5376,-695.1025 404.2515,-692.5633 410.7091,-700.9627 414.5376,-695.1025"></polygon>
</g>
<!-- auto&#45;translate&#45;&gt;user&#45;settings -->
<g id="edge81" class="edge">
<title>auto-translate-&gt;user-settings</title>
<path fill="none" stroke="#000000" d="M478.3493,-801.4879C466.215,-805.463 454.3387,-811.7978 446.442,-821.8784 403.787,-876.3297 456.9109,-1074.3932 418.442,-1131.8784 377.8677,-1192.5097 331.5018,-1164.3611 272.9468,-1207.8784 251.3825,-1223.9047 230.286,-1245.899 215.3014,-1262.9248"></path>
<polygon fill="#000000" stroke="#000000" points="212.3542,-1260.9822 208.461,-1270.8358 217.6493,-1265.5606 212.3542,-1260.9822"></polygon>
</g>
<!-- links&#45;in&#45;message -->
<g id="node61" class="node">
<title>links-in-message</title>
<polygon fill="#4cafef" stroke="#4cafef" stroke-width="3" points="580.1568,-277.8784 469.4342,-277.8784 469.4342,-241.8784 580.1568,-241.8784 580.1568,-277.8784"></polygon>
<text text-anchor="middle" x="524.7955" y="-255.6784" font-family="Times,serif" font-size="14.00" fill="#000000">links-in-message</text>
</g>
<!-- links&#45;in&#45;message&#45;&gt;message&#45;render -->
<g id="edge82" class="edge">
<title>links-in-message-&gt;message-render</title>
<path fill="none" stroke="#000000" d="M469.3575,-270.3073C460.6118,-274.2037 452.4795,-279.5486 446.442,-286.8784 389.3769,-356.158 474.6878,-416.9319 418.442,-486.8784 415.0982,-491.0367 411.0475,-494.5546 406.5889,-497.5308"></path>
<polygon fill="#000000" stroke="#000000" points="404.5768,-494.6474 397.5902,-502.6122 408.0188,-500.7427 404.5768,-494.6474"></polygon>
</g>
<!-- keyboard&#45;shortcuts -->
<g id="node62" class="node">
<title>keyboard-shortcuts</title>
<path fill="none" stroke="#4cafef" stroke-width="3" d="M936.712,-1004.8784C936.712,-1004.8784 837.1192,-1004.8784 837.1192,-1004.8784 831.1192,-1004.8784 825.1192,-998.8784 825.1192,-992.8784 825.1192,-992.8784 825.1192,-980.8784 825.1192,-980.8784 825.1192,-974.8784 831.1192,-968.8784 837.1192,-968.8784 837.1192,-968.8784 936.712,-968.8784 936.712,-968.8784 942.712,-968.8784 948.712,-974.8784 948.712,-980.8784 948.712,-980.8784 948.712,-992.8784 948.712,-992.8784 948.712,-998.8784 942.712,-1004.8784 936.712,-1004.8784"></path>
<text text-anchor="middle" x="886.9156" y="-982.6784" font-family="Times,serif" font-size="14.00" fill="#000000">keyboard-shortcuts</text>
</g>
<!-- slack&#45;bridge -->
<g id="node63" class="node">
<title>slack-bridge</title>
<polygon fill="none" stroke="#4cafef" stroke-width="3" points="753.988,-1360.8784 668.606,-1360.8784 668.606,-1324.8784 753.988,-1324.8784 753.988,-1360.8784"></polygon>
<text text-anchor="middle" x="711.297" y="-1338.6784" font-family="Times,serif" font-size="14.00" fill="#000000">slack-bridge</text>
</g>
<!-- slack&#45;bridge&#45;&gt;conversations -->
<g id="edge83" class="edge">
<title>slack-bridge-&gt;conversations</title>
<path fill="none" stroke="#000000" d="M668.5098,-1330.4897C642.5358,-1322.9691 609.087,-1313.2843 580.9954,-1305.1506"></path>
<polygon fill="#000000" stroke="#000000" points="581.8824,-1301.7637 571.3035,-1302.3444 579.9355,-1308.4875 581.8824,-1301.7637"></polygon>
</g>
<!-- asana&#45;bridge -->
<g id="node64" class="node">
<title>asana-bridge</title>
<polygon fill="none" stroke="#4cafef" stroke-width="3" points="754.8131,-866.8784 667.7809,-866.8784 667.7809,-830.8784 754.8131,-830.8784 754.8131,-866.8784"></polygon>
<text text-anchor="middle" x="711.297" y="-844.6784" font-family="Times,serif" font-size="14.00" fill="#000000">asana-bridge</text>
</g>
<!-- asana&#45;bridge&#45;&gt;autocomplete -->
<g id="edge84" class="edge">
<title>asana-bridge-&gt;autocomplete</title>
<path fill="none" stroke="#000000" d="M693.1944,-830.7137C677.1898,-813.8285 654.1226,-787.363 639.149,-760.8784 615.6952,-719.3943 638.5601,-691.7698 603.149,-659.8784 549.8961,-611.9185 496.2644,-673.3928 446.442,-621.8784 403.8421,-577.8317 458.3824,-533.3501 418.442,-486.8784 413.6125,-481.2592 407.5004,-476.8082 400.8796,-473.2829"></path>
<polygon fill="#000000" stroke="#000000" points="402.157,-470.0181 391.6086,-469.0266 399.2363,-476.3797 402.157,-470.0181"></polygon>
</g>
<!-- asana&#45;bridge&#45;&gt;conversations -->
<g id="edge85" class="edge">
<title>asana-bridge-&gt;conversations</title>
<path fill="none" stroke="#000000" d="M678.5453,-867.029C664.1787,-876.6872 648.4894,-889.8895 639.149,-905.8784 586.9583,-995.2177 635.1336,-1037.4793 603.149,-1135.8784 587.9329,-1182.6899 559.7989,-1232.6925 541.7089,-1262.3425"></path>
<polygon fill="#000000" stroke="#000000" points="538.7221,-1260.518 536.4427,-1270.8647 544.6769,-1264.1977 538.7221,-1260.518"></polygon>
</g>
<!-- github&#45;bridge -->
<g id="node65" class="node">
<title>github-bridge</title>
<polygon fill="none" stroke="#4cafef" stroke-width="3" points="757.5048,-1061.8784 665.0892,-1061.8784 665.0892,-1025.8784 757.5048,-1025.8784 757.5048,-1061.8784"></polygon>
<text text-anchor="middle" x="711.297" y="-1039.6784" font-family="Times,serif" font-size="14.00" fill="#000000">github-bridge</text>
</g>
<!-- github&#45;bridge&#45;&gt;conversations -->
<g id="edge86" class="edge">
<title>github-bridge-&gt;conversations</title>
<path fill="none" stroke="#000000" d="M694.7481,-1062.1502C679.7894,-1078.8959 657.3848,-1104.5563 639.149,-1127.8784 603.2449,-1173.7967 564.5936,-1229.7348 542.6799,-1262.1312"></path>
<polygon fill="#000000" stroke="#000000" points="539.6472,-1260.3683 536.9591,-1270.6165 545.4514,-1264.2815 539.6472,-1260.3683"></polygon>
</g>
<!-- github&#45;bridge&#45;&gt;group&#45;settings -->
<g id="edge87" class="edge">
<title>github-bridge-&gt;group-settings</title>
<path fill="none" stroke="#000000" d="M675.985,-1025.6688C655.202,-1015.5157 628.165,-1003.2657 603.149,-994.8784 536.2199,-972.4386 456.5996,-956.0009 403.8063,-946.4687"></path>
<polygon fill="#000000" stroke="#000000" points="404.4026,-943.0199 393.9438,-944.7119 403.175,-949.9114 404.4026,-943.0199"></polygon>
</g>
<!-- voice&#45;and&#45;video&#45;chat -->
<g id="node66" class="node">
<title>voice-and-video-chat</title>
<polygon fill="none" stroke="#4cafef" stroke-width="3" points="954.3568,-1058.8784 819.4744,-1058.8784 819.4744,-1022.8784 954.3568,-1022.8784 954.3568,-1058.8784"></polygon>
<text text-anchor="middle" x="886.9156" y="-1036.6784" font-family="Times,serif" font-size="14.00" fill="#000000">voice-and-video-chat</text>
</g>
<!-- gmail&#45;bridge -->
<g id="node67" class="node">
<title>gmail-bridge</title>
<polygon fill="none" stroke="#4cafef" stroke-width="3" points="931.229,-950.8784 842.6022,-950.8784 842.6022,-914.8784 931.229,-914.8784 931.229,-950.8784"></polygon>
<text text-anchor="middle" x="886.9156" y="-928.6784" font-family="Times,serif" font-size="14.00" fill="#000000">gmail-bridge</text>
</g>
<!-- gmail&#45;bridge&#45;&gt;email&#45;bridge -->
<g id="edge88" class="edge">
<title>gmail-bridge-&gt;email-bridge</title>
<path fill="none" stroke="#000000" d="M842.5996,-932.8784C819.0224,-932.8784 789.8483,-932.8784 764.9924,-932.8784"></path>
<polygon fill="#000000" stroke="#000000" points="764.9905,-929.3785 754.9904,-932.8784 764.9904,-936.3785 764.9905,-929.3785"></polygon>
</g>
<!-- google&#45;groups&#45;bridge -->
<g id="node68" class="node">
<title>google-groups-bridge</title>
<polygon fill="none" stroke="#4cafef" stroke-width="3" points="780.0947,-1306.8784 642.4993,-1306.8784 642.4993,-1270.8784 780.0947,-1270.8784 780.0947,-1306.8784"></polygon>
<text text-anchor="middle" x="711.297" y="-1284.6784" font-family="Times,serif" font-size="14.00" fill="#000000">google-groups-bridge</text>
</g>
<!-- google&#45;groups&#45;bridge&#45;&gt;conversations -->
<g id="edge89" class="edge">
<title>google-groups-bridge-&gt;conversations</title>
<path fill="none" stroke="#000000" d="M642.6453,-1288.8784C622.5722,-1288.8784 600.8613,-1288.8784 581.6092,-1288.8784"></path>
<polygon fill="#000000" stroke="#000000" points="581.4911,-1285.3785 571.4911,-1288.8784 581.4911,-1292.3785 581.4911,-1285.3785"></polygon>
</g>
<!-- discourse&#45;bridge -->
<g id="node69" class="node">
<title>discourse-bridge</title>
<polygon fill="none" stroke="#4cafef" stroke-width="3" points="766.0934,-1414.8784 656.5006,-1414.8784 656.5006,-1378.8784 766.0934,-1378.8784 766.0934,-1414.8784"></polygon>
<text text-anchor="middle" x="711.297" y="-1392.6784" font-family="Times,serif" font-size="14.00" fill="#000000">discourse-bridge</text>
</g>
<!-- discourse&#45;bridge&#45;&gt;conversations -->
<g id="edge90" class="edge">
<title>discourse-bridge-&gt;conversations</title>
<path fill="none" stroke="#000000" d="M658.1931,-1378.809C651.6653,-1376.064 645.1762,-1373.0715 639.149,-1369.8784 608.839,-1353.8204 577.2301,-1330.8817 554.9463,-1313.5118"></path>
<polygon fill="#000000" stroke="#000000" points="556.9037,-1310.598 546.8845,-1307.1532 552.5687,-1316.0942 556.9037,-1310.598"></polygon>
</g>
<!-- password&#45;obfuscator -->
<g id="node70" class="node">
<title>password-obfuscator</title>
<polygon fill="none" stroke="#4cafef" stroke-width="3" points="590.9133,-758.8784 458.6777,-758.8784 458.6777,-722.8784 590.9133,-722.8784 590.9133,-758.8784"></polygon>
<text text-anchor="middle" x="524.7955" y="-736.6784" font-family="Times,serif" font-size="14.00" fill="#000000">password-obfuscator</text>
</g>
<!-- password&#45;obfuscator&#45;&gt;message&#45;preprocess -->
<g id="edge91" class="edge">
<title>password-obfuscator-&gt;message-preprocess</title>
<path fill="none" stroke="#000000" d="M458.3118,-722.6869C454.0439,-720.1252 450.0282,-717.2055 446.442,-713.8784 423.3826,-692.4845 441.248,-670.5421 418.442,-648.8784 417.3432,-647.8346 416.2004,-646.8304 415.0198,-645.8643"></path>
<polygon fill="#000000" stroke="#000000" points="416.9299,-642.9286 406.7403,-640.0264 412.8961,-648.6495 416.9299,-642.9286"></polygon>
</g>
<!-- quests -->
<g id="node71" class="node">
<title>quests</title>
<path fill="#4cafef" stroke="#4cafef" stroke-width="3" d="M360.6944,-1252.8784C360.6944,-1252.8784 330.6944,-1252.8784 330.6944,-1252.8784 324.6944,-1252.8784 318.6944,-1246.8784 318.6944,-1240.8784 318.6944,-1240.8784 318.6944,-1228.8784 318.6944,-1228.8784 318.6944,-1222.8784 324.6944,-1216.8784 330.6944,-1216.8784 330.6944,-1216.8784 360.6944,-1216.8784 360.6944,-1216.8784 366.6944,-1216.8784 372.6944,-1222.8784 372.6944,-1228.8784 372.6944,-1228.8784 372.6944,-1240.8784 372.6944,-1240.8784 372.6944,-1246.8784 366.6944,-1252.8784 360.6944,-1252.8784"></path>
<text text-anchor="middle" x="345.6944" y="-1230.6784" font-family="Times,serif" font-size="14.00" fill="#000000">quests</text>
</g>
<!-- quests&#45;&gt;state -->
<g id="edge93" class="edge">
<title>quests-&gt;state</title>
<path fill="none" stroke="#000000" d="M318.4436,-1237.6649C302.4986,-1240.8251 283.4866,-1247.556 272.9468,-1261.8784 223.6158,-1328.9131 299.8069,-1567.0936 252.9468,-1635.8784 247.5318,-1643.8268 239.1697,-1649.4751 230.4215,-1653.474"></path>
<polygon fill="#000000" stroke="#000000" points="228.9378,-1650.2959 220.8984,-1657.1965 231.4864,-1656.8156 228.9378,-1650.2959"></polygon>
</g>
<!-- quests&#45;&gt;group&#45;header -->
<g id="edge92" class="edge">
<title>quests-&gt;group-header</title>
<path fill="none" stroke="#000000" d="M318.5166,-1234.3706C272.9441,-1231.9427 181.5135,-1220.0276 134.6256,-1164.8784 98.1825,-1122.0142 147.7872,-1085.3288 114.6256,-1039.8784 114.167,-1039.2498 113.6894,-1038.6348 113.1945,-1038.0333"></path>
<polygon fill="#000000" stroke="#000000" points="115.5138,-1035.4067 105.9034,-1030.9467 110.635,-1040.4264 115.5138,-1035.4067"></polygon>
</g>
<!-- markdown -->
<g id="node72" class="node">
<title>markdown</title>
<polygon fill="none" stroke="#4cafef" stroke-width="3" points="562.668,-558.8784 486.923,-558.8784 486.923,-522.8784 562.668,-522.8784 562.668,-558.8784"></polygon>
<text text-anchor="middle" x="524.7955" y="-536.6784" font-family="Times,serif" font-size="14.00" fill="#000000">markdown</text>
</g>
<!-- markdown&#45;&gt;message&#45;render -->
<g id="edge94" class="edge">
<title>markdown-&gt;message-render</title>
<path fill="none" stroke="#000000" d="M486.8128,-535.1524C463.777,-531.6796 433.8351,-527.1658 407.4617,-523.19"></path>
<polygon fill="#000000" stroke="#000000" points="407.9605,-519.7257 397.5505,-521.6958 406.917,-526.6475 407.9605,-519.7257"></polygon>
</g>
<!-- braid&#45;messaging -->
<g id="node73" class="node">
<title>braid-messaging</title>
<polygon fill="#4cafef" stroke="#4cafef" stroke-width="3" points="765.324,-1252.8784 657.27,-1252.8784 657.27,-1216.8784 765.324,-1216.8784 765.324,-1252.8784"></polygon>
<text text-anchor="middle" x="711.297" y="-1230.6784" font-family="Times,serif" font-size="14.00" fill="#000000">braid-messaging</text>
</g>
<!-- braid&#45;messaging&#45;&gt;conversations -->
<g id="edge96" class="edge">
<title>braid-messaging-&gt;conversations</title>
<path fill="none" stroke="#000000" d="M657.1025,-1250.5699C633.2821,-1257.4669 605.3117,-1265.5655 581.2393,-1272.5355"></path>
<polygon fill="#000000" stroke="#000000" points="580.1645,-1269.2029 571.5324,-1275.3461 582.1113,-1275.9267 580.1645,-1269.2029"></polygon>
</g>
<!-- braid&#45;messaging&#45;&gt;quests -->
<g id="edge95" class="edge">
<title>braid-messaging-&gt;quests</title>
<path fill="none" stroke="#000000" d="M656.9574,-1234.8784C581.7749,-1234.8784 447.972,-1234.8784 383.0661,-1234.8784"></path>
<polygon fill="#000000" stroke="#000000" points="382.8887,-1231.3785 372.8887,-1234.8784 382.8887,-1238.3785 382.8887,-1231.3785"></polygon>
</g>
<!-- payments -->
<g id="node74" class="node">
<title>payments</title>
<polygon fill="#4cafef" stroke="#4cafef" stroke-width="3" points="559.4514,-1126.8784 490.1396,-1126.8784 490.1396,-1090.8784 559.4514,-1090.8784 559.4514,-1126.8784"></polygon>
<text text-anchor="middle" x="524.7955" y="-1104.6784" font-family="Times,serif" font-size="14.00" fill="#000000">payments</text>
</g>
<!-- payments&#45;&gt;group&#45;header -->
<g id="edge97" class="edge">
<title>payments-&gt;group-header</title>
<path fill="none" stroke="#000000" d="M489.9115,-1101.6156C475.5228,-1097.4612 459.2546,-1091.1696 446.442,-1081.8784 429.7472,-1069.7719 436.4785,-1054.8768 418.442,-1044.8784 368.0864,-1016.9639 204.0378,-1012.6824 116.8925,-1012.4552"></path>
<polygon fill="#000000" stroke="#000000" points="116.6621,-1008.9551 106.659,-1012.4463 116.6559,-1015.9551 116.6621,-1008.9551"></polygon>
</g>
<!-- payments&#45;&gt;users -->
<g id="edge98" class="edge">
<title>payments-&gt;users</title>
<path fill="none" stroke="#000000" d="M512.4616,-1127.2296C494.4872,-1155.0151 461.5918,-1210.0304 446.442,-1261.8784 409.7523,-1387.4433 462.5635,-1431.7281 418.442,-1554.8784 407.4026,-1585.6911 385.5817,-1616.1951 368.7052,-1636.8842"></path>
<polygon fill="#000000" stroke="#000000" points="366.0015,-1634.6614 362.2826,-1644.5821 371.3764,-1639.1458 366.0015,-1634.6614"></polygon>
</g>
<!-- payments&#45;&gt;group&#45;settings -->
<g id="edge99" class="edge">
<title>payments-&gt;group-settings</title>
<path fill="none" stroke="#000000" d="M490.0579,-1103.7408C475.0093,-1099.9345 458.1869,-1093.328 446.442,-1081.8784 420.9645,-1057.0414 437.97,-1036.6211 418.442,-1006.8784 407.2412,-989.8186 391.1798,-973.7964 376.9965,-961.3971"></path>
<polygon fill="#000000" stroke="#000000" points="379.2385,-958.7092 369.3529,-954.8978 374.704,-964.042 379.2385,-958.7092"></polygon>
</g>
<!-- rest&#45;api -->
<g id="node75" class="node">
<title>rest-api</title>
<path fill="none" stroke="#4cafef" stroke-width="3" d="M903.8918,-1112.8784C903.8918,-1112.8784 869.9394,-1112.8784 869.9394,-1112.8784 863.9394,-1112.8784 857.9394,-1106.8784 857.9394,-1100.8784 857.9394,-1100.8784 857.9394,-1088.8784 857.9394,-1088.8784 857.9394,-1082.8784 863.9394,-1076.8784 869.9394,-1076.8784 869.9394,-1076.8784 903.8918,-1076.8784 903.8918,-1076.8784 909.8918,-1076.8784 915.8918,-1082.8784 915.8918,-1088.8784 915.8918,-1088.8784 915.8918,-1100.8784 915.8918,-1100.8784 915.8918,-1106.8784 909.8918,-1112.8784 903.8918,-1112.8784"></path>
<text text-anchor="middle" x="886.9156" y="-1090.6784" font-family="Times,serif" font-size="14.00" fill="#000000">rest-api</text>
</g>
</g>
</svg>
